<svg width="258" height="243" viewBox="0 0 258 243" fill="none" xmlns="http://www.w3.org/2000/svg">
<path d="M10.464 10.544C9.33333 11.664 7.95733 12.224 6.336 12.224C4.71467 12.224 3.33867 11.664 2.208 10.544C1.088 9.41333 0.528 8.032 0.528 6.4C0.528 4.768 1.088 3.392 2.208 2.272C3.33867 1.14133 4.71467 0.575999 6.336 0.575999C7.95733 0.575999 9.33333 1.14133 10.464 2.272C11.5947 3.392 12.16 4.768 12.16 6.4C12.16 8.032 11.5947 9.41333 10.464 10.544ZM3.76 9.04C4.45333 9.72267 5.312 10.064 6.336 10.064C7.36 10.064 8.21867 9.72267 8.912 9.04C9.60533 8.34667 9.952 7.46667 9.952 6.4C9.952 5.33333 9.60533 4.45333 8.912 3.76C8.21867 3.06667 7.36 2.72 6.336 2.72C5.312 2.72 4.45333 3.06667 3.76 3.76C3.06667 4.45333 2.72 5.33333 2.72 6.4C2.72 7.46667 3.06667 8.34667 3.76 9.04ZM24.9919 12H22.5919L19.6799 8.368V12H17.6159V4H19.6799V7.52L22.4319 4H24.8959L21.6799 7.952L24.9919 12ZM32.26 11.008C31.4387 11.8187 30.436 12.224 29.252 12.224C28.068 12.224 27.0653 11.8187 26.244 11.008C25.4333 10.1867 25.028 9.184 25.028 8C25.028 6.816 25.4333 5.81867 26.244 5.008C27.0653 4.18667 28.068 3.776 29.252 3.776C30.436 3.776 31.4387 4.18667 32.26 5.008C33.0813 5.81867 33.492 6.816 33.492 8C33.492 9.184 33.0813 10.1867 32.26 11.008ZM27.7 9.584C28.116 10 28.6333 10.208 29.252 10.208C29.8707 10.208 30.388 10 30.804 9.584C31.22 9.168 31.428 8.64 31.428 8C31.428 7.36 31.22 6.832 30.804 6.416C30.388 6 29.8707 5.792 29.252 5.792C28.6333 5.792 28.116 6 27.7 6.416C27.2947 6.832 27.092 7.36 27.092 8C27.092 8.64 27.2947 9.168 27.7 9.584ZM43.264 4V12H41.264V7.328L39.232 10.528H38.976L36.928 7.296V12H34.944V4H36.976L39.104 7.36L41.232 4H43.264ZM52.4591 4V12H50.3951V5.936H47.2111V12H45.1471V4H52.4591ZM60.4303 4H62.4943V12H60.4303V11.056C59.8116 11.8347 58.9423 12.224 57.8223 12.224C56.7556 12.224 55.8383 11.8187 55.0703 11.008C54.3129 10.1867 53.9342 9.184 53.9342 8C53.9342 6.816 54.3129 5.81867 55.0703 5.008C55.8383 4.18667 56.7556 3.776 57.8223 3.776C58.9423 3.776 59.8116 4.16533 60.4303 4.944V4ZM56.6223 9.632C57.0383 10.048 57.5663 10.256 58.2063 10.256C58.8463 10.256 59.3743 10.048 59.7903 9.632C60.2169 9.20533 60.4303 8.66133 60.4303 8C60.4303 7.33867 60.2169 6.8 59.7903 6.384C59.3743 5.95733 58.8463 5.744 58.2063 5.744C57.5663 5.744 57.0383 5.95733 56.6223 6.384C56.2063 6.8 55.9983 7.33867 55.9983 8C55.9983 8.66133 56.2063 9.20533 56.6223 9.632ZM69.6139 4H71.6779V12H69.6139V8.96H66.4299V12H64.3659V4H66.4299V7.024H69.6139V4ZM79.345 4H80.881V12H78.865V7.456L75.105 12H73.569V4H75.585V8.544L79.345 4ZM88.5481 4H90.0841V12H88.0681V7.456L84.3081 12H82.7721V4H84.7881V8.544L88.5481 4Z" fill="#1F2428"/>
<path d="M6.972 35.2H7.742L4.48 42.858C3.82667 44.3887 2.83267 45.1027 1.498 45V44.314C2.506 44.426 3.25267 43.9127 3.738 42.774L3.906 42.382L0.462 35.2H1.232L4.256 41.542L6.972 35.2ZM11.2293 45.154C10.1746 45.154 9.29731 44.804 8.59731 44.104C7.89731 43.404 7.54731 42.536 7.54731 41.5C7.54731 40.464 7.89731 39.596 8.59731 38.896C9.29731 38.196 10.1746 37.846 11.2293 37.846C11.9106 37.846 12.5266 38.0093 13.0773 38.336C13.628 38.6533 14.0293 39.0873 14.2813 39.638L13.7073 39.974C13.502 39.526 13.1753 39.1713 12.7273 38.91C12.2886 38.6487 11.7893 38.518 11.2293 38.518C10.3893 38.518 9.68465 38.8073 9.11531 39.386C8.54598 39.9553 8.26131 40.66 8.26131 41.5C8.26131 42.34 8.54598 43.0493 9.11531 43.628C9.68465 44.1973 10.3893 44.482 11.2293 44.482C11.7893 44.482 12.2886 44.3513 12.7273 44.09C13.1753 43.8287 13.516 43.474 13.7493 43.026L14.3373 43.376C14.0573 43.9173 13.6373 44.3513 13.0773 44.678C12.5266 44.9953 11.9106 45.154 11.2293 45.154ZM21.4183 38V45H20.7183V38.686H17.1903V42.06C17.1903 43.1987 16.9803 43.9873 16.5603 44.426C16.1403 44.8647 15.5663 45.056 14.8383 45V44.342C15.3983 44.3887 15.8136 44.2393 16.0843 43.894C16.3549 43.5487 16.4903 42.9373 16.4903 42.06V38H21.4183ZM28.6922 38H29.4482L26.4242 45.644C26.1536 46.3347 25.7709 46.876 25.2762 47.268C24.7816 47.6693 24.2402 47.8467 23.6522 47.8V47.142C24.1002 47.1793 24.5016 47.0487 24.8562 46.75C25.2202 46.4607 25.5142 46.0453 25.7382 45.504L25.8922 45.126L22.6722 38H23.4282L26.2562 44.23L28.6922 38ZM35.087 38V38.686H31.405V45H30.705V38H35.087ZM41.5038 38H42.1198V45H41.4058V39.218L36.9538 45H36.3378V38H37.0378V43.782L41.5038 38ZM8.12 76.3H9.142V78.876H8.4V77H1.218V67.2H1.96V76.3H7.378V67.2H8.12V76.3ZM13.6206 69.846C14.6472 69.846 15.4779 70.21 16.1126 70.938C16.7566 71.666 17.0786 72.5293 17.0786 73.528C17.0786 73.5653 17.0739 73.6213 17.0646 73.696C17.0646 73.7707 17.0646 73.8267 17.0646 73.864H10.7226C10.8066 74.648 11.1192 75.2827 11.6606 75.768C12.2112 76.244 12.8879 76.482 13.6906 76.482C14.2506 76.482 14.7406 76.3653 15.1606 76.132C15.5806 75.8987 15.8979 75.5907 16.1126 75.208L16.7286 75.572C16.4392 76.0573 16.0286 76.4447 15.4966 76.734C14.9646 77.014 14.3579 77.154 13.6766 77.154C12.6032 77.154 11.7212 76.8133 11.0306 76.132C10.3399 75.4413 9.99458 74.564 9.99458 73.5C9.99458 72.4547 10.3306 71.5867 11.0026 70.896C11.6839 70.196 12.5566 69.846 13.6206 69.846ZM13.6206 70.518C12.8272 70.518 12.1646 70.7653 11.6326 71.26C11.1006 71.7547 10.7972 72.394 10.7226 73.178H16.3506C16.2759 72.3473 15.9772 71.6987 15.4546 71.232C14.9412 70.756 14.3299 70.518 13.6206 70.518ZM23.7827 70H24.4967V77H23.7827V73.836H19.4147V77H18.7147V70H19.4147V73.164H23.7827V70ZM29.4301 72.716C30.0741 72.716 30.6201 72.9167 31.0681 73.318C31.5161 73.7193 31.7401 74.2327 31.7401 74.858C31.7401 75.4833 31.5161 75.9967 31.0681 76.398C30.6201 76.7993 30.0741 77 29.4301 77H26.6581V70H27.3581V72.716H29.4301ZM32.8181 70H33.5181V77H32.8181V70ZM29.4301 76.314C29.8781 76.314 30.2561 76.1787 30.5641 75.908C30.8721 75.6373 31.0261 75.2873 31.0261 74.858C31.0261 74.4193 30.8721 74.0693 30.5641 73.808C30.2654 73.5373 29.8874 73.402 29.4301 73.402H27.3581V76.314H29.4301ZM9.296 107.684C8.316 108.664 7.12133 109.154 5.712 109.154C4.30267 109.154 3.108 108.664 2.128 107.684C1.148 106.695 0.658 105.5 0.658 104.1C0.658 102.7 1.148 101.51 2.128 100.53C3.108 99.5407 4.30267 99.046 5.712 99.046C7.12133 99.046 8.316 99.5407 9.296 100.53C10.276 101.51 10.766 102.7 10.766 104.1C10.766 105.5 10.276 106.695 9.296 107.684ZM2.646 107.18C3.486 108.02 4.508 108.44 5.712 108.44C6.916 108.44 7.93333 108.02 8.764 107.18C9.604 106.331 10.024 105.304 10.024 104.1C10.024 102.896 9.604 101.874 8.764 101.034C7.93333 100.185 6.916 99.76 5.712 99.76C4.508 99.76 3.486 100.185 2.646 101.034C1.81533 101.874 1.4 102.896 1.4 104.1C1.4 105.304 1.81533 106.331 2.646 107.18ZM17.4077 102V102.686H14.8597V109H14.1597V102.686H11.6117V102H17.4077ZM21.7603 105.388C22.1803 105.528 22.5069 105.752 22.7403 106.06C22.9736 106.368 23.0903 106.723 23.0903 107.124C23.0903 107.693 22.8663 108.174 22.4183 108.566C21.9703 108.958 21.3356 109.154 20.5143 109.154C19.1143 109.154 18.2043 108.603 17.7843 107.502L18.3863 107.152C18.6849 108.039 19.3943 108.482 20.5143 108.482C21.0929 108.482 21.5456 108.356 21.8723 108.104C22.2083 107.843 22.3763 107.502 22.3763 107.082C22.3763 106.699 22.2363 106.391 21.9563 106.158C21.6763 105.915 21.3029 105.794 20.8363 105.794H19.8703V105.108H20.5703C21.0276 105.108 21.3869 104.991 21.6483 104.758C21.9096 104.525 22.0403 104.212 22.0403 103.82C22.0403 103.447 21.8863 103.139 21.5783 102.896C21.2796 102.644 20.8829 102.518 20.3883 102.518C19.4363 102.518 18.8063 102.896 18.4983 103.652L17.9103 103.316C18.1063 102.868 18.4143 102.513 18.8343 102.252C19.2543 101.981 19.7723 101.846 20.3883 101.846C21.1069 101.846 21.6763 102.037 22.0963 102.42C22.5256 102.793 22.7403 103.251 22.7403 103.792C22.7403 104.548 22.4136 105.08 21.7603 105.388ZM27.4066 104.716C28.0506 104.716 28.5966 104.917 29.0446 105.318C29.4926 105.719 29.7166 106.233 29.7166 106.858C29.7166 107.483 29.4926 107.997 29.0446 108.398C28.5966 108.799 28.0506 109 27.4066 109H24.6346V102H25.3346V104.716H27.4066ZM30.7946 102H31.4946V109H30.7946V102ZM27.4066 108.314C27.8546 108.314 28.2326 108.179 28.5406 107.908C28.8486 107.637 29.0026 107.287 29.0026 106.858C29.0026 106.419 28.8486 106.069 28.5406 105.808C28.242 105.537 27.864 105.402 27.4066 105.402H25.3346V108.314H27.4066ZM37.9564 105.388C38.7777 105.659 39.1884 106.219 39.1884 107.068C39.1884 107.628 39.0017 108.09 38.6284 108.454C38.2644 108.818 37.7324 109 37.0324 109H33.6444V102H36.7664C37.4291 102 37.9424 102.173 38.3064 102.518C38.6704 102.863 38.8524 103.302 38.8524 103.834C38.8524 104.581 38.5537 105.099 37.9564 105.388ZM36.7664 102.686H34.3444V105.108H36.7664C37.2144 105.108 37.5551 105.001 37.7884 104.786C38.0217 104.571 38.1384 104.268 38.1384 103.876C38.1384 103.503 38.0171 103.213 37.7744 103.008C37.5411 102.793 37.2051 102.686 36.7664 102.686ZM37.0324 108.314C37.4991 108.314 37.8584 108.202 38.1104 107.978C38.3624 107.754 38.4884 107.441 38.4884 107.04C38.4884 106.648 38.3577 106.345 38.0964 106.13C37.8444 105.906 37.4897 105.794 37.0324 105.794H34.3444V108.314H37.0324ZM43.5121 104.716C44.1561 104.716 44.7021 104.917 45.1501 105.318C45.5981 105.719 45.8221 106.233 45.8221 106.858C45.8221 107.483 45.5981 107.997 45.1501 108.398C44.7021 108.799 44.1561 109 43.5121 109H40.7401V102H41.4401V104.716H43.5121ZM46.9001 102H47.6001V109H46.9001V102ZM43.5121 108.314C43.9601 108.314 44.3381 108.179 44.6461 107.908C44.9541 107.637 45.1081 107.287 45.1081 106.858C45.1081 106.419 44.9541 106.069 44.6461 105.808C44.3474 105.537 43.9694 105.402 43.5121 105.402H41.4401V108.314H43.5121ZM7.868 141H6.874L1.96 136.17V141H1.218V131.2H1.96V135.764L6.734 131.2H7.728L2.772 135.96L7.868 141ZM11.6668 141.154C10.6401 141.154 9.76748 140.804 9.04881 140.104C8.33948 139.395 7.98481 138.527 7.98481 137.5C7.98481 136.473 8.33948 135.61 9.04881 134.91C9.76748 134.201 10.6401 133.846 11.6668 133.846C12.6841 133.846 13.5475 134.201 14.2568 134.91C14.9755 135.61 15.3348 136.473 15.3348 137.5C15.3348 138.527 14.9755 139.395 14.2568 140.104C13.5475 140.804 12.6841 141.154 11.6668 141.154ZM9.55281 139.614C10.1315 140.193 10.8361 140.482 11.6668 140.482C12.4975 140.482 13.1975 140.193 13.7668 139.614C14.3361 139.035 14.6208 138.331 14.6208 137.5C14.6208 136.669 14.3361 135.965 13.7668 135.386C13.1975 134.807 12.4975 134.518 11.6668 134.518C10.8361 134.518 10.1315 134.807 9.55281 135.386C8.98348 135.965 8.69881 136.669 8.69881 137.5C8.69881 138.331 8.98348 139.035 9.55281 139.614ZM22.0874 134H22.8014V141H22.0874V137.836H17.7194V141H17.0194V134H17.7194V137.164H22.0874V134ZM29.8628 134V134.686H27.3148V141H26.6148V134.686H24.0668V134H29.8628ZM37.0153 134H37.7293V141H37.0153V139.418C36.7167 139.959 36.306 140.384 35.7833 140.692C35.2607 141 34.668 141.154 34.0053 141.154C33.0067 141.154 32.1527 140.804 31.4433 140.104C30.734 139.395 30.3793 138.527 30.3793 137.5C30.3793 136.473 30.734 135.61 31.4433 134.91C32.1527 134.201 33.0067 133.846 34.0053 133.846C34.668 133.846 35.2607 134 35.7833 134.308C36.306 134.616 36.7167 135.041 37.0153 135.582V134ZM31.9473 139.614C32.526 140.193 33.2307 140.482 34.0613 140.482C34.892 140.482 35.592 140.193 36.1613 139.614C36.7307 139.035 37.0153 138.331 37.0153 137.5C37.0153 136.669 36.7307 135.965 36.1613 135.386C35.592 134.807 34.892 134.518 34.0613 134.518C33.2307 134.518 32.526 134.807 31.9473 135.386C31.378 135.965 31.0933 136.669 31.0933 137.5C31.0933 138.331 31.378 139.035 31.9473 139.614ZM45.2408 141H44.2888L40.5788 137.556V141H39.8788V134H40.5788V137.178L44.1208 134H45.1008L41.3348 137.36L45.2408 141ZM51.5464 134V134.686H48.9984V141H48.2984V134.686H45.7504V134H51.5464ZM55.5844 136.716C56.2284 136.716 56.7744 136.917 57.2224 137.318C57.6704 137.719 57.8944 138.233 57.8944 138.858C57.8944 139.483 57.6704 139.997 57.2224 140.398C56.7744 140.799 56.2284 141 55.5844 141H52.8124V134H53.5124V136.716H55.5844ZM58.9724 134H59.6724V141H58.9724V134ZM55.5844 140.314C56.0324 140.314 56.4104 140.179 56.7184 139.908C57.0264 139.637 57.1804 139.287 57.1804 138.858C57.1804 138.419 57.0264 138.069 56.7184 137.808C56.4197 137.537 56.0417 137.402 55.5844 137.402H53.5124V140.314H55.5844ZM6.44 167.918C6.944 168.114 7.35 168.427 7.658 168.856C7.966 169.285 8.12 169.775 8.12 170.326C8.12 171.063 7.85867 171.693 7.336 172.216C6.81333 172.739 6.18333 173 5.446 173H1.218V163.2H5.124C5.83333 163.2 6.44 163.452 6.944 163.956C7.448 164.46 7.7 165.067 7.7 165.776C7.7 166.243 7.58333 166.667 7.35 167.05C7.126 167.423 6.82267 167.713 6.44 167.918ZM5.124 163.9H1.96V167.652H5.124C5.628 167.652 6.05733 167.47 6.412 167.106C6.776 166.733 6.958 166.289 6.958 165.776C6.958 165.263 6.776 164.824 6.412 164.46C6.05733 164.087 5.628 163.9 5.124 163.9ZM5.446 172.3C5.978 172.3 6.43067 172.109 6.804 171.726C7.18667 171.334 7.378 170.867 7.378 170.326C7.378 169.785 7.18667 169.323 6.804 168.94C6.43067 168.548 5.978 168.352 5.446 168.352H1.96V172.3H5.446ZM15.9607 166H16.6747V173H15.9607V171.418C15.662 171.959 15.2513 172.384 14.7287 172.692C14.206 173 13.6133 173.154 12.9507 173.154C11.952 173.154 11.098 172.804 10.3887 172.104C9.67932 171.395 9.32466 170.527 9.32466 169.5C9.32466 168.473 9.67932 167.61 10.3887 166.91C11.098 166.201 11.952 165.846 12.9507 165.846C13.6133 165.846 14.206 166 14.7287 166.308C15.2513 166.616 15.662 167.041 15.9607 167.582V166ZM10.8927 171.614C11.4713 172.193 12.176 172.482 13.0067 172.482C13.8373 172.482 14.5373 172.193 15.1067 171.614C15.676 171.035 15.9607 170.331 15.9607 169.5C15.9607 168.669 15.676 167.965 15.1067 167.386C14.5373 166.807 13.8373 166.518 13.0067 166.518C12.176 166.518 11.4713 166.807 10.8927 167.386C10.3233 167.965 10.0387 168.669 10.0387 169.5C10.0387 170.331 10.3233 171.035 10.8927 171.614ZM24.1861 173H23.2341L19.5241 169.556V173H18.8241V166H19.5241V169.178L23.0661 166H24.0461L20.2801 169.36L24.1861 173ZM31.0544 166H31.7684V173H31.0544V171.418C30.7557 171.959 30.3451 172.384 29.8224 172.692C29.2997 173 28.7071 173.154 28.0444 173.154C27.0457 173.154 26.1917 172.804 25.4824 172.104C24.7731 171.395 24.4184 170.527 24.4184 169.5C24.4184 168.473 24.7731 167.61 25.4824 166.91C26.1917 166.201 27.0457 165.846 28.0444 165.846C28.7071 165.846 29.2997 166 29.8224 166.308C30.3451 166.616 30.7557 167.041 31.0544 167.582V166ZM25.9864 171.614C26.5651 172.193 27.2697 172.482 28.1004 172.482C28.9311 172.482 29.6311 172.193 30.2004 171.614C30.7697 171.035 31.0544 170.331 31.0544 169.5C31.0544 168.669 30.7697 167.965 30.2004 167.386C29.6311 166.807 28.9311 166.518 28.1004 166.518C27.2697 166.518 26.5651 166.807 25.9864 167.386C25.4171 167.965 25.1324 168.669 25.1324 169.5C25.1324 170.331 25.4171 171.035 25.9864 171.614ZM38.9858 166H39.6998V173H38.9858V169.836H34.6178V173H33.9178V166H34.6178V169.164H38.9858V166ZM45.0672 173.154C44.0125 173.154 43.1352 172.804 42.4352 172.104C41.7352 171.404 41.3852 170.536 41.3852 169.5C41.3852 168.464 41.7352 167.596 42.4352 166.896C43.1352 166.196 44.0125 165.846 45.0672 165.846C45.7485 165.846 46.3645 166.009 46.9152 166.336C47.4659 166.653 47.8672 167.087 48.1192 167.638L47.5452 167.974C47.3399 167.526 47.0132 167.171 46.5652 166.91C46.1265 166.649 45.6272 166.518 45.0672 166.518C44.2272 166.518 43.5225 166.807 42.9532 167.386C42.3839 167.955 42.0992 168.66 42.0992 169.5C42.0992 170.34 42.3839 171.049 42.9532 171.628C43.5225 172.197 44.2272 172.482 45.0672 172.482C45.6272 172.482 46.1265 172.351 46.5652 172.09C47.0132 171.829 47.3539 171.474 47.5872 171.026L48.1752 171.376C47.8952 171.917 47.4752 172.351 46.9152 172.678C46.3645 172.995 45.7485 173.154 45.0672 173.154ZM54.8749 166H55.4909V173H54.7769V167.218L50.3249 173H49.7089V166H50.4089V171.782L54.8749 166ZM62.8182 166H63.4342V173H62.7202V167.218L58.2682 173H57.6522V166H58.3522V171.782L62.8182 166ZM5.754 205.154C4.27933 205.154 3.06133 204.669 2.1 203.698C1.13867 202.718 0.658 201.519 0.658 200.1C0.658 198.681 1.13867 197.487 2.1 196.516C3.06133 195.536 4.27933 195.046 5.754 195.046C6.65 195.046 7.47133 195.261 8.218 195.69C8.96467 196.11 9.54333 196.679 9.954 197.398L9.296 197.776C8.96933 197.169 8.48867 196.684 7.854 196.32C7.21933 195.947 6.51933 195.76 5.754 195.76C4.48467 195.76 3.43933 196.18 2.618 197.02C1.806 197.851 1.4 198.877 1.4 200.1C1.4 201.323 1.806 202.354 2.618 203.194C3.43933 204.025 4.48467 204.44 5.754 204.44C6.51933 204.44 7.224 204.253 7.868 203.88C8.512 203.507 8.99733 203.007 9.324 202.382L9.982 202.76C9.58067 203.488 9.002 204.071 8.246 204.51C7.49 204.939 6.65933 205.154 5.754 205.154ZM14.7293 205.154C13.7026 205.154 12.83 204.804 12.1113 204.104C11.402 203.395 11.0473 202.527 11.0473 201.5C11.0473 200.473 11.402 199.61 12.1113 198.91C12.83 198.201 13.7026 197.846 14.7293 197.846C15.7466 197.846 16.61 198.201 17.3193 198.91C18.038 199.61 18.3973 200.473 18.3973 201.5C18.3973 202.527 18.038 203.395 17.3193 204.104C16.61 204.804 15.7466 205.154 14.7293 205.154ZM12.6153 203.614C13.194 204.193 13.8986 204.482 14.7293 204.482C15.56 204.482 16.26 204.193 16.8293 203.614C17.3986 203.035 17.6833 202.331 17.6833 201.5C17.6833 200.669 17.3986 199.965 16.8293 199.386C16.26 198.807 15.56 198.518 14.7293 198.518C13.8986 198.518 13.194 198.807 12.6153 199.386C12.046 199.965 11.7613 200.669 11.7613 201.5C11.7613 202.331 12.046 203.035 12.6153 203.614ZM24.4639 198V198.686H20.7819V205H20.0819V198H24.4639ZM30.9749 198V205H30.2749V198.686H26.7469V202.06C26.7469 203.199 26.5369 203.987 26.1169 204.426C25.6969 204.865 25.1229 205.056 24.3949 205V204.342C24.9549 204.389 25.3702 204.239 25.6409 203.894C25.9116 203.549 26.0469 202.937 26.0469 202.06V198H30.9749ZM39.2849 198H39.9989V205H39.2849V203.418C38.9862 203.959 38.5755 204.384 38.0529 204.692C37.5302 205 36.9375 205.154 36.2749 205.154C35.2762 205.154 34.4222 204.804 33.7129 204.104C33.0035 203.395 32.6489 202.527 32.6489 201.5C32.6489 200.473 33.0035 199.61 33.7129 198.91C34.4222 198.201 35.2762 197.846 36.2749 197.846C36.9375 197.846 37.5302 198 38.0529 198.308C38.5755 198.616 38.9862 199.041 39.2849 199.582V198ZM34.2169 203.614C34.7955 204.193 35.5002 204.482 36.3309 204.482C37.1615 204.482 37.8615 204.193 38.4309 203.614C39.0002 203.035 39.2849 202.331 39.2849 201.5C39.2849 200.669 39.0002 199.965 38.4309 199.386C37.8615 198.807 37.1615 198.518 36.3309 198.518C35.5002 198.518 34.7955 198.807 34.2169 199.386C33.6475 199.965 33.3629 200.669 33.3629 201.5C33.3629 202.331 33.6475 203.035 34.2169 203.614ZM50.7163 198H51.4303V205H42.1483V198H42.8483V204.314H46.4323V198H47.1463V204.314H50.7163V198ZM56.7417 197.846C57.7683 197.846 58.599 198.21 59.2337 198.938C59.8777 199.666 60.1997 200.529 60.1997 201.528C60.1997 201.565 60.195 201.621 60.1857 201.696C60.1857 201.771 60.1857 201.827 60.1857 201.864H53.8437C53.9277 202.648 54.2403 203.283 54.7817 203.768C55.3323 204.244 56.009 204.482 56.8117 204.482C57.3717 204.482 57.8617 204.365 58.2817 204.132C58.7017 203.899 59.019 203.591 59.2337 203.208L59.8497 203.572C59.5603 204.057 59.1497 204.445 58.6177 204.734C58.0857 205.014 57.479 205.154 56.7977 205.154C55.7243 205.154 54.8423 204.813 54.1517 204.132C53.461 203.441 53.1157 202.564 53.1157 201.5C53.1157 200.455 53.4517 199.587 54.1237 198.896C54.805 198.196 55.6777 197.846 56.7417 197.846ZM56.7417 198.518C55.9483 198.518 55.2857 198.765 54.7537 199.26C54.2217 199.755 53.9183 200.394 53.8437 201.178H59.4717C59.397 200.347 59.0983 199.699 58.5757 199.232C58.0623 198.756 57.451 198.518 56.7417 198.518ZM66.9038 198H67.6178V205H66.9038V201.836H62.5358V205H61.8358V198H62.5358V201.164H66.9038V198ZM74.9452 198H75.5612V205H74.8472V199.218L70.3952 205H69.7792V198H70.4792V203.782L74.9452 198ZM80.8725 197.846C81.8992 197.846 82.7299 198.21 83.3645 198.938C84.0085 199.666 84.3305 200.529 84.3305 201.528C84.3305 201.565 84.3259 201.621 84.3165 201.696C84.3165 201.771 84.3165 201.827 84.3165 201.864H77.9745C78.0585 202.648 78.3712 203.283 78.9125 203.768C79.4632 204.244 80.1399 204.482 80.9425 204.482C81.5025 204.482 81.9925 204.365 82.4125 204.132C82.8325 203.899 83.1499 203.591 83.3645 203.208L83.9805 203.572C83.6912 204.057 83.2805 204.445 82.7485 204.734C82.2165 205.014 81.6099 205.154 80.9285 205.154C79.8552 205.154 78.9732 204.813 78.2825 204.132C77.5919 203.441 77.2465 202.564 77.2465 201.5C77.2465 200.455 77.5825 199.587 78.2545 198.896C78.9359 198.196 79.8085 197.846 80.8725 197.846ZM80.8725 198.518C80.0792 198.518 79.4165 198.765 78.8845 199.26C78.3525 199.755 78.0492 200.394 77.9745 201.178H83.6025C83.5279 200.347 83.2292 199.699 82.7065 199.232C82.1932 198.756 81.5819 198.518 80.8725 198.518ZM92.9051 205.154C91.8784 205.154 91.0058 204.804 90.2871 204.104C89.5778 203.395 89.2231 202.527 89.2231 201.5C89.2231 200.473 89.5778 199.61 90.2871 198.91C91.0058 198.201 91.8784 197.846 92.9051 197.846C93.9224 197.846 94.7858 198.201 95.4951 198.91C96.2138 199.61 96.5731 200.473 96.5731 201.5C96.5731 202.527 96.2138 203.395 95.4951 204.104C94.7858 204.804 93.9224 205.154 92.9051 205.154ZM90.7911 203.614C91.3698 204.193 92.0744 204.482 92.9051 204.482C93.7358 204.482 94.4358 204.193 95.0051 203.614C95.5744 203.035 95.8591 202.331 95.8591 201.5C95.8591 200.669 95.5744 199.965 95.0051 199.386C94.4358 198.807 93.7358 198.518 92.9051 198.518C92.0744 198.518 91.3698 198.807 90.7911 199.386C90.2218 199.965 89.9371 200.669 89.9371 201.5C89.9371 202.331 90.2218 203.035 90.7911 203.614ZM107.772 198V205H107.058V198.686H102.69V205H101.99V198H107.772ZM113.083 197.846C114.11 197.846 114.941 198.21 115.575 198.938C116.219 199.666 116.541 200.529 116.541 201.528C116.541 201.565 116.537 201.621 116.527 201.696C116.527 201.771 116.527 201.827 116.527 201.864H110.185C110.269 202.648 110.582 203.283 111.123 203.768C111.674 204.244 112.351 204.482 113.153 204.482C113.713 204.482 114.203 204.365 114.623 204.132C115.043 203.899 115.361 203.591 115.575 203.208L116.191 203.572C115.902 204.057 115.491 204.445 114.959 204.734C114.427 205.014 113.821 205.154 113.139 205.154C112.066 205.154 111.184 204.813 110.493 204.132C109.803 203.441 109.457 202.564 109.457 201.5C109.457 200.455 109.793 199.587 110.465 198.896C111.147 198.196 112.019 197.846 113.083 197.846ZM113.083 198.518C112.29 198.518 111.627 198.765 111.095 199.26C110.563 199.755 110.26 200.394 110.185 201.178H115.813C115.739 200.347 115.44 199.699 114.917 199.232C114.404 198.756 113.793 198.518 113.083 198.518ZM121.888 197.846C122.896 197.846 123.75 198.201 124.45 198.91C125.159 199.61 125.514 200.473 125.514 201.5C125.514 202.527 125.159 203.395 124.45 204.104C123.75 204.804 122.896 205.154 121.888 205.154C121.225 205.154 120.628 204.995 120.096 204.678C119.573 204.361 119.167 203.927 118.878 203.376V207.8H118.178V198H118.878V199.624C119.167 199.073 119.573 198.639 120.096 198.322C120.628 198.005 121.225 197.846 121.888 197.846ZM119.732 203.614C120.31 204.193 121.015 204.482 121.846 204.482C122.676 204.482 123.376 204.193 123.946 203.614C124.524 203.035 124.814 202.331 124.814 201.5C124.814 200.669 124.524 199.965 123.946 199.386C123.376 198.807 122.676 198.518 121.846 198.518C121.015 198.518 120.31 198.807 119.732 199.386C119.162 199.965 118.878 200.669 118.878 201.5C118.878 202.331 119.162 203.035 119.732 203.614ZM130.407 205.154C129.352 205.154 128.475 204.804 127.775 204.104C127.075 203.404 126.725 202.536 126.725 201.5C126.725 200.464 127.075 199.596 127.775 198.896C128.475 198.196 129.352 197.846 130.407 197.846C131.088 197.846 131.704 198.009 132.255 198.336C132.806 198.653 133.207 199.087 133.459 199.638L132.885 199.974C132.68 199.526 132.353 199.171 131.905 198.91C131.466 198.649 130.967 198.518 130.407 198.518C129.567 198.518 128.862 198.807 128.293 199.386C127.724 199.955 127.439 200.66 127.439 201.5C127.439 202.34 127.724 203.049 128.293 203.628C128.862 204.197 129.567 204.482 130.407 204.482C130.967 204.482 131.466 204.351 131.905 204.09C132.353 203.829 132.694 203.474 132.927 203.026L133.515 203.376C133.235 203.917 132.815 204.351 132.255 204.678C131.704 204.995 131.088 205.154 130.407 205.154ZM138.186 205.154C137.16 205.154 136.287 204.804 135.568 204.104C134.859 203.395 134.504 202.527 134.504 201.5C134.504 200.473 134.859 199.61 135.568 198.91C136.287 198.201 137.16 197.846 138.186 197.846C139.204 197.846 140.067 198.201 140.776 198.91C141.495 199.61 141.854 200.473 141.854 201.5C141.854 202.527 141.495 203.395 140.776 204.104C140.067 204.804 139.204 205.154 138.186 205.154ZM136.072 203.614C136.651 204.193 137.356 204.482 138.186 204.482C139.017 204.482 139.717 204.193 140.286 203.614C140.856 203.035 141.14 202.331 141.14 201.5C141.14 200.669 140.856 199.965 140.286 199.386C139.717 198.807 139.017 198.518 138.186 198.518C137.356 198.518 136.651 198.807 136.072 199.386C135.503 199.965 135.218 200.669 135.218 201.5C135.218 202.331 135.503 203.035 136.072 203.614ZM148.607 198H149.321V205H148.607V201.836H144.239V205H143.539V198H144.239V201.164H148.607V198ZM157.642 198H158.356V205H157.642V203.418C157.344 203.959 156.933 204.384 156.41 204.692C155.888 205 155.295 205.154 154.632 205.154C153.634 205.154 152.78 204.804 152.07 204.104C151.361 203.395 151.006 202.527 151.006 201.5C151.006 200.473 151.361 199.61 152.07 198.91C152.78 198.201 153.634 197.846 154.632 197.846C155.295 197.846 155.888 198 156.41 198.308C156.933 198.616 157.344 199.041 157.642 199.582V198ZM152.574 203.614C153.153 204.193 153.858 204.482 154.688 204.482C155.519 204.482 156.219 204.193 156.788 203.614C157.358 203.035 157.642 202.331 157.642 201.5C157.642 200.669 157.358 199.965 156.788 199.386C156.219 198.807 155.519 198.518 154.688 198.518C153.858 198.518 153.153 198.807 152.574 199.386C152.005 199.965 151.72 200.669 151.72 201.5C151.72 202.331 152.005 203.035 152.574 203.614ZM166.19 198V205H165.49V198.686H161.962V202.06C161.962 203.199 161.752 203.987 161.332 204.426C160.912 204.865 160.338 205.056 159.61 205V204.342C160.17 204.389 160.585 204.239 160.856 203.894C161.126 203.549 161.262 202.937 161.262 202.06V198H166.19ZM171.112 200.716C171.756 200.716 172.302 200.917 172.75 201.318C173.198 201.719 173.422 202.233 173.422 202.858C173.422 203.483 173.198 203.997 172.75 204.398C172.302 204.799 171.756 205 171.112 205H168.34V198H169.04V200.716H171.112ZM171.112 204.314C171.56 204.314 171.938 204.179 172.246 203.908C172.554 203.637 172.708 203.287 172.708 202.858C172.708 202.419 172.554 202.069 172.246 201.808C171.947 201.537 171.569 201.402 171.112 201.402H169.04V204.314H171.112ZM180.025 198H180.739V205H180.025V201.836H175.657V205H174.957V198H175.657V201.164H180.025V198ZM185.672 200.716C186.316 200.716 186.862 200.917 187.31 201.318C187.758 201.719 187.982 202.233 187.982 202.858C187.982 203.483 187.758 203.997 187.31 204.398C186.862 204.799 186.316 205 185.672 205H182.9V198H183.6V200.716H185.672ZM189.06 198H189.76V205H189.06V198ZM185.672 204.314C186.12 204.314 186.498 204.179 186.806 203.908C187.114 203.637 187.268 203.287 187.268 202.858C187.268 202.419 187.114 202.069 186.806 201.808C186.508 201.537 186.13 201.402 185.672 201.402H183.6V204.314H185.672ZM197.594 205H196.74L194.374 201.948L192.008 205H191.154L193.954 201.402L191.322 198H192.176L194.374 200.842L196.586 198H197.426L194.808 201.388L197.594 205ZM208.478 204.314H209.458V206.876H208.744V205H202.696V206.876H201.982V204.314H202.794C203.307 203.614 203.564 202.676 203.564 201.5V198H208.478V204.314ZM203.662 204.314H207.764V198.686H204.264V201.5C204.264 202.648 204.063 203.586 203.662 204.314ZM216.883 198H217.597V205H216.883V203.418C216.584 203.959 216.173 204.384 215.651 204.692C215.128 205 214.535 205.154 213.873 205.154C212.874 205.154 212.02 204.804 211.311 204.104C210.601 203.395 210.247 202.527 210.247 201.5C210.247 200.473 210.601 199.61 211.311 198.91C212.02 198.201 212.874 197.846 213.873 197.846C214.535 197.846 215.128 198 215.651 198.308C216.173 198.616 216.584 199.041 216.883 199.582V198ZM211.815 203.614C212.393 204.193 213.098 204.482 213.929 204.482C214.759 204.482 215.459 204.193 216.029 203.614C216.598 203.035 216.883 202.331 216.883 201.5C216.883 200.669 216.598 199.965 216.029 199.386C215.459 198.807 214.759 198.518 213.929 198.518C213.098 198.518 212.393 198.807 211.815 199.386C211.245 199.965 210.961 200.669 210.961 201.5C210.961 202.331 211.245 203.035 211.815 203.614ZM224.814 198H225.528V205H224.814V201.836H220.446V205H219.746V198H220.446V201.164H224.814V198ZM232.757 198H233.471V205H232.757V201.836H228.389V205H227.689V198H228.389V201.164H232.757V198ZM238.405 200.716C239.049 200.716 239.595 200.917 240.043 201.318C240.491 201.719 240.715 202.233 240.715 202.858C240.715 203.483 240.491 203.997 240.043 204.398C239.595 204.799 239.049 205 238.405 205H235.633V198H236.333V200.716H238.405ZM241.793 198H242.493V205H241.793V198ZM238.405 204.314C238.853 204.314 239.231 204.179 239.539 203.908C239.847 203.637 240.001 203.287 240.001 202.858C240.001 202.419 239.847 202.069 239.539 201.808C239.24 201.537 238.862 201.402 238.405 201.402H236.333V204.314H238.405ZM250.326 205H249.472L247.106 201.948L244.74 205H243.886L246.686 201.402L244.054 198H244.908L247.106 200.842L249.318 198H250.158L247.54 201.388L250.326 205ZM6.972 227.2H7.742L4.48 234.858C3.82667 236.389 2.83267 237.103 1.498 237V236.314C2.506 236.426 3.25267 235.913 3.738 234.774L3.906 234.382L0.462 227.2H1.232L4.256 233.542L6.972 227.2ZM11.2293 237.154C10.1746 237.154 9.29731 236.804 8.59731 236.104C7.89731 235.404 7.54731 234.536 7.54731 233.5C7.54731 232.464 7.89731 231.596 8.59731 230.896C9.29731 230.196 10.1746 229.846 11.2293 229.846C11.9106 229.846 12.5266 230.009 13.0773 230.336C13.628 230.653 14.0293 231.087 14.2813 231.638L13.7073 231.974C13.502 231.526 13.1753 231.171 12.7273 230.91C12.2886 230.649 11.7893 230.518 11.2293 230.518C10.3893 230.518 9.68465 230.807 9.11531 231.386C8.54598 231.955 8.26131 232.66 8.26131 233.5C8.26131 234.34 8.54598 235.049 9.11531 235.628C9.68465 236.197 10.3893 236.482 11.2293 236.482C11.7893 236.482 12.2886 236.351 12.7273 236.09C13.1753 235.829 13.516 235.474 13.7493 235.026L14.3373 235.376C14.0573 235.917 13.6373 236.351 13.0773 236.678C12.5266 236.995 11.9106 237.154 11.2293 237.154ZM21.4183 230V237H20.7183V230.686H17.1903V234.06C17.1903 235.199 16.9803 235.987 16.5603 236.426C16.1403 236.865 15.5663 237.056 14.8383 237V236.342C15.3983 236.389 15.8136 236.239 16.0843 235.894C16.3549 235.549 16.4903 234.937 16.4903 234.06V230H21.4183ZM26.7742 237.154C25.7476 237.154 24.8749 236.804 24.1562 236.104C23.4469 235.395 23.0922 234.527 23.0922 233.5C23.0922 232.473 23.4469 231.61 24.1562 230.91C24.8749 230.201 25.7476 229.846 26.7742 229.846C27.7916 229.846 28.6549 230.201 29.3642 230.91C30.0829 231.61 30.4422 232.473 30.4422 233.5C30.4422 234.527 30.0829 235.395 29.3642 236.104C28.6549 236.804 27.7916 237.154 26.7742 237.154ZM24.6602 235.614C25.2389 236.193 25.9436 236.482 26.7742 236.482C27.6049 236.482 28.3049 236.193 28.8742 235.614C29.4436 235.035 29.7282 234.331 29.7282 233.5C29.7282 232.669 29.4436 231.965 28.8742 231.386C28.3049 230.807 27.6049 230.518 26.7742 230.518C25.9436 230.518 25.2389 230.807 24.6602 231.386C24.0909 231.965 23.8062 232.669 23.8062 233.5C23.8062 234.331 24.0909 235.035 24.6602 235.614ZM36.4388 233.388C37.2602 233.659 37.6708 234.219 37.6708 235.068C37.6708 235.628 37.4842 236.09 37.1108 236.454C36.7468 236.818 36.2148 237 35.5148 237H32.1268V230H35.2488C35.9115 230 36.4248 230.173 36.7888 230.518C37.1528 230.863 37.3348 231.302 37.3348 231.834C37.3348 232.581 37.0362 233.099 36.4388 233.388ZM35.2488 230.686H32.8268V233.108H35.2488C35.6968 233.108 36.0375 233.001 36.2708 232.786C36.5042 232.571 36.6208 232.268 36.6208 231.876C36.6208 231.503 36.4995 231.213 36.2568 231.008C36.0235 230.793 35.6875 230.686 35.2488 230.686ZM35.5148 236.314C35.9815 236.314 36.3408 236.202 36.5928 235.978C36.8448 235.754 36.9708 235.441 36.9708 235.04C36.9708 234.648 36.8402 234.345 36.5788 234.13C36.3268 233.906 35.9722 233.794 35.5148 233.794H32.8268V236.314H35.5148ZM44.3885 230H45.0045V237H44.2905V231.218L39.8385 237H39.2225V230H39.9225V235.782L44.3885 230ZM52.0099 230V237H51.3099V234.27H49.7979L47.5999 237H46.6899L48.9299 234.256C48.3606 234.191 47.8846 233.967 47.5019 233.584C47.1192 233.192 46.9279 232.711 46.9279 232.142C46.9279 231.517 47.1519 231.003 47.5999 230.602C48.0479 230.201 48.5939 230 49.2379 230H52.0099ZM49.2379 233.598H51.3099V230.686H49.2379C48.7899 230.686 48.4119 230.821 48.1039 231.092C47.7959 231.363 47.6419 231.713 47.6419 232.142C47.6419 232.581 47.7912 232.935 48.0899 233.206C48.3979 233.467 48.7806 233.598 49.2379 233.598ZM63.0643 230H63.6803V237H62.9663V231.218L58.5143 237H57.8983V230H58.5983V235.782L63.0643 230ZM69.0477 237.154C67.993 237.154 67.1157 236.804 66.4157 236.104C65.7157 235.404 65.3657 234.536 65.3657 233.5C65.3657 232.464 65.7157 231.596 66.4157 230.896C67.1157 230.196 67.993 229.846 69.0477 229.846C69.729 229.846 70.345 230.009 70.8957 230.336C71.4463 230.653 71.8477 231.087 72.0997 231.638L71.5257 231.974C71.3203 231.526 70.9937 231.171 70.5457 230.91C70.107 230.649 69.6077 230.518 69.0477 230.518C68.2077 230.518 67.503 230.807 66.9337 231.386C66.3643 231.955 66.0797 232.66 66.0797 233.5C66.0797 234.34 66.3643 235.049 66.9337 235.628C67.503 236.197 68.2077 236.482 69.0477 236.482C69.6077 236.482 70.107 236.351 70.5457 236.09C70.9937 235.829 71.3343 235.474 71.5677 235.026L72.1557 235.376C71.8757 235.917 71.4557 236.351 70.8957 236.678C70.345 236.995 69.729 237.154 69.0477 237.154ZM79.4713 230V237H78.7573V230.686H74.3893V237H73.6893V230H79.4713ZM84.8387 237.154C83.812 237.154 82.9394 236.804 82.2207 236.104C81.5114 235.395 81.1567 234.527 81.1567 233.5C81.1567 232.473 81.5114 231.61 82.2207 230.91C82.9394 230.201 83.812 229.846 84.8387 229.846C85.856 229.846 86.7194 230.201 87.4287 230.91C88.1474 231.61 88.5067 232.473 88.5067 233.5C88.5067 234.527 88.1474 235.395 87.4287 236.104C86.7194 236.804 85.856 237.154 84.8387 237.154ZM82.7247 235.614C83.3034 236.193 84.008 236.482 84.8387 236.482C85.6694 236.482 86.3694 236.193 86.9387 235.614C87.508 235.035 87.7927 234.331 87.7927 233.5C87.7927 232.669 87.508 231.965 86.9387 231.386C86.3694 230.807 85.6694 230.518 84.8387 230.518C84.008 230.518 83.3034 230.807 82.7247 231.386C82.1554 231.965 81.8707 232.669 81.8707 233.5C81.8707 234.331 82.1554 235.035 82.7247 235.614ZM95.6018 230V237H94.9018V230.686H91.3738V234.06C91.3738 235.199 91.1638 235.987 90.7438 236.426C90.3238 236.865 89.7498 237.056 89.0218 237V236.342C89.5818 236.389 89.9972 236.239 90.2678 235.894C90.5385 235.549 90.6738 234.937 90.6738 234.06V230H95.6018ZM100.524 232.716C101.168 232.716 101.714 232.917 102.162 233.318C102.61 233.719 102.834 234.233 102.834 234.858C102.834 235.483 102.61 235.997 102.162 236.398C101.714 236.799 101.168 237 100.524 237H97.7518V230H98.4518V232.716H100.524ZM100.524 236.314C100.972 236.314 101.35 236.179 101.658 235.908C101.966 235.637 102.12 235.287 102.12 234.858C102.12 234.419 101.966 234.069 101.658 233.808C101.359 233.537 100.981 233.402 100.524 233.402H98.4518V236.314H100.524ZM107.592 233.388C108.012 233.528 108.339 233.752 108.572 234.06C108.806 234.368 108.922 234.723 108.922 235.124C108.922 235.693 108.698 236.174 108.25 236.566C107.802 236.958 107.168 237.154 106.346 237.154C104.946 237.154 104.036 236.603 103.616 235.502L104.218 235.152C104.517 236.039 105.226 236.482 106.346 236.482C106.925 236.482 107.378 236.356 107.704 236.104C108.04 235.843 108.208 235.502 108.208 235.082C108.208 234.699 108.068 234.391 107.788 234.158C107.508 233.915 107.135 233.794 106.668 233.794H105.702V233.108H106.402C106.86 233.108 107.219 232.991 107.48 232.758C107.742 232.525 107.872 232.212 107.872 231.82C107.872 231.447 107.718 231.139 107.41 230.896C107.112 230.644 106.715 230.518 106.22 230.518C105.268 230.518 104.638 230.896 104.33 231.652L103.742 231.316C103.938 230.868 104.246 230.513 104.666 230.252C105.086 229.981 105.604 229.846 106.22 229.846C106.939 229.846 107.508 230.037 107.928 230.42C108.358 230.793 108.572 231.251 108.572 231.792C108.572 232.548 108.246 233.08 107.592 233.388ZM113.673 237.154C112.646 237.154 111.773 236.804 111.055 236.104C110.345 235.395 109.991 234.527 109.991 233.5C109.991 232.473 110.345 231.61 111.055 230.91C111.773 230.201 112.646 229.846 113.673 229.846C114.69 229.846 115.553 230.201 116.263 230.91C116.981 231.61 117.341 232.473 117.341 233.5C117.341 234.527 116.981 235.395 116.263 236.104C115.553 236.804 114.69 237.154 113.673 237.154ZM111.559 235.614C112.137 236.193 112.842 236.482 113.673 236.482C114.503 236.482 115.203 236.193 115.773 235.614C116.342 235.035 116.627 234.331 116.627 233.5C116.627 232.669 116.342 231.965 115.773 231.386C115.203 230.807 114.503 230.518 113.673 230.518C112.842 230.518 112.137 230.807 111.559 231.386C110.989 231.965 110.705 232.669 110.705 233.5C110.705 234.331 110.989 235.035 111.559 235.614ZM123.337 233.388C124.159 233.659 124.569 234.219 124.569 235.068C124.569 235.628 124.383 236.09 124.009 236.454C123.645 236.818 123.113 237 122.413 237H119.025V230H122.147C122.81 230 123.323 230.173 123.687 230.518C124.051 230.863 124.233 231.302 124.233 231.834C124.233 232.581 123.935 233.099 123.337 233.388ZM122.147 230.686H119.725V233.108H122.147C122.595 233.108 122.936 233.001 123.169 232.786C123.403 232.571 123.519 232.268 123.519 231.876C123.519 231.503 123.398 231.213 123.155 231.008C122.922 230.793 122.586 230.686 122.147 230.686ZM122.413 236.314C122.88 236.314 123.239 236.202 123.491 235.978C123.743 235.754 123.869 235.441 123.869 235.04C123.869 234.648 123.739 234.345 123.477 234.13C123.225 233.906 122.871 233.794 122.413 233.794H119.725V236.314H122.413ZM132.281 230H132.995V237H132.281V235.418C131.982 235.959 131.572 236.384 131.049 236.692C130.526 237 129.934 237.154 129.271 237.154C128.272 237.154 127.418 236.804 126.709 236.104C126 235.395 125.645 234.527 125.645 233.5C125.645 232.473 126 231.61 126.709 230.91C127.418 230.201 128.272 229.846 129.271 229.846C129.934 229.846 130.526 230 131.049 230.308C131.572 230.616 131.982 231.041 132.281 231.582V230ZM127.213 235.614C127.792 236.193 128.496 236.482 129.327 236.482C130.158 236.482 130.858 236.193 131.427 235.614C131.996 235.035 132.281 234.331 132.281 233.5C132.281 232.669 131.996 231.965 131.427 231.386C130.858 230.807 130.158 230.518 129.327 230.518C128.496 230.518 127.792 230.807 127.213 231.386C126.644 231.965 126.359 232.669 126.359 233.5C126.359 234.331 126.644 235.035 127.213 235.614ZM140.212 230H140.926V237H140.212V233.836H135.844V237H135.144V230H135.844V233.164H140.212V230ZM148.254 230H148.87V237H148.156V231.218L143.704 237H143.088V230H143.788V235.782L148.254 230ZM155.875 230V237H155.175V234.27H153.663L151.465 237H150.555L152.795 234.256C152.226 234.191 151.75 233.967 151.367 233.584C150.984 233.192 150.793 232.711 150.793 232.142C150.793 231.517 151.017 231.003 151.465 230.602C151.913 230.201 152.459 230 153.103 230H155.875ZM153.103 233.598H155.175V230.686H153.103C152.655 230.686 152.277 230.821 151.969 231.092C151.661 231.363 151.507 231.713 151.507 232.142C151.507 232.581 151.656 232.935 151.955 233.206C152.263 233.467 152.646 233.598 153.103 233.598Z" fill="#1F2428"/>
</svg>
