<svg width="193" height="211" viewBox="0 0 193 211" fill="none" xmlns="http://www.w3.org/2000/svg">
<path d="M9.408 0.799999V12H7.2V2.912H3.248V12H1.04V0.799999H9.408ZM18.2131 11.008C17.3918 11.8187 16.3891 12.224 15.2051 12.224C14.0211 12.224 13.0185 11.8187 12.1971 11.008C11.3865 10.1867 10.9811 9.184 10.9811 8C10.9811 6.816 11.3865 5.81867 12.1971 5.008C13.0185 4.18667 14.0211 3.776 15.2051 3.776C16.3891 3.776 17.3918 4.18667 18.2131 5.008C19.0345 5.81867 19.4451 6.816 19.4451 8C19.4451 9.184 19.0345 10.1867 18.2131 11.008ZM13.6531 9.584C14.0691 10 14.5865 10.208 15.2051 10.208C15.8238 10.208 16.3411 10 16.7571 9.584C17.1731 9.168 17.3811 8.64 17.3811 8C17.3811 7.36 17.1731 6.832 16.7571 6.416C16.3411 6 15.8238 5.792 15.2051 5.792C14.5865 5.792 14.0691 6 13.6531 6.416C13.2478 6.832 13.0451 7.36 13.0451 8C13.0451 8.64 13.2478 9.168 13.6531 9.584ZM27.558 4V12H25.494V5.984H23.286V8.656C23.286 11.1307 22.1607 12.2453 19.91 12V10.064C20.3367 10.1707 20.662 10.1013 20.886 9.856C21.11 9.6 21.222 9.16267 21.222 8.544V4H27.558ZM31.1724 8.848C31.4497 9.85067 32.2017 10.352 33.4284 10.352C34.2177 10.352 34.815 10.0853 35.2204 9.552L36.8844 10.512C36.095 11.6533 34.9324 12.224 33.3964 12.224C32.0737 12.224 31.0124 11.824 30.2124 11.024C29.4124 10.224 29.0124 9.216 29.0124 8C29.0124 6.79467 29.407 5.792 30.1964 4.992C30.9857 4.18133 31.999 3.776 33.2364 3.776C34.4097 3.776 35.375 4.18133 36.1324 4.992C36.9004 5.80267 37.2844 6.80533 37.2844 8C37.2844 8.26667 37.2577 8.54933 37.2044 8.848H31.1724ZM31.1404 7.248H35.2204C35.103 6.704 34.8577 6.29867 34.4844 6.032C34.1217 5.76533 33.7057 5.632 33.2364 5.632C32.6817 5.632 32.223 5.776 31.8604 6.064C31.4977 6.34133 31.2577 6.736 31.1404 7.248ZM43.2414 7.92C44.052 8.31467 44.4574 8.94933 44.4574 9.824C44.4574 10.5067 44.1747 11.0773 43.6094 11.536C43.044 11.9947 42.2494 12.224 41.2254 12.224C39.604 12.224 38.5 11.584 37.9134 10.304L39.5934 9.312C39.8494 10.0373 40.3987 10.4 41.2414 10.4C41.6254 10.4 41.9187 10.3253 42.1214 10.176C42.3347 10.0267 42.4414 9.824 42.4414 9.568C42.4414 9.07733 42.1267 8.832 41.4974 8.832H40.3614V7.072H41.2254C41.844 7.072 42.1534 6.82667 42.1534 6.336C42.1534 6.10133 42.0627 5.91467 41.8814 5.776C41.7 5.63733 41.46 5.568 41.1614 5.568C40.468 5.568 39.972 5.904 39.6734 6.576L38.0094 5.616C38.6174 4.38933 39.6574 3.776 41.1294 3.776C42.0467 3.776 42.772 4.01067 43.3054 4.48C43.8494 4.93867 44.1214 5.49867 44.1214 6.16C44.1214 6.93867 43.828 7.52533 43.2414 7.92ZM51.0045 4H53.0685V12H51.0045V8.96H47.8205V12H45.7565V4H47.8205V7.024H51.0045V4ZM61.7756 11.008C60.9543 11.8187 59.9516 12.224 58.7676 12.224C57.5836 12.224 56.581 11.8187 55.7596 11.008C54.949 10.1867 54.5436 9.184 54.5436 8C54.5436 6.816 54.949 5.81867 55.7596 5.008C56.581 4.18667 57.5836 3.776 58.7676 3.776C59.9516 3.776 60.9543 4.18667 61.7756 5.008C62.597 5.81867 63.0076 6.816 63.0076 8C63.0076 9.184 62.597 10.1867 61.7756 11.008ZM57.2156 9.584C57.6316 10 58.149 10.208 58.7676 10.208C59.3863 10.208 59.9036 10 60.3196 9.584C60.7356 9.168 60.9436 8.64 60.9436 8C60.9436 7.36 60.7356 6.832 60.3196 6.416C59.9036 6 59.3863 5.792 58.7676 5.792C58.149 5.792 57.6316 6 57.2156 6.416C56.8103 6.832 56.6076 7.36 56.6076 8C56.6076 8.64 56.8103 9.168 57.2156 9.584ZM66.2036 8.848C66.481 9.85067 67.233 10.352 68.4596 10.352C69.249 10.352 69.8463 10.0853 70.2516 9.552L71.9156 10.512C71.1263 11.6533 69.9636 12.224 68.4276 12.224C67.105 12.224 66.0436 11.824 65.2436 11.024C64.4436 10.224 64.0436 9.216 64.0436 8C64.0436 6.79467 64.4383 5.792 65.2276 4.992C66.017 4.18133 67.0303 3.776 68.2676 3.776C69.441 3.776 70.4063 4.18133 71.1636 4.992C71.9316 5.80267 72.3156 6.80533 72.3156 8C72.3156 8.26667 72.289 8.54933 72.2356 8.848H66.2036ZM66.1716 7.248H70.2516C70.1343 6.704 69.889 6.29867 69.5156 6.032C69.153 5.76533 68.737 5.632 68.2676 5.632C67.713 5.632 67.2543 5.776 66.8916 6.064C66.529 6.34133 66.289 6.736 66.1716 7.248Z" fill="#1F2428"/>
<path d="M7.868 45H6.874L1.96 40.17V45H1.218V35.2H1.96V39.764L6.734 35.2H7.728L2.772 39.96L7.868 45ZM14.6208 38H15.3348V45H14.6208V43.418C14.3221 43.9593 13.9115 44.384 13.3888 44.692C12.8661 45 12.2735 45.154 11.6108 45.154C10.6121 45.154 9.75815 44.804 9.04881 44.104C8.33948 43.3947 7.98481 42.5267 7.98481 41.5C7.98481 40.4733 8.33948 39.61 9.04881 38.91C9.75815 38.2007 10.6121 37.846 11.6108 37.846C12.2735 37.846 12.8661 38 13.3888 38.308C13.9115 38.616 14.3221 39.0407 14.6208 39.582V38ZM9.55281 43.614C10.1315 44.1927 10.8361 44.482 11.6668 44.482C12.4975 44.482 13.1975 44.1927 13.7668 43.614C14.3361 43.0353 14.6208 42.3307 14.6208 41.5C14.6208 40.6693 14.3361 39.9647 13.7668 39.386C13.1975 38.8073 12.4975 38.518 11.6668 38.518C10.8361 38.518 10.1315 38.8073 9.55281 39.386C8.98348 39.9647 8.69881 40.6693 8.69881 41.5C8.69881 42.3307 8.98348 43.0353 9.55281 43.614ZM22.8463 45H21.8943L18.1843 41.556V45H17.4843V38H18.1843V41.178L21.7263 38H22.7063L18.9403 41.36L22.8463 45ZM31.6943 37.846C32.7023 37.846 33.5563 38.2007 34.2563 38.91C34.9656 39.61 35.3203 40.4733 35.3203 41.5C35.3203 42.5267 34.9656 43.3947 34.2563 44.104C33.5563 44.804 32.7023 45.154 31.6943 45.154C31.0316 45.154 30.4343 44.9953 29.9023 44.678C29.3796 44.3607 28.9736 43.9267 28.6843 43.376V47.8H27.9843V38H28.6843V39.624C28.9736 39.0733 29.3796 38.6393 29.9023 38.322C30.4343 38.0047 31.0316 37.846 31.6943 37.846ZM29.5383 43.614C30.1169 44.1927 30.8216 44.482 31.6523 44.482C32.4829 44.482 33.1829 44.1927 33.7523 43.614C34.3309 43.0353 34.6202 42.3307 34.6202 41.5C34.6202 40.6693 34.3309 39.9647 33.7523 39.386C33.1829 38.8073 32.4829 38.518 31.6523 38.518C30.8216 38.518 30.1169 38.8073 29.5383 39.386C28.9689 39.9647 28.6843 40.6693 28.6843 41.5C28.6843 42.3307 28.9689 43.0353 29.5383 43.614ZM43.1677 38H43.8817V45H43.1677V43.418C42.869 43.9593 42.4584 44.384 41.9357 44.692C41.413 45 40.8204 45.154 40.1577 45.154C39.159 45.154 38.305 44.804 37.5957 44.104C36.8864 43.3947 36.5317 42.5267 36.5317 41.5C36.5317 40.4733 36.8864 39.61 37.5957 38.91C38.305 38.2007 39.159 37.846 40.1577 37.846C40.8204 37.846 41.413 38 41.9357 38.308C42.4584 38.616 42.869 39.0407 43.1677 39.582V38ZM38.0997 43.614C38.6784 44.1927 39.383 44.482 40.2137 44.482C41.0444 44.482 41.7444 44.1927 42.3137 43.614C42.883 43.0353 43.1677 42.3307 43.1677 41.5C43.1677 40.6693 42.883 39.9647 42.3137 39.386C41.7444 38.8073 41.0444 38.518 40.2137 38.518C39.383 38.518 38.6784 38.8073 38.0997 39.386C37.5304 39.9647 37.2457 40.6693 37.2457 41.5C37.2457 42.3307 37.5304 43.0353 38.0997 43.614ZM49.0831 45.168C48.0751 45.168 47.2351 44.8367 46.5631 44.174C45.8911 43.502 45.5551 42.634 45.5551 41.57C45.5551 40.4033 45.7231 39.5027 46.0591 38.868C46.4045 38.224 47.1091 37.6407 48.1731 37.118C48.3785 37.0247 48.6211 36.9173 48.9011 36.796C49.1811 36.6747 49.4051 36.5813 49.5731 36.516C49.7505 36.4413 49.9371 36.3527 50.1331 36.25C50.3385 36.138 50.5018 36.0307 50.6231 35.928C50.7445 35.8253 50.8518 35.6993 50.9451 35.55C51.0385 35.3913 51.0991 35.214 51.1271 35.018L51.6871 35.34C51.6405 35.6013 51.5518 35.83 51.4211 36.026C51.2998 36.222 51.1131 36.404 50.8611 36.572C50.6185 36.7307 50.4038 36.8567 50.2171 36.95C50.0398 37.0433 49.7598 37.1693 49.3771 37.328C48.9945 37.4867 48.7191 37.6033 48.5511 37.678C47.8605 37.986 47.3518 38.322 47.0251 38.686C46.7078 39.05 46.4931 39.54 46.3811 40.156C46.7078 39.6427 47.1325 39.26 47.6551 39.008C48.1778 38.756 48.7051 38.63 49.2371 38.63C50.1705 38.63 50.9451 38.938 51.5611 39.554C52.1771 40.17 52.4851 40.954 52.4851 41.906C52.4851 42.8487 52.1631 43.628 51.5191 44.244C50.8845 44.86 50.0725 45.168 49.0831 45.168ZM49.0831 44.468C49.8671 44.468 50.5111 44.23 51.0151 43.754C51.5191 43.2687 51.7711 42.6527 51.7711 41.906C51.7711 41.15 51.5285 40.5293 51.0431 40.044C50.5578 39.5587 49.9278 39.316 49.1531 39.316C48.4438 39.316 47.8045 39.54 47.2351 39.988C46.6751 40.436 46.3671 41.0147 46.3111 41.724C46.3111 42.5267 46.5725 43.1847 47.0951 43.698C47.6178 44.2113 48.2805 44.468 49.0831 44.468ZM57.2352 45.154C56.2085 45.154 55.3358 44.804 54.6172 44.104C53.9078 43.3947 53.5532 42.5267 53.5532 41.5C53.5532 40.4733 53.9078 39.61 54.6172 38.91C55.3358 38.2007 56.2085 37.846 57.2352 37.846C58.2525 37.846 59.1158 38.2007 59.8252 38.91C60.5438 39.61 60.9032 40.4733 60.9032 41.5C60.9032 42.5267 60.5438 43.3947 59.8252 44.104C59.1158 44.804 58.2525 45.154 57.2352 45.154ZM55.1212 43.614C55.6998 44.1927 56.4045 44.482 57.2352 44.482C58.0658 44.482 58.7658 44.1927 59.3352 43.614C59.9045 43.0353 60.1892 42.3307 60.1892 41.5C60.1892 40.6693 59.9045 39.9647 59.3352 39.386C58.7658 38.8073 58.0658 38.518 57.2352 38.518C56.4045 38.518 55.6998 38.8073 55.1212 39.386C54.5518 39.9647 54.2672 40.6693 54.2672 41.5C54.2672 42.3307 54.5518 43.0353 55.1212 43.614ZM67.2143 38V38.686H64.6663V45H63.9663V38.686H61.4183V38H67.2143ZM74.3669 38H75.0809V45H74.3669V43.418C74.0682 43.9593 73.6576 44.384 73.1349 44.692C72.6122 45 72.0196 45.154 71.3569 45.154C70.3582 45.154 69.5042 44.804 68.7949 44.104C68.0856 43.3947 67.7309 42.5267 67.7309 41.5C67.7309 40.4733 68.0856 39.61 68.7949 38.91C69.5042 38.2007 70.3582 37.846 71.3569 37.846C72.0196 37.846 72.6122 38 73.1349 38.308C73.6576 38.616 74.0682 39.0407 74.3669 39.582V38ZM69.2989 43.614C69.8776 44.1927 70.5822 44.482 71.4129 44.482C72.2436 44.482 72.9436 44.1927 73.5129 43.614C74.0822 43.0353 74.3669 42.3307 74.3669 41.5C74.3669 40.6693 74.0822 39.9647 73.5129 39.386C72.9436 38.8073 72.2436 38.518 71.4129 38.518C70.5822 38.518 69.8776 38.8073 69.2989 39.386C68.7296 39.9647 68.4449 40.6693 68.4449 41.5C68.4449 42.3307 68.7296 43.0353 69.2989 43.614ZM80.3803 37.846C81.407 37.846 82.2377 38.21 82.8723 38.938C83.5163 39.666 83.8383 40.5293 83.8383 41.528C83.8383 41.5653 83.8337 41.6213 83.8243 41.696C83.8243 41.7707 83.8243 41.8267 83.8243 41.864H77.4823C77.5663 42.648 77.879 43.2827 78.4203 43.768C78.971 44.244 79.6477 44.482 80.4503 44.482C81.0103 44.482 81.5003 44.3653 81.9203 44.132C82.3403 43.8987 82.6577 43.5907 82.8723 43.208L83.4883 43.572C83.199 44.0573 82.7883 44.4447 82.2563 44.734C81.7243 45.014 81.1177 45.154 80.4363 45.154C79.363 45.154 78.481 44.8133 77.7903 44.132C77.0997 43.4413 76.7543 42.564 76.7543 41.5C76.7543 40.4547 77.0903 39.5867 77.7623 38.896C78.4437 38.196 79.3163 37.846 80.3803 37.846ZM80.3803 38.518C79.587 38.518 78.9243 38.7653 78.3923 39.26C77.8603 39.7547 77.557 40.394 77.4823 41.178H83.1103C83.0357 40.3473 82.737 39.6987 82.2143 39.232C81.701 38.756 81.0897 38.518 80.3803 38.518ZM90.101 38V38.686H87.553V45H86.853V38.686H84.305V38H90.101ZM100.167 38H100.881V45H100.167V41.836H95.7995V45H95.0995V38H95.7995V41.164H100.167V38ZM109.203 38H109.917V45H109.203V43.418C108.904 43.9593 108.494 44.384 107.971 44.692C107.448 45 106.856 45.154 106.193 45.154C105.194 45.154 104.34 44.804 103.631 44.104C102.922 43.3947 102.567 42.5267 102.567 41.5C102.567 40.4733 102.922 39.61 103.631 38.91C104.34 38.2007 105.194 37.846 106.193 37.846C106.856 37.846 107.448 38 107.971 38.308C108.494 38.616 108.904 39.0407 109.203 39.582V38ZM104.135 43.614C104.714 44.1927 105.418 44.482 106.249 44.482C107.08 44.482 107.78 44.1927 108.349 43.614C108.918 43.0353 109.203 42.3307 109.203 41.5C109.203 40.6693 108.918 39.9647 108.349 39.386C107.78 38.8073 107.08 38.518 106.249 38.518C105.418 38.518 104.714 38.8073 104.135 39.386C103.566 39.9647 103.281 40.6693 103.281 41.5C103.281 42.3307 103.566 43.0353 104.135 43.614ZM120.634 38H121.348V45H112.066V38H112.766V44.314H116.35V38H117.064V44.314H120.634V38ZM130.448 45.154C129.393 45.154 128.516 44.804 127.816 44.104C127.116 43.404 126.766 42.536 126.766 41.5C126.766 40.464 127.116 39.596 127.816 38.896C128.516 38.196 129.393 37.846 130.448 37.846C131.129 37.846 131.745 38.0093 132.296 38.336C132.847 38.6533 133.248 39.0873 133.5 39.638L132.926 39.974C132.721 39.526 132.394 39.1713 131.946 38.91C131.507 38.6487 131.008 38.518 130.448 38.518C129.608 38.518 128.903 38.8073 128.334 39.386C127.765 39.9553 127.48 40.66 127.48 41.5C127.48 42.34 127.765 43.0493 128.334 43.628C128.903 44.1973 129.608 44.482 130.448 44.482C131.008 44.482 131.507 44.3513 131.946 44.09C132.394 43.8287 132.735 43.474 132.968 43.026L133.556 43.376C133.276 43.9173 132.856 44.3513 132.296 44.678C131.745 44.9953 131.129 45.154 130.448 45.154ZM138.171 37.846C139.198 37.846 140.029 38.21 140.663 38.938C141.307 39.666 141.629 40.5293 141.629 41.528C141.629 41.5653 141.625 41.6213 141.615 41.696C141.615 41.7707 141.615 41.8267 141.615 41.864H135.273C135.357 42.648 135.67 43.2827 136.211 43.768C136.762 44.244 137.439 44.482 138.241 44.482C138.801 44.482 139.291 44.3653 139.711 44.132C140.131 43.8987 140.449 43.5907 140.663 43.208L141.279 43.572C140.99 44.0573 140.579 44.4447 140.047 44.734C139.515 45.014 138.909 45.154 138.227 45.154C137.154 45.154 136.272 44.8133 135.581 44.132C134.891 43.4413 134.545 42.564 134.545 41.5C134.545 40.4547 134.881 39.5867 135.553 38.896C136.235 38.196 137.107 37.846 138.171 37.846ZM138.171 38.518C137.378 38.518 136.715 38.7653 136.183 39.26C135.651 39.7547 135.348 40.394 135.273 41.178H140.901C140.827 40.3473 140.528 39.6987 140.005 39.232C139.492 38.756 138.881 38.518 138.171 38.518ZM146.976 37.846C147.984 37.846 148.838 38.2007 149.538 38.91C150.247 39.61 150.602 40.4733 150.602 41.5C150.602 42.5267 150.247 43.3947 149.538 44.104C148.838 44.804 147.984 45.154 146.976 45.154C146.313 45.154 145.716 44.9953 145.184 44.678C144.661 44.3607 144.255 43.9267 143.966 43.376V47.8H143.266V38H143.966V39.624C144.255 39.0733 144.661 38.6393 145.184 38.322C145.716 38.0047 146.313 37.846 146.976 37.846ZM144.82 43.614C145.398 44.1927 146.103 44.482 146.934 44.482C147.764 44.482 148.464 44.1927 149.034 43.614C149.612 43.0353 149.901 42.3307 149.901 41.5C149.901 40.6693 149.612 39.9647 149.034 39.386C148.464 38.8073 147.764 38.518 146.934 38.518C146.103 38.518 145.398 38.8073 144.82 39.386C144.25 39.9647 143.966 40.6693 143.966 41.5C143.966 42.3307 144.25 43.0353 144.82 43.614ZM156.601 41.388C157.422 41.6587 157.833 42.2187 157.833 43.068C157.833 43.628 157.646 44.09 157.273 44.454C156.909 44.818 156.377 45 155.677 45H152.289V38H155.411C156.074 38 156.587 38.1727 156.951 38.518C157.315 38.8633 157.497 39.302 157.497 39.834C157.497 40.5807 157.198 41.0987 156.601 41.388ZM155.411 38.686H152.989V41.108H155.411C155.859 41.108 156.2 41.0007 156.433 40.786C156.666 40.5713 156.783 40.268 156.783 39.876C156.783 39.5027 156.662 39.2133 156.419 39.008C156.186 38.7933 155.85 38.686 155.411 38.686ZM155.677 44.314C156.144 44.314 156.503 44.202 156.755 43.978C157.007 43.754 157.133 43.4413 157.133 43.04C157.133 42.648 157.002 42.3447 156.741 42.13C156.489 41.906 156.134 41.794 155.677 41.794H152.989V44.314H155.677ZM164.551 38H165.167V45H164.453V39.218L160.001 45H159.385V38H160.085V43.782L164.551 38ZM170.534 45.154C169.479 45.154 168.602 44.804 167.902 44.104C167.202 43.404 166.852 42.536 166.852 41.5C166.852 40.464 167.202 39.596 167.902 38.896C168.602 38.196 169.479 37.846 170.534 37.846C171.215 37.846 171.831 38.0093 172.382 38.336C172.933 38.6533 173.334 39.0873 173.586 39.638L173.012 39.974C172.807 39.526 172.48 39.1713 172.032 38.91C171.593 38.6487 171.094 38.518 170.534 38.518C169.694 38.518 168.989 38.8073 168.42 39.386C167.851 39.9553 167.566 40.66 167.566 41.5C167.566 42.34 167.851 43.0493 168.42 43.628C168.989 44.1973 169.694 44.482 170.534 44.482C171.094 44.482 171.593 44.3513 172.032 44.09C172.48 43.8287 172.821 43.474 173.054 43.026L173.642 43.376C173.362 43.9173 172.942 44.3513 172.382 44.678C171.831 44.9953 171.215 45.154 170.534 45.154ZM7.868 77H6.874L1.96 72.17V77H1.218V67.2H1.96V71.764L6.734 67.2H7.728L2.772 71.96L7.868 77ZM14.6208 70H15.3348V77H14.6208V75.418C14.3221 75.9593 13.9115 76.384 13.3888 76.692C12.8661 77 12.2735 77.154 11.6108 77.154C10.6121 77.154 9.75815 76.804 9.04881 76.104C8.33948 75.3947 7.98481 74.5267 7.98481 73.5C7.98481 72.4733 8.33948 71.61 9.04881 70.91C9.75815 70.2007 10.6121 69.846 11.6108 69.846C12.2735 69.846 12.8661 70 13.3888 70.308C13.9115 70.616 14.3221 71.0407 14.6208 71.582V70ZM9.55281 75.614C10.1315 76.1927 10.8361 76.482 11.6668 76.482C12.4975 76.482 13.1975 76.1927 13.7668 75.614C14.3361 75.0353 14.6208 74.3307 14.6208 73.5C14.6208 72.6693 14.3361 71.9647 13.7668 71.386C13.1975 70.8073 12.4975 70.518 11.6668 70.518C10.8361 70.518 10.1315 70.8073 9.55281 71.386C8.98348 71.9647 8.69881 72.6693 8.69881 73.5C8.69881 74.3307 8.98348 75.0353 9.55281 75.614ZM22.8463 77H21.8943L18.1843 73.556V77H17.4843V70H18.1843V73.178L21.7263 70H22.7063L18.9403 73.36L22.8463 77ZM33.7663 70V77H33.0523V70.686H28.6843V77H27.9843V70H33.7663ZM39.1336 77.154C38.1069 77.154 37.2343 76.804 36.5156 76.104C35.8063 75.3947 35.4516 74.5267 35.4516 73.5C35.4516 72.4733 35.8063 71.61 36.5156 70.91C37.2343 70.2007 38.1069 69.846 39.1336 69.846C40.1509 69.846 41.0143 70.2007 41.7236 70.91C42.4423 71.61 42.8016 72.4733 42.8016 73.5C42.8016 74.5267 42.4423 75.3947 41.7236 76.104C41.0143 76.804 40.1509 77.154 39.1336 77.154ZM37.0196 75.614C37.5983 76.1927 38.3029 76.482 39.1336 76.482C39.9643 76.482 40.6643 76.1927 41.2336 75.614C41.8029 75.0353 42.0876 74.3307 42.0876 73.5C42.0876 72.6693 41.8029 71.9647 41.2336 71.386C40.6643 70.8073 39.9643 70.518 39.1336 70.518C38.3029 70.518 37.5983 70.8073 37.0196 71.386C36.4503 71.9647 36.1656 72.6693 36.1656 73.5C36.1656 74.3307 36.4503 75.0353 37.0196 75.614ZM49.8482 77H48.8962L45.1862 73.556V77H44.4862V70H45.1862V73.178L48.7282 70H49.7082L45.9422 73.36L49.8482 77ZM56.1043 70H56.8603L53.8363 77.644C53.5657 78.3347 53.183 78.876 52.6883 79.268C52.1937 79.6693 51.6523 79.8467 51.0643 79.8V79.142C51.5123 79.1793 51.9137 79.0487 52.2683 78.75C52.6323 78.4607 52.9263 78.0453 53.1503 77.504L53.3043 77.126L50.0843 70H50.8403L53.6683 76.23L56.1043 70ZM63.8991 70V77H63.1851V70.686H58.8171V77H58.1171V70H63.8991ZM72.2204 70H72.9344V77H72.2204V75.418C71.9218 75.9593 71.5111 76.384 70.9884 76.692C70.4658 77 69.8731 77.154 69.2104 77.154C68.2118 77.154 67.3578 76.804 66.6484 76.104C65.9391 75.3947 65.5844 74.5267 65.5844 73.5C65.5844 72.4733 65.9391 71.61 66.6484 70.91C67.3578 70.2007 68.2118 69.846 69.2104 69.846C69.8731 69.846 70.4658 70 70.9884 70.308C71.5111 70.616 71.9218 71.0407 72.2204 71.582V70ZM67.1524 75.614C67.7311 76.1927 68.4358 76.482 69.2664 76.482C70.0971 76.482 70.7971 76.1927 71.3664 75.614C71.9358 75.0353 72.2204 74.3307 72.2204 73.5C72.2204 72.6693 71.9358 71.9647 71.3664 71.386C70.7971 70.8073 70.0971 70.518 69.2664 70.518C68.4358 70.518 67.7311 70.8073 67.1524 71.386C66.5831 71.9647 66.2984 72.6693 66.2984 73.5C66.2984 74.3307 66.5831 75.0353 67.1524 75.614ZM79.9839 70V70.686H77.4359V77H76.7359V70.686H74.1879V70H79.9839ZM84.0219 72.716C84.6659 72.716 85.2119 72.9167 85.6599 73.318C86.1079 73.7193 86.3319 74.2327 86.3319 74.858C86.3319 75.4833 86.1079 75.9967 85.6599 76.398C85.2119 76.7993 84.6659 77 84.0219 77H81.2499V70H81.9499V72.716H84.0219ZM84.0219 76.314C84.4699 76.314 84.8479 76.1787 85.1559 75.908C85.4639 75.6373 85.6179 75.2873 85.6179 74.858C85.6179 74.4193 85.4639 74.0693 85.1559 73.808C84.8572 73.5373 84.4792 73.402 84.0219 73.402H81.9499V76.314H84.0219ZM94.8055 77.154C93.7508 77.154 92.8735 76.804 92.1735 76.104C91.4735 75.404 91.1235 74.536 91.1235 73.5C91.1235 72.464 91.4735 71.596 92.1735 70.896C92.8735 70.196 93.7508 69.846 94.8055 69.846C95.4868 69.846 96.1028 70.0093 96.6535 70.336C97.2042 70.6533 97.6055 71.0873 97.8575 71.638L97.2835 71.974C97.0782 71.526 96.7515 71.1713 96.3035 70.91C95.8648 70.6487 95.3655 70.518 94.8055 70.518C93.9655 70.518 93.2608 70.8073 92.6915 71.386C92.1222 71.9553 91.8375 72.66 91.8375 73.5C91.8375 74.34 92.1222 75.0493 92.6915 75.628C93.2608 76.1973 93.9655 76.482 94.8055 76.482C95.3655 76.482 95.8648 76.3513 96.3035 76.09C96.7515 75.8287 97.0922 75.474 97.3255 75.026L97.9135 75.376C97.6335 75.9173 97.2135 76.3513 96.6535 76.678C96.1028 76.9953 95.4868 77.154 94.8055 77.154ZM106.386 77.154C105.359 77.154 104.486 76.804 103.768 76.104C103.058 75.3947 102.704 74.5267 102.704 73.5C102.704 72.4733 103.058 71.61 103.768 70.91C104.486 70.2007 105.359 69.846 106.386 69.846C107.403 69.846 108.266 70.2007 108.976 70.91C109.694 71.61 110.054 72.4733 110.054 73.5C110.054 74.5267 109.694 75.3947 108.976 76.104C108.266 76.804 107.403 77.154 106.386 77.154ZM104.272 75.614C104.85 76.1927 105.555 76.482 106.386 76.482C107.216 76.482 107.916 76.1927 108.486 75.614C109.055 75.0353 109.34 74.3307 109.34 73.5C109.34 72.6693 109.055 71.9647 108.486 71.386C107.916 70.8073 107.216 70.518 106.386 70.518C105.555 70.518 104.85 70.8073 104.272 71.386C103.702 71.9647 103.418 72.6693 103.418 73.5C103.418 74.3307 103.702 75.0353 104.272 75.614ZM117.52 70V77H116.806V70.686H112.438V77H111.738V70H117.52ZM122.832 69.846C123.858 69.846 124.689 70.21 125.324 70.938C125.968 71.666 126.29 72.5293 126.29 73.528C126.29 73.5653 126.285 73.6213 126.276 73.696C126.276 73.7707 126.276 73.8267 126.276 73.864H119.934C120.018 74.648 120.33 75.2827 120.872 75.768C121.422 76.244 122.099 76.482 122.902 76.482C123.462 76.482 123.952 76.3653 124.372 76.132C124.792 75.8987 125.109 75.5907 125.324 75.208L125.94 75.572C125.65 76.0573 125.24 76.4447 124.708 76.734C124.176 77.014 123.569 77.154 122.888 77.154C121.814 77.154 120.932 76.8133 120.242 76.132C119.551 75.4413 119.206 74.564 119.206 73.5C119.206 72.4547 119.542 71.5867 120.214 70.896C120.895 70.196 121.768 69.846 122.832 69.846ZM122.832 70.518C122.038 70.518 121.376 70.7653 120.844 71.26C120.312 71.7547 120.008 72.394 119.934 73.178H125.562C125.487 72.3473 125.188 71.6987 124.666 71.232C124.152 70.756 123.541 70.518 122.832 70.518ZM131.636 69.846C132.644 69.846 133.498 70.2007 134.198 70.91C134.907 71.61 135.262 72.4733 135.262 73.5C135.262 74.5267 134.907 75.3947 134.198 76.104C133.498 76.804 132.644 77.154 131.636 77.154C130.973 77.154 130.376 76.9953 129.844 76.678C129.321 76.3607 128.915 75.9267 128.626 75.376V79.8H127.926V70H128.626V71.624C128.915 71.0733 129.321 70.6393 129.844 70.322C130.376 70.0047 130.973 69.846 131.636 69.846ZM129.48 75.614C130.058 76.1927 130.763 76.482 131.594 76.482C132.424 76.482 133.124 76.1927 133.694 75.614C134.272 75.0353 134.562 74.3307 134.562 73.5C134.562 72.6693 134.272 71.9647 133.694 71.386C133.124 70.8073 132.424 70.518 131.594 70.518C130.763 70.518 130.058 70.8073 129.48 71.386C128.91 71.9647 128.626 72.6693 128.626 73.5C128.626 74.3307 128.91 75.0353 129.48 75.614ZM143.109 70H143.823V77H143.109V75.418C142.81 75.9593 142.4 76.384 141.877 76.692C141.354 77 140.762 77.154 140.099 77.154C139.1 77.154 138.246 76.804 137.537 76.104C136.828 75.3947 136.473 74.5267 136.473 73.5C136.473 72.4733 136.828 71.61 137.537 70.91C138.246 70.2007 139.1 69.846 140.099 69.846C140.762 69.846 141.354 70 141.877 70.308C142.4 70.616 142.81 71.0407 143.109 71.582V70ZM138.041 75.614C138.62 76.1927 139.324 76.482 140.155 76.482C140.986 76.482 141.686 76.1927 142.255 75.614C142.824 75.0353 143.109 74.3307 143.109 73.5C143.109 72.6693 142.824 71.9647 142.255 71.386C141.686 70.8073 140.986 70.518 140.155 70.518C139.324 70.518 138.62 70.8073 138.041 71.386C137.472 71.9647 137.187 72.6693 137.187 73.5C137.187 74.3307 137.472 75.0353 138.041 75.614ZM150.873 70V70.686H148.325V77H147.625V70.686H145.077V70H150.873ZM155.071 77.154C154.044 77.154 153.172 76.804 152.453 76.104C151.744 75.3947 151.389 74.5267 151.389 73.5C151.389 72.4733 151.744 71.61 152.453 70.91C153.172 70.2007 154.044 69.846 155.071 69.846C156.088 69.846 156.952 70.2007 157.661 70.91C158.38 71.61 158.739 72.4733 158.739 73.5C158.739 74.5267 158.38 75.3947 157.661 76.104C156.952 76.804 156.088 77.154 155.071 77.154ZM152.957 75.614C153.536 76.1927 154.24 76.482 155.071 76.482C155.902 76.482 156.602 76.1927 157.171 75.614C157.74 75.0353 158.025 74.3307 158.025 73.5C158.025 72.6693 157.74 71.9647 157.171 71.386C156.602 70.8073 155.902 70.518 155.071 70.518C154.24 70.518 153.536 70.8073 152.957 71.386C152.388 71.9647 152.103 72.6693 152.103 73.5C152.103 74.3307 152.388 75.0353 152.957 75.614ZM164.134 69.846C165.142 69.846 165.996 70.2007 166.696 70.91C167.405 71.61 167.76 72.4733 167.76 73.5C167.76 74.5267 167.405 75.3947 166.696 76.104C165.996 76.804 165.142 77.154 164.134 77.154C163.471 77.154 162.874 76.9953 162.342 76.678C161.819 76.3607 161.413 75.9267 161.124 75.376V79.8H160.424V70H161.124V71.624C161.413 71.0733 161.819 70.6393 162.342 70.322C162.874 70.0047 163.471 69.846 164.134 69.846ZM161.978 75.614C162.556 76.1927 163.261 76.482 164.092 76.482C164.922 76.482 165.622 76.1927 166.192 75.614C166.77 75.0353 167.06 74.3307 167.06 73.5C167.06 72.6693 166.77 71.9647 166.192 71.386C165.622 70.8073 164.922 70.518 164.092 70.518C163.261 70.518 162.556 70.8073 161.978 71.386C161.408 71.9647 161.124 72.6693 161.124 73.5C161.124 74.3307 161.408 75.0353 161.978 75.614ZM172.653 77.154C171.626 77.154 170.754 76.804 170.035 76.104C169.326 75.3947 168.971 74.5267 168.971 73.5C168.971 72.4733 169.326 71.61 170.035 70.91C170.754 70.2007 171.626 69.846 172.653 69.846C173.67 69.846 174.534 70.2007 175.243 70.91C175.962 71.61 176.321 72.4733 176.321 73.5C176.321 74.5267 175.962 75.3947 175.243 76.104C174.534 76.804 173.67 77.154 172.653 77.154ZM170.539 75.614C171.118 76.1927 171.822 76.482 172.653 76.482C173.484 76.482 174.184 76.1927 174.753 75.614C175.322 75.0353 175.607 74.3307 175.607 73.5C175.607 72.6693 175.322 71.9647 174.753 71.386C174.184 70.8073 173.484 70.518 172.653 70.518C171.822 70.518 171.118 70.8073 170.539 71.386C169.97 71.9647 169.685 72.6693 169.685 73.5C169.685 74.3307 169.97 75.0353 170.539 75.614ZM184.768 70V77H184.054V71.064L181.436 75.194H181.338L178.706 71.036V77H178.006V70H178.832L181.38 74.018L183.928 70H184.768ZM9.296 107.684C8.316 108.664 7.12133 109.154 5.712 109.154C4.30267 109.154 3.108 108.664 2.128 107.684C1.148 106.695 0.658 105.5 0.658 104.1C0.658 102.7 1.148 101.51 2.128 100.53C3.108 99.5407 4.30267 99.046 5.712 99.046C7.12133 99.046 8.316 99.5407 9.296 100.53C10.276 101.51 10.766 102.7 10.766 104.1C10.766 105.5 10.276 106.695 9.296 107.684ZM2.646 107.18C3.486 108.02 4.508 108.44 5.712 108.44C6.916 108.44 7.93333 108.02 8.764 107.18C9.604 106.331 10.024 105.304 10.024 104.1C10.024 102.896 9.604 101.874 8.764 101.034C7.93333 100.185 6.916 99.76 5.712 99.76C4.508 99.76 3.486 100.185 2.646 101.034C1.81533 101.874 1.4 102.896 1.4 104.1C1.4 105.304 1.81533 106.331 2.646 107.18ZM17.4077 102V102.686H14.8597V109H14.1597V102.686H11.6117V102H17.4077ZM22.9857 105.388C23.807 105.659 24.2177 106.219 24.2177 107.068C24.2177 107.628 24.031 108.09 23.6577 108.454C23.2937 108.818 22.7617 109 22.0617 109H18.6737V102H21.7957C22.4584 102 22.9717 102.173 23.3357 102.518C23.6997 102.863 23.8817 103.302 23.8817 103.834C23.8817 104.581 23.583 105.099 22.9857 105.388ZM21.7957 102.686H19.3737V105.108H21.7957C22.2437 105.108 22.5844 105.001 22.8177 104.786C23.051 104.571 23.1677 104.268 23.1677 103.876C23.1677 103.503 23.0464 103.213 22.8037 103.008C22.5704 102.793 22.2344 102.686 21.7957 102.686ZM22.0617 108.314C22.5284 108.314 22.8877 108.202 23.1397 107.978C23.3917 107.754 23.5177 107.441 23.5177 107.04C23.5177 106.648 23.387 106.345 23.1257 106.13C22.8737 105.906 22.519 105.794 22.0617 105.794H19.3737V108.314H22.0617ZM28.9194 101.846C29.9461 101.846 30.7767 102.21 31.4114 102.938C32.0554 103.666 32.3774 104.529 32.3774 105.528C32.3774 105.565 32.3727 105.621 32.3634 105.696C32.3634 105.771 32.3634 105.827 32.3634 105.864H26.0214C26.1054 106.648 26.4181 107.283 26.9594 107.768C27.5101 108.244 28.1867 108.482 28.9894 108.482C29.5494 108.482 30.0394 108.365 30.4594 108.132C30.8794 107.899 31.1967 107.591 31.4114 107.208L32.0274 107.572C31.7381 108.057 31.3274 108.445 30.7954 108.734C30.2634 109.014 29.6567 109.154 28.9754 109.154C27.9021 109.154 27.0201 108.813 26.3294 108.132C25.6387 107.441 25.2934 106.564 25.2934 105.5C25.2934 104.455 25.6294 103.587 26.3014 102.896C26.9827 102.196 27.8554 101.846 28.9194 101.846ZM28.9194 102.518C28.1261 102.518 27.4634 102.765 26.9314 103.26C26.3994 103.755 26.0961 104.394 26.0214 105.178H31.6494C31.5747 104.347 31.2761 103.699 30.7534 103.232C30.2401 102.756 29.6287 102.518 28.9194 102.518ZM38.6401 102V102.686H36.0921V109H35.3921V102.686H32.8441V102H38.6401ZM42.6781 104.716C43.3221 104.716 43.8681 104.917 44.3161 105.318C44.7641 105.719 44.9881 106.233 44.9881 106.858C44.9881 107.483 44.7641 107.997 44.3161 108.398C43.8681 108.799 43.3221 109 42.6781 109H39.9061V102H40.6061V104.716H42.6781ZM46.0661 102H46.7661V109H46.0661V102ZM42.6781 108.314C43.1261 108.314 43.5041 108.179 43.8121 107.908C44.1201 107.637 44.2741 107.287 44.2741 106.858C44.2741 106.419 44.1201 106.069 43.8121 105.808C43.5135 105.537 43.1355 105.402 42.6781 105.402H40.6061V108.314H42.6781ZM57.7163 102H58.4303V109H57.7163V105.836H53.3483V109H52.6483V102H53.3483V105.164H57.7163V102ZM66.7517 102H67.4657V109H66.7517V107.418C66.453 107.959 66.0423 108.384 65.5197 108.692C64.997 109 64.4043 109.154 63.7417 109.154C62.743 109.154 61.889 108.804 61.1797 108.104C60.4703 107.395 60.1157 106.527 60.1157 105.5C60.1157 104.473 60.4703 103.61 61.1797 102.91C61.889 102.201 62.743 101.846 63.7417 101.846C64.4043 101.846 64.997 102 65.5197 102.308C66.0423 102.616 66.453 103.041 66.7517 103.582V102ZM61.6837 107.614C62.2623 108.193 62.967 108.482 63.7977 108.482C64.6283 108.482 65.3283 108.193 65.8977 107.614C66.467 107.035 66.7517 106.331 66.7517 105.5C66.7517 104.669 66.467 103.965 65.8977 103.386C65.3283 102.807 64.6283 102.518 63.7977 102.518C62.967 102.518 62.2623 102.807 61.6837 103.386C61.1143 103.965 60.8297 104.669 60.8297 105.5C60.8297 106.331 61.1143 107.035 61.6837 107.614ZM77.9955 102H78.7095V109H77.9955V106.256C77.3795 106.564 76.6702 106.718 75.8675 106.718C74.9715 106.718 74.2809 106.513 73.7955 106.102C73.3102 105.682 73.0675 105.075 73.0675 104.282V102H73.7675V104.282C73.7675 105.458 74.4582 106.046 75.8395 106.046C76.6049 106.046 77.3235 105.897 77.9955 105.598V102ZM87.0271 102H87.7411V109H87.0271V107.418C86.7284 107.959 86.3177 108.384 85.7951 108.692C85.2724 109 84.6797 109.154 84.0171 109.154C83.0184 109.154 82.1644 108.804 81.4551 108.104C80.7457 107.395 80.3911 106.527 80.3911 105.5C80.3911 104.473 80.7457 103.61 81.4551 102.91C82.1644 102.201 83.0184 101.846 84.0171 101.846C84.6797 101.846 85.2724 102 85.7951 102.308C86.3177 102.616 86.7284 103.041 87.0271 103.582V102ZM81.9591 107.614C82.5377 108.193 83.2424 108.482 84.0731 108.482C84.9037 108.482 85.6037 108.193 86.1731 107.614C86.7424 107.035 87.0271 106.331 87.0271 105.5C87.0271 104.669 86.7424 103.965 86.1731 103.386C85.6037 102.807 84.9037 102.518 84.0731 102.518C83.2424 102.518 82.5377 102.807 81.9591 103.386C81.3897 103.965 81.1051 104.669 81.1051 105.5C81.1051 106.331 81.3897 107.035 81.9591 107.614ZM93.0965 109.154C92.0418 109.154 91.1645 108.804 90.4645 108.104C89.7645 107.404 89.4145 106.536 89.4145 105.5C89.4145 104.464 89.7645 103.596 90.4645 102.896C91.1645 102.196 92.0418 101.846 93.0965 101.846C93.7778 101.846 94.3938 102.009 94.9445 102.336C95.4952 102.653 95.8965 103.087 96.1485 103.638L95.5745 103.974C95.3692 103.526 95.0425 103.171 94.5945 102.91C94.1558 102.649 93.6565 102.518 93.0965 102.518C92.2565 102.518 91.5518 102.807 90.9825 103.386C90.4132 103.955 90.1285 104.66 90.1285 105.5C90.1285 106.34 90.4132 107.049 90.9825 107.628C91.5518 108.197 92.2565 108.482 93.0965 108.482C93.6565 108.482 94.1558 108.351 94.5945 108.09C95.0425 107.829 95.3832 107.474 95.6165 107.026L96.2045 107.376C95.9245 107.917 95.5045 108.351 94.9445 108.678C94.3938 108.995 93.7778 109.154 93.0965 109.154ZM102.501 102V102.686H99.9534V109H99.2534V102.686H96.7054V102H102.501ZM106.539 104.716C107.183 104.716 107.729 104.917 108.177 105.318C108.625 105.719 108.849 106.233 108.849 106.858C108.849 107.483 108.625 107.997 108.177 108.398C107.729 108.799 107.183 109 106.539 109H103.767V102H104.467V104.716H106.539ZM109.927 102H110.627V109H109.927V102ZM106.539 108.314C106.987 108.314 107.365 108.179 107.673 107.908C107.981 107.637 108.135 107.287 108.135 106.858C108.135 106.419 107.981 106.069 107.673 105.808C107.375 105.537 106.997 105.402 106.539 105.402H104.467V108.314H106.539ZM115.927 101.846C116.954 101.846 117.785 102.21 118.419 102.938C119.063 103.666 119.385 104.529 119.385 105.528C119.385 105.565 119.381 105.621 119.371 105.696C119.371 105.771 119.371 105.827 119.371 105.864H113.029C113.113 106.648 113.426 107.283 113.967 107.768C114.518 108.244 115.195 108.482 115.997 108.482C116.557 108.482 117.047 108.365 117.467 108.132C117.887 107.899 118.205 107.591 118.419 107.208L119.035 107.572C118.746 108.057 118.335 108.445 117.803 108.734C117.271 109.014 116.665 109.154 115.983 109.154C114.91 109.154 114.028 108.813 113.337 108.132C112.647 107.441 112.301 106.564 112.301 105.5C112.301 104.455 112.637 103.587 113.309 102.896C113.991 102.196 114.863 101.846 115.927 101.846ZM115.927 102.518C115.134 102.518 114.471 102.765 113.939 103.26C113.407 103.755 113.104 104.394 113.029 105.178H118.657C118.583 104.347 118.284 103.699 117.761 103.232C117.248 102.756 116.637 102.518 115.927 102.518ZM129.066 105.388C129.887 105.659 130.298 106.219 130.298 107.068C130.298 107.628 130.111 108.09 129.738 108.454C129.374 108.818 128.842 109 128.142 109H124.754V102H127.876C128.538 102 129.052 102.173 129.416 102.518C129.78 102.863 129.962 103.302 129.962 103.834C129.962 104.581 129.663 105.099 129.066 105.388ZM127.876 102.686H125.454V105.108H127.876C128.324 105.108 128.664 105.001 128.898 104.786C129.131 104.571 129.248 104.268 129.248 103.876C129.248 103.503 129.126 103.213 128.884 103.008C128.65 102.793 128.314 102.686 127.876 102.686ZM128.142 108.314C128.608 108.314 128.968 108.202 129.22 107.978C129.472 107.754 129.598 107.441 129.598 107.04C129.598 106.648 129.467 106.345 129.206 106.13C128.954 105.906 128.599 105.794 128.142 105.794H125.454V108.314H128.142ZM135.055 109.154C134.029 109.154 133.156 108.804 132.437 108.104C131.728 107.395 131.373 106.527 131.373 105.5C131.373 104.473 131.728 103.61 132.437 102.91C133.156 102.201 134.029 101.846 135.055 101.846C136.073 101.846 136.936 102.201 137.645 102.91C138.364 103.61 138.723 104.473 138.723 105.5C138.723 106.527 138.364 107.395 137.645 108.104C136.936 108.804 136.073 109.154 135.055 109.154ZM132.941 107.614C133.52 108.193 134.225 108.482 135.055 108.482C135.886 108.482 136.586 108.193 137.155 107.614C137.725 107.035 138.009 106.331 138.009 105.5C138.009 104.669 137.725 103.965 137.155 103.386C136.586 102.807 135.886 102.518 135.055 102.518C134.225 102.518 133.52 102.807 132.941 103.386C132.372 103.965 132.087 104.669 132.087 105.5C132.087 106.331 132.372 107.035 132.941 107.614ZM146.19 102V109H145.476V102.686H141.108V109H140.408V102H146.19ZM152.061 101.846C153.069 101.846 153.923 102.201 154.623 102.91C155.333 103.61 155.687 104.473 155.687 105.5C155.687 106.527 155.333 107.395 154.623 108.104C153.923 108.804 153.069 109.154 152.061 109.154C151.399 109.154 150.801 108.995 150.269 108.678C149.747 108.361 149.341 107.927 149.051 107.376V111.8H148.351V102H149.051V103.624C149.341 103.073 149.747 102.639 150.269 102.322C150.801 102.005 151.399 101.846 152.061 101.846ZM149.905 107.614C150.484 108.193 151.189 108.482 152.019 108.482C152.85 108.482 153.55 108.193 154.119 107.614C154.698 107.035 154.987 106.331 154.987 105.5C154.987 104.669 154.698 103.965 154.119 103.386C153.55 102.807 152.85 102.518 152.019 102.518C151.189 102.518 150.484 102.807 149.905 103.386C149.336 103.965 149.051 104.669 149.051 105.5C149.051 106.331 149.336 107.035 149.905 107.614ZM160.581 109.154C159.554 109.154 158.682 108.804 157.963 108.104C157.254 107.395 156.899 106.527 156.899 105.5C156.899 104.473 157.254 103.61 157.963 102.91C158.682 102.201 159.554 101.846 160.581 101.846C161.598 101.846 162.462 102.201 163.171 102.91C163.89 103.61 164.249 104.473 164.249 105.5C164.249 106.527 163.89 107.395 163.171 108.104C162.462 108.804 161.598 109.154 160.581 109.154ZM158.467 107.614C159.046 108.193 159.75 108.482 160.581 108.482C161.412 108.482 162.112 108.193 162.681 107.614C163.25 107.035 163.535 106.331 163.535 105.5C163.535 104.669 163.25 103.965 162.681 103.386C162.112 102.807 161.412 102.518 160.581 102.518C159.75 102.518 159.046 102.807 158.467 103.386C157.898 103.965 157.613 104.669 157.613 105.5C157.613 106.331 157.898 107.035 158.467 107.614ZM169.139 109.154C168.085 109.154 167.207 108.804 166.507 108.104C165.807 107.404 165.457 106.536 165.457 105.5C165.457 104.464 165.807 103.596 166.507 102.896C167.207 102.196 168.085 101.846 169.139 101.846C169.821 101.846 170.437 102.009 170.987 102.336C171.538 102.653 171.939 103.087 172.191 103.638L171.617 103.974C171.412 103.526 171.085 103.171 170.637 102.91C170.199 102.649 169.699 102.518 169.139 102.518C168.299 102.518 167.595 102.807 167.025 103.386C166.456 103.955 166.171 104.66 166.171 105.5C166.171 106.34 166.456 107.049 167.025 107.628C167.595 108.197 168.299 108.482 169.139 108.482C169.699 108.482 170.199 108.351 170.637 108.09C171.085 107.829 171.426 107.474 171.659 107.026L172.247 107.376C171.967 107.917 171.547 108.351 170.987 108.678C170.437 108.995 169.821 109.154 169.139 109.154ZM176.553 104.716C177.197 104.716 177.743 104.917 178.191 105.318C178.639 105.719 178.863 106.233 178.863 106.858C178.863 107.483 178.639 107.997 178.191 108.398C177.743 108.799 177.197 109 176.553 109H173.781V102H174.481V104.716H176.553ZM179.941 102H180.641V109H179.941V102ZM176.553 108.314C177.001 108.314 177.379 108.179 177.687 107.908C177.995 107.637 178.149 107.287 178.149 106.858C178.149 106.419 177.995 106.069 177.687 105.808C177.388 105.537 177.01 105.402 176.553 105.402H174.481V108.314H176.553ZM8.218 131.2V141H7.462V131.9H1.96V141H1.218V131.2H8.218ZM13.7039 141.154C12.6773 141.154 11.8046 140.804 11.0859 140.104C10.3766 139.395 10.0219 138.527 10.0219 137.5C10.0219 136.473 10.3766 135.61 11.0859 134.91C11.8046 134.201 12.6773 133.846 13.7039 133.846C14.7213 133.846 15.5846 134.201 16.2939 134.91C17.0126 135.61 17.3719 136.473 17.3719 137.5C17.3719 138.527 17.0126 139.395 16.2939 140.104C15.5846 140.804 14.7213 141.154 13.7039 141.154ZM11.5899 139.614C12.1686 140.193 12.8733 140.482 13.7039 140.482C14.5346 140.482 15.2346 140.193 15.8039 139.614C16.3733 139.035 16.6579 138.331 16.6579 137.5C16.6579 136.669 16.3733 135.965 15.8039 135.386C15.2346 134.807 14.5346 134.518 13.7039 134.518C12.8733 134.518 12.1686 134.807 11.5899 135.386C11.0206 135.965 10.7359 136.669 10.7359 137.5C10.7359 138.331 11.0206 139.035 11.5899 139.614ZM24.8385 134V141H24.1245V134.686H19.7565V141H19.0565V134H24.8385ZM32.1239 134H32.8799L29.8559 141.644C29.5852 142.335 29.2025 142.876 28.7079 143.268C28.2132 143.669 27.6719 143.847 27.0839 143.8V143.142C27.5319 143.179 27.9332 143.049 28.2879 142.75C28.6519 142.461 28.9459 142.045 29.1699 141.504L29.3239 141.126L26.1039 134H26.8599L29.6879 140.23L32.1239 134ZM39.3968 134V141H38.6968V134.686H35.1688V138.06C35.1688 139.199 34.9588 139.987 34.5388 140.426C34.1188 140.865 33.5448 141.056 32.8168 141V140.342C33.3768 140.389 33.7921 140.239 34.0628 139.894C34.3334 139.549 34.4688 138.937 34.4688 138.06V134H39.3968ZM46.3908 134V141H45.6908V138.27H44.1788L41.9808 141H41.0708L43.3108 138.256C42.7414 138.191 42.2654 137.967 41.8828 137.584C41.5001 137.192 41.3088 136.711 41.3088 136.142C41.3088 135.517 41.5328 135.003 41.9808 134.602C42.4288 134.201 42.9748 134 43.6188 134H46.3908ZM43.6188 137.598H45.6908V134.686H43.6188C43.1708 134.686 42.7928 134.821 42.4848 135.092C42.1768 135.363 42.0228 135.713 42.0228 136.142C42.0228 136.581 42.1721 136.935 42.4708 137.206C42.7788 137.467 43.1614 137.598 43.6188 137.598ZM52.2568 133.846C53.2648 133.846 54.1188 134.201 54.8188 134.91C55.5281 135.61 55.8828 136.473 55.8828 137.5C55.8828 138.527 55.5281 139.395 54.8188 140.104C54.1188 140.804 53.2648 141.154 52.2568 141.154C51.5941 141.154 50.9968 140.995 50.4648 140.678C49.9421 140.361 49.5361 139.927 49.2468 139.376V143.8H48.5468V134H49.2468V135.624C49.5361 135.073 49.9421 134.639 50.4648 134.322C50.9968 134.005 51.5941 133.846 52.2568 133.846ZM50.1008 139.614C50.6794 140.193 51.3841 140.482 52.2148 140.482C53.0454 140.482 53.7454 140.193 54.3148 139.614C54.8934 139.035 55.1827 138.331 55.1827 137.5C55.1827 136.669 54.8934 135.965 54.3148 135.386C53.7454 134.807 53.0454 134.518 52.2148 134.518C51.3841 134.518 50.6794 134.807 50.1008 135.386C49.5314 135.965 49.2468 136.669 49.2468 137.5C49.2468 138.331 49.5314 139.035 50.1008 139.614ZM62.6382 134H63.3522V141H62.6382V137.836H58.2702V141H57.5702V134H58.2702V137.164H62.6382V134ZM68.2855 136.716C68.9295 136.716 69.4755 136.917 69.9235 137.318C70.3715 137.719 70.5955 138.233 70.5955 138.858C70.5955 139.483 70.3715 139.997 69.9235 140.398C69.4755 140.799 68.9295 141 68.2855 141H65.5135V134H66.2135V136.716H68.2855ZM71.6735 134H72.3735V141H71.6735V134ZM68.2855 140.314C68.7335 140.314 69.1115 140.179 69.4195 139.908C69.7275 139.637 69.8815 139.287 69.8815 138.858C69.8815 138.419 69.7275 138.069 69.4195 137.808C69.1209 137.537 68.7429 137.402 68.2855 137.402H66.2135V140.314H68.2855ZM77.6733 133.846C78.7 133.846 79.5306 134.21 80.1653 134.938C80.8093 135.666 81.1313 136.529 81.1313 137.528C81.1313 137.565 81.1266 137.621 81.1173 137.696C81.1173 137.771 81.1173 137.827 81.1173 137.864H74.7753C74.8593 138.648 75.172 139.283 75.7133 139.768C76.264 140.244 76.9406 140.482 77.7433 140.482C78.3033 140.482 78.7933 140.365 79.2133 140.132C79.6333 139.899 79.9506 139.591 80.1653 139.208L80.7813 139.572C80.492 140.057 80.0813 140.445 79.5493 140.734C79.0173 141.014 78.4106 141.154 77.7293 141.154C76.656 141.154 75.774 140.813 75.0833 140.132C74.3926 139.441 74.0473 138.564 74.0473 137.5C74.0473 136.455 74.3833 135.587 75.0553 134.896C75.7366 134.196 76.6093 133.846 77.6733 133.846ZM77.6733 134.518C76.88 134.518 76.2173 134.765 75.6853 135.26C75.1533 135.755 74.85 136.394 74.7753 137.178H80.4033C80.3286 136.347 80.03 135.699 79.5073 135.232C78.994 134.756 78.3826 134.518 77.6733 134.518ZM93.2619 134V141H92.5479V135.064L89.9299 139.194H89.8319L87.1999 135.036V141H86.4999V134H87.3259L89.8739 138.018L92.4219 134H93.2619ZM101.574 134H102.288V141H101.574V139.418C101.275 139.959 100.865 140.384 100.342 140.692C99.8193 141 99.2266 141.154 98.5639 141.154C97.5653 141.154 96.7113 140.804 96.0019 140.104C95.2926 139.395 94.9379 138.527 94.9379 137.5C94.9379 136.473 95.2926 135.61 96.0019 134.91C96.7113 134.201 97.5653 133.846 98.5639 133.846C99.2266 133.846 99.8193 134 100.342 134.308C100.865 134.616 101.275 135.041 101.574 135.582V134ZM96.5059 139.614C97.0846 140.193 97.7893 140.482 98.6199 140.482C99.4506 140.482 100.151 140.193 100.72 139.614C101.289 139.035 101.574 138.331 101.574 137.5C101.574 136.669 101.289 135.965 100.72 135.386C100.151 134.807 99.4506 134.518 98.6199 134.518C97.7893 134.518 97.0846 134.807 96.5059 135.386C95.9366 135.965 95.6519 136.669 95.6519 137.5C95.6519 138.331 95.9366 139.035 96.5059 139.614ZM108.819 134V134.686H105.137V141H104.437V134H108.819ZM115.957 134H116.671V141H115.957V139.418C115.658 139.959 115.247 140.384 114.725 140.692C114.202 141 113.609 141.154 112.947 141.154C111.948 141.154 111.094 140.804 110.385 140.104C109.675 139.395 109.321 138.527 109.321 137.5C109.321 136.473 109.675 135.61 110.385 134.91C111.094 134.201 111.948 133.846 112.947 133.846C113.609 133.846 114.202 134 114.725 134.308C115.247 134.616 115.658 135.041 115.957 135.582V134ZM110.889 139.614C111.467 140.193 112.172 140.482 113.003 140.482C113.833 140.482 114.533 140.193 115.103 139.614C115.672 139.035 115.957 138.331 115.957 137.5C115.957 136.669 115.672 135.965 115.103 135.386C114.533 134.807 113.833 134.518 113.003 134.518C112.172 134.518 111.467 134.807 110.889 135.386C110.319 135.965 110.035 136.669 110.035 137.5C110.035 138.331 110.319 139.035 110.889 139.614ZM122.18 137.388C122.6 137.528 122.927 137.752 123.16 138.06C123.394 138.368 123.51 138.723 123.51 139.124C123.51 139.693 123.286 140.174 122.838 140.566C122.39 140.958 121.756 141.154 120.934 141.154C119.534 141.154 118.624 140.603 118.204 139.502L118.806 139.152C119.105 140.039 119.814 140.482 120.934 140.482C121.513 140.482 121.966 140.356 122.292 140.104C122.628 139.843 122.796 139.502 122.796 139.082C122.796 138.699 122.656 138.391 122.376 138.158C122.096 137.915 121.723 137.794 121.256 137.794H120.29V137.108H120.99C121.448 137.108 121.807 136.991 122.068 136.758C122.33 136.525 122.46 136.212 122.46 135.82C122.46 135.447 122.306 135.139 121.998 134.896C121.7 134.644 121.303 134.518 120.808 134.518C119.856 134.518 119.226 134.896 118.918 135.652L118.33 135.316C118.526 134.868 118.834 134.513 119.254 134.252C119.674 133.981 120.192 133.846 120.808 133.846C121.527 133.846 122.096 134.037 122.516 134.42C122.946 134.793 123.16 135.251 123.16 135.792C123.16 136.548 122.834 137.08 122.18 137.388ZM130.221 134H130.837V141H130.123V135.218L125.671 141H125.055V134H125.755V139.782L130.221 134ZM138.066 134H138.78V141H138.066V137.836H133.698V141H132.998V134H133.698V137.164H138.066V134ZM143.713 136.716C144.357 136.716 144.903 136.917 145.351 137.318C145.799 137.719 146.023 138.233 146.023 138.858C146.023 139.483 145.799 139.997 145.351 140.398C144.903 140.799 144.357 141 143.713 141H140.941V134H141.641V136.716H143.713ZM147.101 134H147.801V141H147.101V134ZM143.713 140.314C144.161 140.314 144.539 140.179 144.847 139.908C145.155 139.637 145.309 139.287 145.309 138.858C145.309 138.419 145.155 138.069 144.847 137.808C144.549 137.537 144.171 137.402 143.713 137.402H141.641V140.314H143.713ZM6.818 163.2H7.56V173H6.818V168.758C5.93133 169.187 5.012 169.402 4.06 169.402C3.108 169.402 2.35667 169.145 1.806 168.632C1.25533 168.119 0.98 167.461 0.98 166.658V163.2H1.722V166.658C1.722 167.274 1.92733 167.769 2.338 168.142C2.74867 168.515 3.32267 168.702 4.06 168.702C5.012 168.702 5.93133 168.487 6.818 168.058V163.2ZM13.0053 165.846C14.032 165.846 14.8627 166.21 15.4973 166.938C16.1413 167.666 16.4633 168.529 16.4633 169.528C16.4633 169.565 16.4587 169.621 16.4493 169.696C16.4493 169.771 16.4493 169.827 16.4493 169.864H10.1073C10.1913 170.648 10.504 171.283 11.0453 171.768C11.596 172.244 12.2727 172.482 13.0753 172.482C13.6353 172.482 14.1253 172.365 14.5453 172.132C14.9653 171.899 15.2827 171.591 15.4973 171.208L16.1133 171.572C15.824 172.057 15.4133 172.445 14.8813 172.734C14.3493 173.014 13.7427 173.154 13.0613 173.154C11.988 173.154 11.106 172.813 10.4153 172.132C9.72468 171.441 9.37934 170.564 9.37934 169.5C9.37934 168.455 9.71534 167.587 10.3873 166.896C11.0687 166.196 11.9413 165.846 13.0053 165.846ZM13.0053 166.518C12.212 166.518 11.5493 166.765 11.0173 167.26C10.4853 167.755 10.182 168.394 10.1073 169.178H15.7353C15.6607 168.347 15.362 167.699 14.8393 167.232C14.326 166.756 13.7147 166.518 13.0053 166.518ZM21.8095 165.846C22.8175 165.846 23.6715 166.201 24.3715 166.91C25.0808 167.61 25.4355 168.473 25.4355 169.5C25.4355 170.527 25.0808 171.395 24.3715 172.104C23.6715 172.804 22.8175 173.154 21.8095 173.154C21.1468 173.154 20.5495 172.995 20.0175 172.678C19.4948 172.361 19.0888 171.927 18.7995 171.376V175.8H18.0995V166H18.7995V167.624C19.0888 167.073 19.4948 166.639 20.0175 166.322C20.5495 166.005 21.1468 165.846 21.8095 165.846ZM19.6535 171.614C20.2322 172.193 20.9368 172.482 21.7675 172.482C22.5982 172.482 23.2982 172.193 23.8675 171.614C24.4462 171.035 24.7355 170.331 24.7355 169.5C24.7355 168.669 24.4462 167.965 23.8675 167.386C23.2982 166.807 22.5982 166.518 21.7675 166.518C20.9368 166.518 20.2322 166.807 19.6535 167.386C19.0842 167.965 18.7995 168.669 18.7995 169.5C18.7995 170.331 19.0842 171.035 19.6535 171.614ZM32.1909 166H32.9049V173H32.1909V169.836H27.8229V173H27.1229V166H27.8229V169.164H32.1909V166ZM37.8383 168.716C38.4823 168.716 39.0283 168.917 39.4763 169.318C39.9243 169.719 40.1483 170.233 40.1483 170.858C40.1483 171.483 39.9243 171.997 39.4763 172.398C39.0283 172.799 38.4823 173 37.8383 173H35.0663V166H35.7663V168.716H37.8383ZM41.2263 166H41.9263V173H41.2263V166ZM37.8383 172.314C38.2863 172.314 38.6643 172.179 38.9723 171.908C39.2803 171.637 39.4343 171.287 39.4343 170.858C39.4343 170.419 39.2803 170.069 38.9723 169.808C38.6736 169.537 38.2956 169.402 37.8383 169.402H35.7663V172.314H37.8383ZM45.182 164.782V164.166H48.724V164.782H45.182ZM49.242 166H49.858V173H49.144V167.218L44.692 173H44.076V166H44.776V171.782L49.242 166ZM58.9578 173.154C57.9032 173.154 57.0258 172.804 56.3258 172.104C55.6258 171.404 55.2758 170.536 55.2758 169.5C55.2758 168.464 55.6258 167.596 56.3258 166.896C57.0258 166.196 57.9032 165.846 58.9578 165.846C59.6392 165.846 60.2552 166.009 60.8058 166.336C61.3565 166.653 61.7578 167.087 62.0098 167.638L61.4358 167.974C61.2305 167.526 60.9038 167.171 60.4558 166.91C60.0172 166.649 59.5178 166.518 58.9578 166.518C58.1178 166.518 57.4132 166.807 56.8438 167.386C56.2745 167.955 55.9898 168.66 55.9898 169.5C55.9898 170.34 56.2745 171.049 56.8438 171.628C57.4132 172.197 58.1178 172.482 58.9578 172.482C59.5178 172.482 60.0172 172.351 60.4558 172.09C60.9038 171.829 61.2445 171.474 61.4778 171.026L62.0658 171.376C61.7858 171.917 61.3658 172.351 60.8058 172.678C60.2552 172.995 59.6392 173.154 58.9578 173.154ZM69.3815 166V173H68.6675V166.686H64.2995V173H63.5995V166H69.3815ZM76.7088 166H77.3248V173H76.6108V167.218L72.1588 173H71.5428V166H72.2428V171.782L76.7088 166ZM82.6922 173.154C81.6375 173.154 80.7602 172.804 80.0602 172.104C79.3602 171.404 79.0102 170.536 79.0102 169.5C79.0102 168.464 79.3602 167.596 80.0602 166.896C80.7602 166.196 81.6375 165.846 82.6922 165.846C83.3735 165.846 83.9895 166.009 84.5402 166.336C85.0909 166.653 85.4922 167.087 85.7442 167.638L85.1702 167.974C84.9649 167.526 84.6382 167.171 84.1902 166.91C83.7515 166.649 83.2522 166.518 82.6922 166.518C81.8522 166.518 81.1475 166.807 80.5782 167.386C80.0089 167.955 79.7242 168.66 79.7242 169.5C79.7242 170.34 80.0089 171.049 80.5782 171.628C81.1475 172.197 81.8522 172.482 82.6922 172.482C83.2522 172.482 83.7515 172.351 84.1902 172.09C84.6382 171.829 84.9789 171.474 85.2122 171.026L85.8002 171.376C85.5202 171.917 85.1002 172.351 84.5402 172.678C83.9895 172.995 83.3735 173.154 82.6922 173.154ZM90.4715 173.154C89.4448 173.154 88.5722 172.804 87.8535 172.104C87.1442 171.395 86.7895 170.527 86.7895 169.5C86.7895 168.473 87.1442 167.61 87.8535 166.91C88.5722 166.201 89.4448 165.846 90.4715 165.846C91.4888 165.846 92.3522 166.201 93.0615 166.91C93.7802 167.61 94.1395 168.473 94.1395 169.5C94.1395 170.527 93.7802 171.395 93.0615 172.104C92.3522 172.804 91.4888 173.154 90.4715 173.154ZM88.3575 171.614C88.9362 172.193 89.6408 172.482 90.4715 172.482C91.3022 172.482 92.0022 172.193 92.5715 171.614C93.1408 171.035 93.4255 170.331 93.4255 169.5C93.4255 168.669 93.1408 167.965 92.5715 167.386C92.0022 166.807 91.3022 166.518 90.4715 166.518C89.6408 166.518 88.9362 166.807 88.3575 167.386C87.7882 167.965 87.5035 168.669 87.5035 169.5C87.5035 170.331 87.7882 171.035 88.3575 171.614ZM101.186 173H100.234L96.5241 169.556V173H95.8241V166H96.5241V169.178L100.066 166H101.046L97.2801 169.36L101.186 173ZM113.086 166V173H112.372V167.064L109.754 171.194H109.656L107.024 167.036V173H106.324V166H107.15L109.698 170.018L112.246 166H113.086ZM121.398 166H122.112V173H121.398V171.418C121.099 171.959 120.689 172.384 120.166 172.692C119.643 173 119.051 173.154 118.388 173.154C117.389 173.154 116.535 172.804 115.826 172.104C115.117 171.395 114.762 170.527 114.762 169.5C114.762 168.473 115.117 167.61 115.826 166.91C116.535 166.201 117.389 165.846 118.388 165.846C119.051 165.846 119.643 166 120.166 166.308C120.689 166.616 121.099 167.041 121.398 167.582V166ZM116.33 171.614C116.909 172.193 117.613 172.482 118.444 172.482C119.275 172.482 119.975 172.193 120.544 171.614C121.113 171.035 121.398 170.331 121.398 169.5C121.398 168.669 121.113 167.965 120.544 167.386C119.975 166.807 119.275 166.518 118.444 166.518C117.613 166.518 116.909 166.807 116.33 167.386C115.761 167.965 115.476 168.669 115.476 169.5C115.476 170.331 115.761 171.035 116.33 171.614ZM128.644 166V166.686H124.962V173H124.262V166H128.644ZM135.781 166H136.495V173H135.781V171.418C135.482 171.959 135.072 172.384 134.549 172.692C134.026 173 133.434 173.154 132.771 173.154C131.772 173.154 130.918 172.804 130.209 172.104C129.5 171.395 129.145 170.527 129.145 169.5C129.145 168.473 129.5 167.61 130.209 166.91C130.918 166.201 131.772 165.846 132.771 165.846C133.434 165.846 134.026 166 134.549 166.308C135.072 166.616 135.482 167.041 135.781 167.582V166ZM130.713 171.614C131.292 172.193 131.996 172.482 132.827 172.482C133.658 172.482 134.358 172.193 134.927 171.614C135.496 171.035 135.781 170.331 135.781 169.5C135.781 168.669 135.496 167.965 134.927 167.386C134.358 166.807 133.658 166.518 132.827 166.518C131.996 166.518 131.292 166.807 130.713 167.386C130.144 167.965 129.859 168.669 129.859 169.5C129.859 170.331 130.144 171.035 130.713 171.614ZM142.004 169.388C142.424 169.528 142.751 169.752 142.984 170.06C143.218 170.368 143.334 170.723 143.334 171.124C143.334 171.693 143.11 172.174 142.662 172.566C142.214 172.958 141.58 173.154 140.758 173.154C139.358 173.154 138.448 172.603 138.028 171.502L138.63 171.152C138.929 172.039 139.638 172.482 140.758 172.482C141.337 172.482 141.79 172.356 142.116 172.104C142.452 171.843 142.62 171.502 142.62 171.082C142.62 170.699 142.48 170.391 142.2 170.158C141.92 169.915 141.547 169.794 141.08 169.794H140.114V169.108H140.814C141.272 169.108 141.631 168.991 141.892 168.758C142.154 168.525 142.284 168.212 142.284 167.82C142.284 167.447 142.13 167.139 141.822 166.896C141.524 166.644 141.127 166.518 140.632 166.518C139.68 166.518 139.05 166.896 138.742 167.652L138.154 167.316C138.35 166.868 138.658 166.513 139.078 166.252C139.498 165.981 140.016 165.846 140.632 165.846C141.351 165.846 141.92 166.037 142.34 166.42C142.77 166.793 142.984 167.251 142.984 167.792C142.984 168.548 142.658 169.08 142.004 169.388ZM150.045 166H150.661V173H149.947V167.218L145.495 173H144.879V166H145.579V171.782L150.045 166ZM157.89 166H158.604V173H157.89V169.836H153.522V173H152.822V166H153.522V169.164H157.89V166ZM163.972 173.154C162.945 173.154 162.072 172.804 161.354 172.104C160.644 171.395 160.29 170.527 160.29 169.5C160.29 168.473 160.644 167.61 161.354 166.91C162.072 166.201 162.945 165.846 163.972 165.846C164.989 165.846 165.852 166.201 166.562 166.91C167.28 167.61 167.64 168.473 167.64 169.5C167.64 170.527 167.28 171.395 166.562 172.104C165.852 172.804 164.989 173.154 163.972 173.154ZM161.858 171.614C162.436 172.193 163.141 172.482 163.972 172.482C164.802 172.482 165.502 172.193 166.072 171.614C166.641 171.035 166.926 170.331 166.926 169.5C166.926 168.669 166.641 167.965 166.072 167.386C165.502 166.807 164.802 166.518 163.972 166.518C163.141 166.518 162.436 166.807 161.858 167.386C161.288 167.965 161.004 168.669 161.004 169.5C161.004 170.331 161.288 171.035 161.858 171.614ZM173.636 169.388C174.457 169.659 174.868 170.219 174.868 171.068C174.868 171.628 174.681 172.09 174.308 172.454C173.944 172.818 173.412 173 172.712 173H169.324V166H172.446C173.109 166 173.622 166.173 173.986 166.518C174.35 166.863 174.532 167.302 174.532 167.834C174.532 168.581 174.233 169.099 173.636 169.388ZM172.446 166.686H170.024V169.108H172.446C172.894 169.108 173.235 169.001 173.468 168.786C173.701 168.571 173.818 168.268 173.818 167.876C173.818 167.503 173.697 167.213 173.454 167.008C173.221 166.793 172.885 166.686 172.446 166.686ZM172.712 172.314C173.179 172.314 173.538 172.202 173.79 171.978C174.042 171.754 174.168 171.441 174.168 171.04C174.168 170.648 174.037 170.345 173.776 170.13C173.524 169.906 173.169 169.794 172.712 169.794H170.024V172.314H172.712ZM7.812 205L6.86 202.508H1.946L0.994 205H0.21L4.018 195.2H4.802L8.596 205H7.812ZM2.226 201.808H6.594L4.41 196.11L2.226 201.808ZM15.2447 205H14.2927L10.5827 201.556V205H9.88269V198H10.5827V201.178L14.1247 198H15.1047L11.3387 201.36L15.2447 205ZM21.5503 198V198.686H19.0023V205H18.3023V198.686H15.7543V198H21.5503ZM27.9403 198H28.6963L25.6723 205.644C25.4016 206.335 25.0189 206.876 24.5243 207.268C24.0296 207.669 23.4883 207.847 22.9003 207.8V207.142C23.3483 207.179 23.7496 207.049 24.1043 206.75C24.4683 206.461 24.7623 206.045 24.9863 205.504L25.1403 205.126L21.9203 198H22.6763L25.5043 204.23L27.9403 198ZM35.8396 198H36.5536V205H35.8396V203.418C35.5409 203.959 35.1302 204.384 34.6076 204.692C34.0849 205 33.4922 205.154 32.8296 205.154C31.8309 205.154 30.9769 204.804 30.2676 204.104C29.5582 203.395 29.2036 202.527 29.2036 201.5C29.2036 200.473 29.5582 199.61 30.2676 198.91C30.9769 198.201 31.8309 197.846 32.8296 197.846C33.4922 197.846 34.0849 198 34.6076 198.308C35.1302 198.616 35.5409 199.041 35.8396 199.582V198ZM30.7716 203.614C31.3502 204.193 32.0549 204.482 32.8856 204.482C33.7162 204.482 34.4162 204.193 34.9856 203.614C35.5549 203.035 35.8396 202.331 35.8396 201.5C35.8396 200.669 35.5549 199.965 34.9856 199.386C34.4162 198.807 33.7162 198.518 32.8856 198.518C32.0549 198.518 31.3502 198.807 30.7716 199.386C30.2022 199.965 29.9176 200.669 29.9176 201.5C29.9176 202.331 30.2022 203.035 30.7716 203.614ZM44.387 198V205H43.687V198.686H40.159V202.06C40.159 203.199 39.949 203.987 39.529 204.426C39.109 204.865 38.535 205.056 37.807 205V204.342C38.367 204.389 38.7823 204.239 39.053 203.894C39.3237 203.549 39.459 202.937 39.459 202.06V198H44.387ZM49.309 200.716C49.953 200.716 50.499 200.917 50.947 201.318C51.395 201.719 51.619 202.233 51.619 202.858C51.619 203.483 51.395 203.997 50.947 204.398C50.499 204.799 49.953 205 49.309 205H46.537V198H47.237V200.716H49.309ZM49.309 204.314C49.757 204.314 50.135 204.179 50.443 203.908C50.751 203.637 50.905 203.287 50.905 202.858C50.905 202.419 50.751 202.069 50.443 201.808C50.1443 201.537 49.7663 201.402 49.309 201.402H47.237V204.314H49.309ZM58.2222 198H58.9362V205H58.2222V201.836H53.8542V205H53.1542V198H53.8542V201.164H58.2222V198ZM63.8695 200.716C64.5135 200.716 65.0595 200.917 65.5075 201.318C65.9555 201.719 66.1795 202.233 66.1795 202.858C66.1795 203.483 65.9555 203.997 65.5075 204.398C65.0595 204.799 64.5135 205 63.8695 205H61.0975V198H61.7975V200.716H63.8695ZM67.2575 198H67.9575V205H67.2575V198ZM63.8695 204.314C64.3175 204.314 64.6955 204.179 65.0035 203.908C65.3115 203.637 65.4655 203.287 65.4655 202.858C65.4655 202.419 65.3115 202.069 65.0035 201.808C64.7049 201.537 64.3269 201.402 63.8695 201.402H61.7975V204.314H63.8695ZM73.2573 197.846C74.284 197.846 75.1146 198.21 75.7493 198.938C76.3933 199.666 76.7153 200.529 76.7153 201.528C76.7153 201.565 76.7106 201.621 76.7013 201.696C76.7013 201.771 76.7013 201.827 76.7013 201.864H70.3593C70.4433 202.648 70.756 203.283 71.2973 203.768C71.848 204.244 72.5246 204.482 73.3273 204.482C73.8873 204.482 74.3773 204.365 74.7973 204.132C75.2173 203.899 75.5346 203.591 75.7493 203.208L76.3653 203.572C76.076 204.057 75.6653 204.445 75.1333 204.734C74.6013 205.014 73.9946 205.154 73.3133 205.154C72.24 205.154 71.358 204.813 70.6673 204.132C69.9766 203.441 69.6313 202.564 69.6313 201.5C69.6313 200.455 69.9673 199.587 70.6393 198.896C71.3206 198.196 72.1933 197.846 73.2573 197.846ZM73.2573 198.518C72.464 198.518 71.8013 198.765 71.2693 199.26C70.7373 199.755 70.434 200.394 70.3593 201.178H75.9873C75.9126 200.347 75.614 199.699 75.0913 199.232C74.578 198.756 73.9666 198.518 73.2573 198.518ZM85.7939 197.846C86.8019 197.846 87.6559 198.201 88.3559 198.91C89.0652 199.61 89.4199 200.473 89.4199 201.5C89.4199 202.527 89.0652 203.395 88.3559 204.104C87.6559 204.804 86.8019 205.154 85.7939 205.154C85.1312 205.154 84.5339 204.995 84.0019 204.678C83.4792 204.361 83.0732 203.927 82.7839 203.376V207.8H82.0839V198H82.7839V199.624C83.0732 199.073 83.4792 198.639 84.0019 198.322C84.5339 198.005 85.1312 197.846 85.7939 197.846ZM83.6379 203.614C84.2165 204.193 84.9212 204.482 85.7519 204.482C86.5825 204.482 87.2825 204.193 87.8519 203.614C88.4305 203.035 88.7199 202.331 88.7199 201.5C88.7199 200.669 88.4305 199.965 87.8519 199.386C87.2825 198.807 86.5825 198.518 85.7519 198.518C84.9212 198.518 84.2165 198.807 83.6379 199.386C83.0685 199.965 82.7839 200.669 82.7839 201.5C82.7839 202.331 83.0685 203.035 83.6379 203.614ZM97.2673 198H97.9813V205H97.2673V203.418C96.9686 203.959 96.558 204.384 96.0353 204.692C95.5126 205 94.92 205.154 94.2573 205.154C93.2586 205.154 92.4046 204.804 91.6953 204.104C90.986 203.395 90.6313 202.527 90.6313 201.5C90.6313 200.473 90.986 199.61 91.6953 198.91C92.4046 198.201 93.2586 197.846 94.2573 197.846C94.92 197.846 95.5126 198 96.0353 198.308C96.558 198.616 96.9686 199.041 97.2673 199.582V198ZM92.1993 203.614C92.778 204.193 93.4826 204.482 94.3133 204.482C95.144 204.482 95.844 204.193 96.4133 203.614C96.9826 203.035 97.2673 202.331 97.2673 201.5C97.2673 200.669 96.9826 199.965 96.4133 199.386C95.844 198.807 95.144 198.518 94.3133 198.518C93.4826 198.518 92.778 198.807 92.1993 199.386C91.63 199.965 91.3453 200.669 91.3453 201.5C91.3453 202.331 91.63 203.035 92.1993 203.614ZM103.337 205.154C102.282 205.154 101.405 204.804 100.705 204.104C100.005 203.404 99.6547 202.536 99.6547 201.5C99.6547 200.464 100.005 199.596 100.705 198.896C101.405 198.196 102.282 197.846 103.337 197.846C104.018 197.846 104.634 198.009 105.185 198.336C105.735 198.653 106.137 199.087 106.389 199.638L105.815 199.974C105.609 199.526 105.283 199.171 104.835 198.91C104.396 198.649 103.897 198.518 103.337 198.518C102.497 198.518 101.792 198.807 101.223 199.386C100.653 199.955 100.369 200.66 100.369 201.5C100.369 202.34 100.653 203.049 101.223 203.628C101.792 204.197 102.497 204.482 103.337 204.482C103.897 204.482 104.396 204.351 104.835 204.09C105.283 203.829 105.623 203.474 105.857 203.026L106.445 203.376C106.165 203.917 105.745 204.351 105.185 204.678C104.634 204.995 104.018 205.154 103.337 205.154ZM113.76 198V205H113.046V198.686H108.678V205H107.978V198H113.76ZM119.632 197.846C120.64 197.846 121.494 198.201 122.194 198.91C122.903 199.61 123.258 200.473 123.258 201.5C123.258 202.527 122.903 203.395 122.194 204.104C121.494 204.804 120.64 205.154 119.632 205.154C118.969 205.154 118.372 204.995 117.84 204.678C117.317 204.361 116.911 203.927 116.622 203.376V207.8H115.922V198H116.622V199.624C116.911 199.073 117.317 198.639 117.84 198.322C118.372 198.005 118.969 197.846 119.632 197.846ZM117.476 203.614C118.054 204.193 118.759 204.482 119.59 204.482C120.42 204.482 121.12 204.193 121.69 203.614C122.268 203.035 122.558 202.331 122.558 201.5C122.558 200.669 122.268 199.965 121.69 199.386C121.12 198.807 120.42 198.518 119.59 198.518C118.759 198.518 118.054 198.807 117.476 199.386C116.906 199.965 116.622 200.669 116.622 201.5C116.622 202.331 116.906 203.035 117.476 203.614ZM128.151 205.154C127.125 205.154 126.252 204.804 125.533 204.104C124.824 203.395 124.469 202.527 124.469 201.5C124.469 200.473 124.824 199.61 125.533 198.91C126.252 198.201 127.125 197.846 128.151 197.846C129.169 197.846 130.032 198.201 130.741 198.91C131.46 199.61 131.819 200.473 131.819 201.5C131.819 202.527 131.46 203.395 130.741 204.104C130.032 204.804 129.169 205.154 128.151 205.154ZM126.037 203.614C126.616 204.193 127.321 204.482 128.151 204.482C128.982 204.482 129.682 204.193 130.251 203.614C130.821 203.035 131.105 202.331 131.105 201.5C131.105 200.669 130.821 199.965 130.251 199.386C129.682 198.807 128.982 198.518 128.151 198.518C127.321 198.518 126.616 198.807 126.037 199.386C125.468 199.965 125.183 200.669 125.183 201.5C125.183 202.331 125.468 203.035 126.037 203.614ZM138.97 204.314H139.95V206.876H139.236V205H133.188V206.876H132.474V204.314H133.286C133.8 203.614 134.056 202.676 134.056 201.5V198H138.97V204.314ZM134.154 204.314H138.256V198.686H134.756V201.5C134.756 202.648 134.556 203.586 134.154 204.314ZM147.375 198H148.089V205H147.375V203.418C147.076 203.959 146.665 204.384 146.143 204.692C145.62 205 145.027 205.154 144.365 205.154C143.366 205.154 142.512 204.804 141.803 204.104C141.093 203.395 140.739 202.527 140.739 201.5C140.739 200.473 141.093 199.61 141.803 198.91C142.512 198.201 143.366 197.846 144.365 197.846C145.027 197.846 145.62 198 146.143 198.308C146.665 198.616 147.076 199.041 147.375 199.582V198ZM142.307 203.614C142.885 204.193 143.59 204.482 144.421 204.482C145.251 204.482 145.951 204.193 146.521 203.614C147.09 203.035 147.375 202.331 147.375 201.5C147.375 200.669 147.09 199.965 146.521 199.386C145.951 198.807 145.251 198.518 144.421 198.518C143.59 198.518 142.885 198.807 142.307 199.386C141.737 199.965 141.453 200.669 141.453 201.5C141.453 202.331 141.737 203.035 142.307 203.614ZM158.12 205H157.252L154.158 201.556V205H153.444V201.556L150.35 205H149.482L152.8 201.36L149.622 198H150.49L153.444 201.164V198H154.158V201.164L157.112 198H157.98L154.816 201.36L158.12 205ZM164.687 198H165.303V205H164.589V199.218L160.137 205H159.521V198H160.221V203.782L164.687 198Z" fill="#1F2428"/>
</svg>
