<svg width="228" height="179" viewBox="0 0 228 179" fill="none" xmlns="http://www.w3.org/2000/svg">
<path d="M6.352 12.224C4.66667 12.224 3.27467 11.664 2.176 10.544C1.07733 9.424 0.528 8.04267 0.528 6.4C0.528 4.74667 1.07733 3.36533 2.176 2.256C3.27467 1.136 4.66667 0.575999 6.352 0.575999C7.36533 0.575999 8.29867 0.815999 9.152 1.296C10.016 1.76533 10.688 2.40533 11.168 3.216L9.264 4.32C8.98667 3.81867 8.592 3.42933 8.08 3.152C7.568 2.864 6.992 2.72 6.352 2.72C5.264 2.72 4.384 3.06133 3.712 3.744C3.05067 4.42667 2.72 5.312 2.72 6.4C2.72 7.47733 3.05067 8.35733 3.712 9.04C4.384 9.72267 5.264 10.064 6.352 10.064C6.992 10.064 7.568 9.92533 8.08 9.648C8.60267 9.36 8.99733 8.97067 9.264 8.48L11.168 9.584C10.688 10.3947 10.0213 11.04 9.168 11.52C8.31467 11.9893 7.376 12.224 6.352 12.224ZM19.8654 4V12H17.8014V5.936H14.6174V12H12.5534V4H19.8654ZM23.5005 8.848C23.7778 9.85067 24.5298 10.352 25.7565 10.352C26.5458 10.352 27.1432 10.0853 27.5485 9.552L29.2125 10.512C28.4232 11.6533 27.2605 12.224 25.7245 12.224C24.4018 12.224 23.3405 11.824 22.5405 11.024C21.7405 10.224 21.3405 9.216 21.3405 8C21.3405 6.79467 21.7352 5.792 22.5245 4.992C23.3138 4.18133 24.3272 3.776 25.5645 3.776C26.7378 3.776 27.7032 4.18133 28.4605 4.992C29.2285 5.80267 29.6125 6.80533 29.6125 8C29.6125 8.26667 29.5858 8.54933 29.5325 8.848H23.5005ZM23.4685 7.248H27.5485C27.4312 6.704 27.1858 6.29867 26.8125 6.032C26.4498 5.76533 26.0338 5.632 25.5645 5.632C25.0098 5.632 24.5512 5.776 24.1885 6.064C23.8258 6.34133 23.5858 6.736 23.4685 7.248ZM38.0934 10.064H39.4374V14.144H37.4214V12H31.0534V4H33.1174V10.064H36.0294V4H38.0934V10.064ZM48.0529 4V12H45.9889V5.936H42.8049V12H40.7409V4H48.0529ZM54.6 3.776C55.6773 3.776 56.5947 4.18667 57.352 5.008C58.12 5.81867 58.504 6.816 58.504 8C58.504 9.184 58.12 10.1867 57.352 11.008C56.5947 11.8187 55.6773 12.224 54.6 12.224C53.48 12.224 52.616 11.8347 52.008 11.056V15.2H49.944V4H52.008V4.944C52.616 4.16533 53.48 3.776 54.6 3.776ZM52.632 9.632C53.048 10.048 53.576 10.256 54.216 10.256C54.856 10.256 55.384 10.048 55.8 9.632C56.2267 9.20533 56.44 8.66133 56.44 8C56.44 7.33867 56.2267 6.8 55.8 6.384C55.384 5.95733 54.856 5.744 54.216 5.744C53.576 5.744 53.048 5.95733 52.632 6.384C52.216 6.8 52.008 7.33867 52.008 8C52.008 8.66133 52.216 9.20533 52.632 9.632ZM66.7756 11.008C65.9543 11.8187 64.9516 12.224 63.7676 12.224C62.5836 12.224 61.581 11.8187 60.7596 11.008C59.949 10.1867 59.5436 9.184 59.5436 8C59.5436 6.816 59.949 5.81867 60.7596 5.008C61.581 4.18667 62.5836 3.776 63.7676 3.776C64.9516 3.776 65.9543 4.18667 66.7756 5.008C67.597 5.81867 68.0076 6.816 68.0076 8C68.0076 9.184 67.597 10.1867 66.7756 11.008ZM62.2156 9.584C62.6316 10 63.149 10.208 63.7676 10.208C64.3863 10.208 64.9036 10 65.3196 9.584C65.7356 9.168 65.9436 8.64 65.9436 8C65.9436 7.36 65.7356 6.832 65.3196 6.416C64.9036 6 64.3863 5.792 63.7676 5.792C63.149 5.792 62.6316 6 62.2156 6.416C61.8103 6.832 61.6076 7.36 61.6076 8C61.6076 8.64 61.8103 9.168 62.2156 9.584ZM71.2036 8.848C71.481 9.85067 72.233 10.352 73.4596 10.352C74.249 10.352 74.8463 10.0853 75.2516 9.552L76.9156 10.512C76.1263 11.6533 74.9636 12.224 73.4276 12.224C72.105 12.224 71.0436 11.824 70.2436 11.024C69.4436 10.224 69.0436 9.216 69.0436 8C69.0436 6.79467 69.4383 5.792 70.2276 4.992C71.017 4.18133 72.0303 3.776 73.2676 3.776C74.441 3.776 75.4063 4.18133 76.1636 4.992C76.9316 5.80267 77.3156 6.80533 77.3156 8C77.3156 8.26667 77.289 8.54933 77.2356 8.848H71.2036ZM71.1716 7.248H75.2516C75.1343 6.704 74.889 6.29867 74.5156 6.032C74.153 5.76533 73.737 5.632 73.2676 5.632C72.713 5.632 72.2543 5.776 71.8916 6.064C71.529 6.34133 71.289 6.736 71.1716 7.248ZM86.1325 12H83.7325L80.8205 8.368V12H78.7565V4H80.8205V7.52L83.5725 4H86.0365L82.8205 7.952L86.1325 12ZM93.4668 4V5.984H90.9708V12H88.9068V5.984H86.3788V4H93.4668ZM98.185 6.56C99.0917 6.56 99.8223 6.81067 100.377 7.312C100.932 7.80267 101.209 8.45867 101.209 9.28C101.209 10.1013 100.932 10.7627 100.377 11.264C99.8223 11.7547 99.0917 12 98.185 12H94.569V4H96.633V6.56H98.185ZM102.089 4H104.153V12H102.089V4ZM98.201 10.176C98.489 10.176 98.7237 10.096 98.905 9.936C99.097 9.76533 99.193 9.54667 99.193 9.28C99.193 9.01333 99.097 8.79467 98.905 8.624C98.7237 8.45333 98.489 8.368 98.201 8.368H96.633V10.176H98.201Z" fill="#1F2428"/>
<path d="M3.724 39.19C4.63867 39.19 5.40867 39.4607 6.034 40.002C6.66867 40.534 6.986 41.2573 6.986 42.172C6.986 43.0867 6.66867 43.8147 6.034 44.356C5.40867 44.888 4.63867 45.154 3.724 45.154C3.00533 45.154 2.36133 44.9813 1.792 44.636C1.232 44.2907 0.844667 43.8053 0.63 43.18L1.26 42.816C1.41867 43.3387 1.71733 43.74 2.156 44.02C2.59467 44.3 3.11733 44.44 3.724 44.44C4.46133 44.44 5.06333 44.2347 5.53 43.824C6.006 43.4133 6.244 42.8627 6.244 42.172C6.244 41.4813 6.006 40.9307 5.53 40.52C5.06333 40.1093 4.46133 39.904 3.724 39.904H1.106L1.442 35.2H6.622V35.9H2.1L1.876 39.19H3.724ZM14.4128 43.782C13.7688 44.6967 12.8681 45.154 11.7108 45.154C10.5534 45.154 9.65278 44.6967 9.00878 43.782C8.36478 42.8673 8.04278 41.64 8.04278 40.1C8.04278 38.56 8.36478 37.3327 9.00878 36.418C9.65278 35.5033 10.5534 35.046 11.7108 35.046C12.8681 35.046 13.7688 35.5033 14.4128 36.418C15.0568 37.3327 15.3788 38.56 15.3788 40.1C15.3788 41.64 15.0568 42.8673 14.4128 43.782ZM9.56878 43.306C10.0821 44.062 10.7961 44.44 11.7108 44.44C12.6254 44.44 13.3394 44.062 13.8528 43.306C14.3661 42.5407 14.6228 41.472 14.6228 40.1C14.6228 38.728 14.3661 37.664 13.8528 36.908C13.3394 36.1427 12.6254 35.76 11.7108 35.76C10.7961 35.76 10.0821 36.1427 9.56878 36.908C9.05545 37.664 8.79878 38.728 8.79878 40.1C8.79878 41.472 9.05545 42.5407 9.56878 43.306ZM18.8697 39.218C18.2537 39.218 17.7404 39.0173 17.3297 38.616C16.9284 38.2147 16.7277 37.72 16.7277 37.132C16.7277 36.544 16.9284 36.0493 17.3297 35.648C17.7404 35.2467 18.2537 35.046 18.8697 35.046C19.4857 35.046 19.9944 35.2467 20.3957 35.648C20.8064 36.0493 21.0117 36.544 21.0117 37.132C21.0117 37.72 20.811 38.2147 20.4097 38.616C20.0084 39.0173 19.495 39.218 18.8697 39.218ZM17.8337 38.168C18.1044 38.4387 18.4497 38.574 18.8697 38.574C19.2897 38.574 19.635 38.4387 19.9057 38.168C20.1857 37.888 20.3257 37.5427 20.3257 37.132C20.3257 36.7213 20.1857 36.3807 19.9057 36.11C19.635 35.83 19.2897 35.69 18.8697 35.69C18.4497 35.69 18.1044 35.83 17.8337 36.11C17.563 36.3807 17.4277 36.7213 17.4277 37.132C17.4277 37.5427 17.563 37.888 17.8337 38.168ZM17.2597 43.74L23.9097 36.264L24.3857 36.53L17.7217 44.006L17.2597 43.74ZM24.3577 44.552C23.9564 44.9533 23.4477 45.154 22.8317 45.154C22.2157 45.154 21.7024 44.9533 21.2917 44.552C20.8904 44.1507 20.6897 43.656 20.6897 43.068C20.6897 42.48 20.8904 41.9853 21.2917 41.584C21.7024 41.1827 22.2157 40.982 22.8317 40.982C23.4477 40.982 23.9564 41.1827 24.3577 41.584C24.7684 41.9853 24.9737 42.48 24.9737 43.068C24.9737 43.656 24.7684 44.1507 24.3577 44.552ZM21.7957 44.104C22.0664 44.3747 22.4117 44.51 22.8317 44.51C23.2517 44.51 23.597 44.3747 23.8677 44.104C24.1477 43.824 24.2877 43.4787 24.2877 43.068C24.2877 42.6573 24.1477 42.3167 23.8677 42.046C23.597 41.766 23.2517 41.626 22.8317 41.626C22.4117 41.626 22.0664 41.766 21.7957 42.046C21.525 42.3167 21.3897 42.6573 21.3897 43.068C21.3897 43.4787 21.525 43.824 21.7957 44.104ZM35.7456 38H36.4596V45H35.7456V41.836H31.3776V45H30.6776V38H31.3776V41.164H35.7456V38ZM44.781 38H45.495V45H44.781V43.418C44.4823 43.9593 44.0716 44.384 43.549 44.692C43.0263 45 42.4336 45.154 41.771 45.154C40.7723 45.154 39.9183 44.804 39.209 44.104C38.4996 43.3947 38.145 42.5267 38.145 41.5C38.145 40.4733 38.4996 39.61 39.209 38.91C39.9183 38.2007 40.7723 37.846 41.771 37.846C42.4336 37.846 43.0263 38 43.549 38.308C44.0716 38.616 44.4823 39.0407 44.781 39.582V38ZM39.713 43.614C40.2916 44.1927 40.9963 44.482 41.827 44.482C42.6576 44.482 43.3576 44.1927 43.927 43.614C44.4963 43.0353 44.781 42.3307 44.781 41.5C44.781 40.6693 44.4963 39.9647 43.927 39.386C43.3576 38.8073 42.6576 38.518 41.827 38.518C40.9963 38.518 40.2916 38.8073 39.713 39.386C39.1436 39.9647 38.859 40.6693 38.859 41.5C38.859 42.3307 39.1436 43.0353 39.713 43.614ZM57.1588 38V45H56.4448V38.686H52.0768V45H51.3768V38H57.1588ZM62.4702 37.846C63.4969 37.846 64.3275 38.21 64.9622 38.938C65.6062 39.666 65.9282 40.5293 65.9282 41.528C65.9282 41.5653 65.9235 41.6213 65.9142 41.696C65.9142 41.7707 65.9142 41.8267 65.9142 41.864H59.5722C59.6562 42.648 59.9689 43.2827 60.5102 43.768C61.0609 44.244 61.7375 44.482 62.5402 44.482C63.1002 44.482 63.5902 44.3653 64.0102 44.132C64.4302 43.8987 64.7475 43.5907 64.9622 43.208L65.5782 43.572C65.2889 44.0573 64.8782 44.4447 64.3462 44.734C63.8142 45.014 63.2075 45.154 62.5262 45.154C61.4529 45.154 60.5709 44.8133 59.8802 44.132C59.1895 43.4413 58.8442 42.564 58.8442 41.5C58.8442 40.4547 59.1802 39.5867 59.8522 38.896C60.5335 38.196 61.4062 37.846 62.4702 37.846ZM62.4702 38.518C61.6769 38.518 61.0142 38.7653 60.4822 39.26C59.9502 39.7547 59.6469 40.394 59.5722 41.178H65.2002C65.1255 40.3473 64.8269 39.6987 64.3042 39.232C63.7909 38.756 63.1795 38.518 62.4702 38.518ZM71.2743 37.846C72.2823 37.846 73.1363 38.2007 73.8363 38.91C74.5457 39.61 74.9003 40.4733 74.9003 41.5C74.9003 42.5267 74.5457 43.3947 73.8363 44.104C73.1363 44.804 72.2823 45.154 71.2743 45.154C70.6117 45.154 70.0143 44.9953 69.4823 44.678C68.9597 44.3607 68.5537 43.9267 68.2643 43.376V47.8H67.5643V38H68.2643V39.624C68.5537 39.0733 68.9597 38.6393 69.4823 38.322C70.0143 38.0047 70.6117 37.846 71.2743 37.846ZM69.1183 43.614C69.697 44.1927 70.4017 44.482 71.2323 44.482C72.063 44.482 72.763 44.1927 73.3323 43.614C73.911 43.0353 74.2003 42.3307 74.2003 41.5C74.2003 40.6693 73.911 39.9647 73.3323 39.386C72.763 38.8073 72.063 38.518 71.2323 38.518C70.4017 38.518 69.697 38.8073 69.1183 39.386C68.549 39.9647 68.2643 40.6693 68.2643 41.5C68.2643 42.3307 68.549 43.0353 69.1183 43.614ZM80.8998 41.388C81.7211 41.6587 82.1318 42.2187 82.1318 43.068C82.1318 43.628 81.9451 44.09 81.5718 44.454C81.2078 44.818 80.6758 45 79.9758 45H76.5878V38H79.7098C80.3724 38 80.8858 38.1727 81.2498 38.518C81.6138 38.8633 81.7958 39.302 81.7958 39.834C81.7958 40.5807 81.4971 41.0987 80.8998 41.388ZM79.7098 38.686H77.2878V41.108H79.7098C80.1578 41.108 80.4984 41.0007 80.7318 40.786C80.9651 40.5713 81.0818 40.268 81.0818 39.876C81.0818 39.5027 80.9604 39.2133 80.7178 39.008C80.4844 38.7933 80.1484 38.686 79.7098 38.686ZM79.9758 44.314C80.4424 44.314 80.8018 44.202 81.0538 43.978C81.3058 43.754 81.4318 43.4413 81.4318 43.04C81.4318 42.648 81.3011 42.3447 81.0398 42.13C80.7878 41.906 80.4331 41.794 79.9758 41.794H77.2878V44.314H79.9758ZM88.534 38H89.29L86.266 45.644C85.9954 46.3347 85.6127 46.876 85.118 47.268C84.6234 47.6693 84.082 47.8467 83.494 47.8V47.142C83.942 47.1793 84.3434 47.0487 84.698 46.75C85.062 46.4607 85.356 46.0453 85.58 45.504L85.734 45.126L82.514 38H83.27L86.098 44.23L88.534 38ZM96.4408 37.846C97.4581 37.846 98.3214 38.2007 99.0308 38.91C99.7494 39.61 100.109 40.4733 100.109 41.5C100.109 42.5267 99.7494 43.3947 99.0308 44.104C98.3214 44.804 97.4581 45.154 96.4408 45.154C95.4794 45.154 94.6534 44.8413 93.9628 44.216C93.2814 43.5813 92.8988 42.788 92.8148 41.836H91.2468V45H90.5468V38H91.2468V41.164H92.8148C92.8988 40.212 93.2814 39.4233 93.9628 38.798C94.6534 38.1633 95.4794 37.846 96.4408 37.846ZM94.3268 43.614C94.9054 44.1927 95.6101 44.482 96.4408 44.482C97.2714 44.482 97.9714 44.1927 98.5408 43.614C99.1101 43.0353 99.3948 42.3307 99.3948 41.5C99.3948 40.6693 99.1101 39.9647 98.5408 39.386C97.9714 38.8073 97.2714 38.518 96.4408 38.518C95.6101 38.518 94.9054 38.8073 94.3268 39.386C93.7574 39.9647 93.4728 40.6693 93.4728 41.5C93.4728 42.3307 93.7574 43.0353 94.3268 43.614ZM111.257 44.314H112.237V46.876H111.523V45H105.475V46.876H104.761V44.314H105.573C106.087 43.614 106.343 42.676 106.343 41.5V38H111.257V44.314ZM106.441 44.314H110.543V38.686H107.043V41.5C107.043 42.648 106.843 43.586 106.441 44.314ZM116.708 45.154C115.681 45.154 114.808 44.804 114.09 44.104C113.38 43.3947 113.026 42.5267 113.026 41.5C113.026 40.4733 113.38 39.61 114.09 38.91C114.808 38.2007 115.681 37.846 116.708 37.846C117.725 37.846 118.588 38.2007 119.298 38.91C120.016 39.61 120.376 40.4733 120.376 41.5C120.376 42.5267 120.016 43.3947 119.298 44.104C118.588 44.804 117.725 45.154 116.708 45.154ZM114.594 43.614C115.172 44.1927 115.877 44.482 116.708 44.482C117.538 44.482 118.238 44.1927 118.808 43.614C119.377 43.0353 119.662 42.3307 119.662 41.5C119.662 40.6693 119.377 39.9647 118.808 39.386C118.238 38.8073 117.538 38.518 116.708 38.518C115.877 38.518 115.172 38.8073 114.594 39.386C114.024 39.9647 113.74 40.6693 113.74 41.5C113.74 42.3307 114.024 43.0353 114.594 43.614ZM125.266 45.154C124.212 45.154 123.334 44.804 122.634 44.104C121.934 43.404 121.584 42.536 121.584 41.5C121.584 40.464 121.934 39.596 122.634 38.896C123.334 38.196 124.212 37.846 125.266 37.846C125.948 37.846 126.564 38.0093 127.114 38.336C127.665 38.6533 128.066 39.0873 128.318 39.638L127.744 39.974C127.539 39.526 127.212 39.1713 126.764 38.91C126.326 38.6487 125.826 38.518 125.266 38.518C124.426 38.518 123.722 38.8073 123.152 39.386C122.583 39.9553 122.298 40.66 122.298 41.5C122.298 42.34 122.583 43.0493 123.152 43.628C123.722 44.1973 124.426 44.482 125.266 44.482C125.826 44.482 126.326 44.3513 126.764 44.09C127.212 43.8287 127.553 43.474 127.786 43.026L128.374 43.376C128.094 43.9173 127.674 44.3513 127.114 44.678C126.564 44.9953 125.948 45.154 125.266 45.154ZM134.671 38V38.686H132.123V45H131.423V38.686H128.875V38H134.671ZM141.824 38H142.538V45H141.824V43.418C141.525 43.9593 141.115 44.384 140.592 44.692C140.069 45 139.477 45.154 138.814 45.154C137.815 45.154 136.961 44.804 136.252 44.104C135.543 43.3947 135.188 42.5267 135.188 41.5C135.188 40.4733 135.543 39.61 136.252 38.91C136.961 38.2007 137.815 37.846 138.814 37.846C139.477 37.846 140.069 38 140.592 38.308C141.115 38.616 141.525 39.0407 141.824 39.582V38ZM136.756 43.614C137.335 44.1927 138.039 44.482 138.87 44.482C139.701 44.482 140.401 44.1927 140.97 43.614C141.539 43.0353 141.824 42.3307 141.824 41.5C141.824 40.6693 141.539 39.9647 140.97 39.386C140.401 38.8073 139.701 38.518 138.87 38.518C138.039 38.518 137.335 38.8073 136.756 39.386C136.187 39.9647 135.902 40.6693 135.902 41.5C135.902 42.3307 136.187 43.0353 136.756 43.614ZM148.999 41.388C149.821 41.6587 150.231 42.2187 150.231 43.068C150.231 43.628 150.045 44.09 149.671 44.454C149.307 44.818 148.775 45 148.075 45H144.687V38H147.809C148.472 38 148.985 38.1727 149.349 38.518C149.713 38.8633 149.895 39.302 149.895 39.834C149.895 40.5807 149.597 41.0987 148.999 41.388ZM147.809 38.686H145.387V41.108H147.809C148.257 41.108 148.598 41.0007 148.831 40.786C149.065 40.5713 149.181 40.268 149.181 39.876C149.181 39.5027 149.06 39.2133 148.817 39.008C148.584 38.7933 148.248 38.686 147.809 38.686ZM148.075 44.314C148.542 44.314 148.901 44.202 149.153 43.978C149.405 43.754 149.531 43.4413 149.531 43.04C149.531 42.648 149.401 42.3447 149.139 42.13C148.887 41.906 148.533 41.794 148.075 41.794H145.387V44.314H148.075ZM157.145 45H156.193L152.483 41.556V45H151.783V38H152.483V41.178L156.025 38H157.005L153.239 41.36L157.145 45ZM163.401 38H164.157L161.133 45.644C160.863 46.3347 160.48 46.876 159.985 47.268C159.491 47.6693 158.949 47.8467 158.361 47.8V47.142C158.809 47.1793 159.211 47.0487 159.565 46.75C159.929 46.4607 160.223 46.0453 160.447 45.504L160.601 45.126L157.381 38H158.137L160.965 44.23L163.401 38ZM5.754 77.154C4.27933 77.154 3.06133 76.6687 2.1 75.698C1.13867 74.718 0.658 73.5187 0.658 72.1C0.658 70.6813 1.13867 69.4867 2.1 68.516C3.06133 67.536 4.27933 67.046 5.754 67.046C6.65 67.046 7.47133 67.2607 8.218 67.69C8.96467 68.11 9.54333 68.6793 9.954 69.398L9.296 69.776C8.96933 69.1693 8.48867 68.684 7.854 68.32C7.21933 67.9467 6.51933 67.76 5.754 67.76C4.48467 67.76 3.43933 68.18 2.618 69.02C1.806 69.8507 1.4 70.8773 1.4 72.1C1.4 73.3227 1.806 74.354 2.618 75.194C3.43933 76.0247 4.48467 76.44 5.754 76.44C6.51933 76.44 7.224 76.2533 7.868 75.88C8.512 75.5067 8.99733 75.0073 9.324 74.382L9.982 74.76C9.58067 75.488 9.002 76.0713 8.246 76.51C7.49 76.9393 6.65933 77.154 5.754 77.154ZM16.9537 77H16.0017L12.2917 73.556V77H11.5917V70H12.2917V73.178L15.8337 70H16.8137L13.0477 73.36L16.9537 77ZM23.5253 70H24.1413V77H23.4273V71.218L18.9753 77H18.3593V70H19.0593V75.782L23.5253 70ZM32.0426 76.314H33.0226V78.876H32.3086V77H26.2606V78.876H25.5466V76.314H26.3586C26.8719 75.614 27.1286 74.676 27.1286 73.5V70H32.0426V76.314ZM27.2266 76.314H31.3286V70.686H27.8286V73.5C27.8286 74.648 27.6279 75.586 27.2266 76.314ZM39.9224 77H38.9704L35.2604 73.556V77H34.5604V70H35.2604V73.178L38.8024 70H39.7824L36.0164 73.36L39.9224 77ZM46.494 70H47.11V77H46.396V71.218L41.944 77H41.328V70H42.028V75.782L46.494 70ZM58.7438 76.314H59.7238V78.876H59.0098V77H52.9618V78.876H52.2478V76.314H53.0598C53.5731 75.614 53.8298 74.676 53.8298 73.5V70H58.7438V76.314ZM53.9278 76.314H58.0298V70.686H54.5298V73.5C54.5298 74.648 54.3291 75.586 53.9278 76.314ZM66.9456 70V77H66.2456V70.686H62.7176V74.06C62.7176 75.1987 62.5076 75.9873 62.0876 76.426C61.6676 76.8647 61.0936 77.056 60.3656 77V76.342C60.9256 76.3887 61.3409 76.2393 61.6116 75.894C61.8823 75.5487 62.0176 74.9373 62.0176 74.06V70H66.9456ZM73.9396 70V77H73.2396V74.27H71.7276L69.5296 77H68.6196L70.8596 74.256C70.2902 74.1907 69.8142 73.9667 69.4316 73.584C69.0489 73.192 68.8576 72.7113 68.8576 72.142C68.8576 71.5167 69.0816 71.0033 69.5296 70.602C69.9776 70.2007 70.5236 70 71.1676 70H73.9396ZM71.1676 73.598H73.2396V70.686H71.1676C70.7196 70.686 70.3416 70.8213 70.0336 71.092C69.7256 71.3627 69.5716 71.7127 69.5716 72.142C69.5716 72.5807 69.7209 72.9353 70.0196 73.206C70.3276 73.4673 70.7102 73.598 71.1676 73.598ZM85.61 70V77H84.896V70.686H80.528V77H79.828V70H85.61ZM90.9774 77.154C89.9507 77.154 89.078 76.804 88.3594 76.104C87.65 75.3947 87.2954 74.5267 87.2954 73.5C87.2954 72.4733 87.65 71.61 88.3594 70.91C89.078 70.2007 89.9507 69.846 90.9774 69.846C91.9947 69.846 92.858 70.2007 93.5674 70.91C94.286 71.61 94.6454 72.4733 94.6454 73.5C94.6454 74.5267 94.286 75.3947 93.5674 76.104C92.858 76.804 91.9947 77.154 90.9774 77.154ZM88.8634 75.614C89.442 76.1927 90.1467 76.482 90.9774 76.482C91.808 76.482 92.508 76.1927 93.0774 75.614C93.6467 75.0353 93.9314 74.3307 93.9314 73.5C93.9314 72.6693 93.6467 71.9647 93.0774 71.386C92.508 70.8073 91.808 70.518 90.9774 70.518C90.1467 70.518 89.442 70.8073 88.8634 71.386C88.294 71.9647 88.0094 72.6693 88.0094 73.5C88.0094 74.3307 88.294 75.0353 88.8634 75.614ZM99.536 77.154C98.4813 77.154 97.604 76.804 96.904 76.104C96.204 75.404 95.854 74.536 95.854 73.5C95.854 72.464 96.204 71.596 96.904 70.896C97.604 70.196 98.4813 69.846 99.536 69.846C100.217 69.846 100.833 70.0093 101.384 70.336C101.935 70.6533 102.336 71.0873 102.588 71.638L102.014 71.974C101.809 71.526 101.482 71.1713 101.034 70.91C100.595 70.6487 100.096 70.518 99.536 70.518C98.696 70.518 97.9913 70.8073 97.422 71.386C96.8526 71.9553 96.568 72.66 96.568 73.5C96.568 74.34 96.8526 75.0493 97.422 75.628C97.9913 76.1973 98.696 76.482 99.536 76.482C100.096 76.482 100.595 76.3513 101.034 76.09C101.482 75.8287 101.823 75.474 102.056 75.026L102.644 75.376C102.364 75.9173 101.944 76.3513 101.384 76.678C100.833 76.9953 100.217 77.154 99.536 77.154ZM108.941 70V70.686H106.393V77H105.693V70.686H103.145V70H108.941ZM113.139 77.154C112.113 77.154 111.24 76.804 110.521 76.104C109.812 75.3947 109.457 74.5267 109.457 73.5C109.457 72.4733 109.812 71.61 110.521 70.91C111.24 70.2007 112.113 69.846 113.139 69.846C114.157 69.846 115.02 70.2007 115.729 70.91C116.448 71.61 116.807 72.4733 116.807 73.5C116.807 74.5267 116.448 75.3947 115.729 76.104C115.02 76.804 114.157 77.154 113.139 77.154ZM111.025 75.614C111.604 76.1927 112.309 76.482 113.139 76.482C113.97 76.482 114.67 76.1927 115.239 75.614C115.809 75.0353 116.093 74.3307 116.093 73.5C116.093 72.6693 115.809 71.9647 115.239 71.386C114.67 70.8073 113.97 70.518 113.139 70.518C112.309 70.518 111.604 70.8073 111.025 71.386C110.456 71.9647 110.171 72.6693 110.171 73.5C110.171 74.3307 110.456 75.0353 111.025 75.614ZM123.063 70V77H122.363V74.27H120.851L118.653 77H117.743L119.983 74.256C119.413 74.1907 118.937 73.9667 118.555 73.584C118.172 73.192 117.981 72.7113 117.981 72.142C117.981 71.5167 118.205 71.0033 118.653 70.602C119.101 70.2007 119.647 70 120.291 70H123.063ZM120.291 73.598H122.363V70.686H120.291C119.843 70.686 119.465 70.8213 119.157 71.092C118.849 71.3627 118.695 71.7127 118.695 72.142C118.695 72.5807 118.844 72.9353 119.143 73.206C119.451 73.4673 119.833 73.598 120.291 73.598ZM130.287 70H131.001V77H130.287V73.836H125.919V77H125.219V70H125.919V73.164H130.287V70ZM138.23 70H138.944V77H138.23V73.836H133.862V77H133.162V70H133.862V73.164H138.23V70ZM143.877 72.716C144.521 72.716 145.067 72.9167 145.515 73.318C145.963 73.7193 146.187 74.2327 146.187 74.858C146.187 75.4833 145.963 75.9967 145.515 76.398C145.067 76.7993 144.521 77 143.877 77H141.105V70H141.805V72.716H143.877ZM147.265 70H147.965V77H147.265V70ZM143.877 76.314C144.325 76.314 144.703 76.1787 145.011 75.908C145.319 75.6373 145.473 75.2873 145.473 74.858C145.473 74.4193 145.319 74.0693 145.011 73.808C144.713 73.5373 144.335 73.402 143.877 73.402H141.805V76.314H143.877ZM155.799 77H154.945L152.579 73.948L150.213 77H149.359L152.159 73.402L149.527 70H150.381L152.579 72.842L154.791 70H155.631L153.013 73.388L155.799 77ZM166.305 77H165.353L161.643 73.556V77H160.943V70H161.643V73.178L165.185 70H166.165L162.399 73.36L166.305 77ZM173.395 70V77H172.695V70.686H169.167V74.06C169.167 75.1987 168.957 75.9873 168.537 76.426C168.117 76.8647 167.543 77.056 166.815 77V76.342C167.375 76.3887 167.79 76.2393 168.061 75.894C168.331 75.5487 168.467 74.9373 168.467 74.06V70H173.395ZM180.711 70H181.327V77H180.613V71.218L176.161 77H175.545V70H176.245V75.782L180.711 70ZM186.638 69.846C187.665 69.846 188.495 70.21 189.13 70.938C189.774 71.666 190.096 72.5293 190.096 73.528C190.096 73.5653 190.091 73.6213 190.082 73.696C190.082 73.7707 190.082 73.8267 190.082 73.864H183.74C183.824 74.648 184.137 75.2827 184.678 75.768C185.229 76.244 185.905 76.482 186.708 76.482C187.268 76.482 187.758 76.3653 188.178 76.132C188.598 75.8987 188.915 75.5907 189.13 75.208L189.746 75.572C189.457 76.0573 189.046 76.4447 188.514 76.734C187.982 77.014 187.375 77.154 186.694 77.154C185.621 77.154 184.739 76.8133 184.048 76.132C183.357 75.4413 183.012 74.564 183.012 73.5C183.012 72.4547 183.348 71.5867 184.02 70.896C184.701 70.196 185.574 69.846 186.638 69.846ZM186.638 70.518C185.845 70.518 185.182 70.7653 184.65 71.26C184.118 71.7547 183.815 72.394 183.74 73.178H189.368C189.293 72.3473 188.995 71.6987 188.472 71.232C187.959 70.756 187.347 70.518 186.638 70.518ZM196.8 70H197.514V77H196.8V73.836H192.432V77H191.732V70H192.432V73.164H196.8V70ZM204.576 70V70.686H202.028V77H201.328V70.686H198.78V70H204.576ZM208.774 77.154C207.748 77.154 206.875 76.804 206.156 76.104C205.447 75.3947 205.092 74.5267 205.092 73.5C205.092 72.4733 205.447 71.61 206.156 70.91C206.875 70.2007 207.748 69.846 208.774 69.846C209.792 69.846 210.655 70.2007 211.364 70.91C212.083 71.61 212.442 72.4733 212.442 73.5C212.442 74.5267 212.083 75.3947 211.364 76.104C210.655 76.804 209.792 77.154 208.774 77.154ZM206.66 75.614C207.239 76.1927 207.944 76.482 208.774 76.482C209.605 76.482 210.305 76.1927 210.874 75.614C211.444 75.0353 211.728 74.3307 211.728 73.5C211.728 72.6693 211.444 71.9647 210.874 71.386C210.305 70.8073 209.605 70.518 208.774 70.518C207.944 70.518 207.239 70.8073 206.66 71.386C206.091 71.9647 205.806 72.6693 205.806 73.5C205.806 74.3307 206.091 75.0353 206.66 75.614ZM218.439 73.388C219.26 73.6587 219.671 74.2187 219.671 75.068C219.671 75.628 219.484 76.09 219.111 76.454C218.747 76.818 218.215 77 217.515 77H214.127V70H217.249C217.911 70 218.425 70.1727 218.789 70.518C219.153 70.8633 219.335 71.302 219.335 71.834C219.335 72.5807 219.036 73.0987 218.439 73.388ZM217.249 70.686H214.827V73.108H217.249C217.697 73.108 218.037 73.0007 218.271 72.786C218.504 72.5713 218.621 72.268 218.621 71.876C218.621 71.5027 218.499 71.2133 218.257 71.008C218.023 70.7933 217.687 70.686 217.249 70.686ZM217.515 76.314C217.981 76.314 218.341 76.202 218.593 75.978C218.845 75.754 218.971 75.4413 218.971 75.04C218.971 74.648 218.84 74.3447 218.579 74.13C218.327 73.906 217.972 73.794 217.515 73.794H214.827V76.314H217.515ZM4.55 99.2C5.42733 99.2 6.15533 99.4893 6.734 100.068C7.31267 100.647 7.602 101.37 7.602 102.238C7.602 103.106 7.31267 103.829 6.734 104.408C6.15533 104.977 5.42733 105.262 4.55 105.262H1.96V109H1.218V99.2H4.55ZM4.55 104.562C5.222 104.562 5.77267 104.343 6.202 103.904C6.64067 103.465 6.86 102.91 6.86 102.238C6.86 101.557 6.64067 100.997 6.202 100.558C5.77267 100.119 5.222 99.9 4.55 99.9H1.96V104.562H4.55ZM11.8843 101.846C12.9109 101.846 13.7416 102.21 14.3763 102.938C15.0203 103.666 15.3423 104.529 15.3423 105.528C15.3423 105.565 15.3376 105.621 15.3283 105.696C15.3283 105.771 15.3283 105.827 15.3283 105.864H8.98625C9.07025 106.648 9.38292 107.283 9.92425 107.768C10.4749 108.244 11.1516 108.482 11.9543 108.482C12.5143 108.482 13.0043 108.365 13.4243 108.132C13.8443 107.899 14.1616 107.591 14.3763 107.208L14.9923 107.572C14.7029 108.057 14.2923 108.445 13.7603 108.734C13.2283 109.014 12.6216 109.154 11.9403 109.154C10.8669 109.154 9.98492 108.813 9.29425 108.132C8.60358 107.441 8.25825 106.564 8.25825 105.5C8.25825 104.455 8.59425 103.587 9.26625 102.896C9.94758 102.196 10.8203 101.846 11.8843 101.846ZM11.8843 102.518C11.0909 102.518 10.4283 102.765 9.89625 103.26C9.36425 103.755 9.06092 104.394 8.98625 105.178H14.6143C14.5396 104.347 14.2409 103.699 13.7183 103.232C13.2049 102.756 12.5936 102.518 11.8843 102.518ZM23.6424 102.98C24.3331 103.661 24.6784 104.501 24.6784 105.5C24.6784 106.499 24.3331 107.343 23.6424 108.034C22.9611 108.715 22.0604 109.089 20.9404 109.154V111.8H20.2404V109.154C19.1204 109.089 18.2151 108.715 17.5244 108.034C16.8431 107.343 16.5024 106.499 16.5024 105.5C16.5024 104.501 16.8431 103.661 17.5244 102.98C18.2151 102.289 19.1204 101.911 20.2404 101.846V99.2H20.9404V101.846C22.0604 101.911 22.9611 102.289 23.6424 102.98ZM18.0424 103.456C17.4917 104.007 17.2164 104.688 17.2164 105.5C17.2164 106.312 17.4917 106.993 18.0424 107.544C18.5931 108.095 19.3257 108.403 20.2404 108.468V102.532C19.3257 102.597 18.5931 102.905 18.0424 103.456ZM20.9404 108.468C21.8551 108.403 22.5877 108.095 23.1384 107.544C23.6891 106.993 23.9644 106.312 23.9644 105.5C23.9644 104.688 23.6891 104.007 23.1384 103.456C22.5877 102.905 21.8551 102.597 20.9404 102.532V108.468ZM29.5073 101.846C30.534 101.846 31.3646 102.21 31.9993 102.938C32.6433 103.666 32.9653 104.529 32.9653 105.528C32.9653 105.565 32.9606 105.621 32.9513 105.696C32.9513 105.771 32.9513 105.827 32.9513 105.864H26.6093C26.6933 106.648 27.006 107.283 27.5473 107.768C28.098 108.244 28.7746 108.482 29.5773 108.482C30.1373 108.482 30.6273 108.365 31.0473 108.132C31.4673 107.899 31.7846 107.591 31.9993 107.208L32.6153 107.572C32.326 108.057 31.9153 108.445 31.3833 108.734C30.8513 109.014 30.2446 109.154 29.5633 109.154C28.49 109.154 27.608 108.813 26.9173 108.132C26.2266 107.441 25.8813 106.564 25.8813 105.5C25.8813 104.455 26.2173 103.587 26.8893 102.896C27.5706 102.196 28.4433 101.846 29.5073 101.846ZM29.5073 102.518C28.714 102.518 28.0513 102.765 27.5193 103.26C26.9873 103.755 26.684 104.394 26.6093 105.178H32.2373C32.1626 104.347 31.864 103.699 31.3413 103.232C30.828 102.756 30.2166 102.518 29.5073 102.518ZM38.3114 101.846C39.3194 101.846 40.1734 102.201 40.8734 102.91C41.5828 103.61 41.9374 104.473 41.9374 105.5C41.9374 106.527 41.5828 107.395 40.8734 108.104C40.1734 108.804 39.3194 109.154 38.3114 109.154C37.6488 109.154 37.0514 108.995 36.5194 108.678C35.9968 108.361 35.5908 107.927 35.3014 107.376V111.8H34.6014V102H35.3014V103.624C35.5908 103.073 35.9968 102.639 36.5194 102.322C37.0514 102.005 37.6488 101.846 38.3114 101.846ZM36.1554 107.614C36.7341 108.193 37.4388 108.482 38.2694 108.482C39.1001 108.482 39.8001 108.193 40.3694 107.614C40.9481 107.035 41.2374 106.331 41.2374 105.5C41.2374 104.669 40.9481 103.965 40.3694 103.386C39.8001 102.807 39.1001 102.518 38.2694 102.518C37.4388 102.518 36.7341 102.807 36.1554 103.386C35.5861 103.965 35.3014 104.669 35.3014 105.5C35.3014 106.331 35.5861 107.035 36.1554 107.614ZM49.7849 102H50.4989V109H49.7849V107.418C49.4862 107.959 49.0755 108.384 48.5529 108.692C48.0302 109 47.4375 109.154 46.7749 109.154C45.7762 109.154 44.9222 108.804 44.2129 108.104C43.5035 107.395 43.1489 106.527 43.1489 105.5C43.1489 104.473 43.5035 103.61 44.2129 102.91C44.9222 102.201 45.7762 101.846 46.7749 101.846C47.4375 101.846 48.0302 102 48.5529 102.308C49.0755 102.616 49.4862 103.041 49.7849 103.582V102ZM44.7169 107.614C45.2955 108.193 46.0002 108.482 46.8309 108.482C47.6615 108.482 48.3615 108.193 48.9309 107.614C49.5002 107.035 49.7849 106.331 49.7849 105.5C49.7849 104.669 49.5002 103.965 48.9309 103.386C48.3615 102.807 47.6615 102.518 46.8309 102.518C46.0002 102.518 45.2955 102.807 44.7169 103.386C44.1475 103.965 43.8629 104.669 43.8629 105.5C43.8629 106.331 44.1475 107.035 44.7169 107.614ZM58.3323 102V109H57.6323V102.686H54.1043V106.06C54.1043 107.199 53.8943 107.987 53.4743 108.426C53.0543 108.865 52.4803 109.056 51.7523 109V108.342C52.3123 108.389 52.7276 108.239 52.9983 107.894C53.269 107.549 53.4043 106.937 53.4043 106.06V102H58.3323ZM63.2543 104.716C63.8983 104.716 64.4443 104.917 64.8923 105.318C65.3403 105.719 65.5643 106.233 65.5643 106.858C65.5643 107.483 65.3403 107.997 64.8923 108.398C64.4443 108.799 63.8983 109 63.2543 109H60.4823V102H61.1823V104.716H63.2543ZM63.2543 108.314C63.7023 108.314 64.0803 108.179 64.3883 107.908C64.6963 107.637 64.8503 107.287 64.8503 106.858C64.8503 106.419 64.6963 106.069 64.3883 105.808C64.0896 105.537 63.7116 105.402 63.2543 105.402H61.1823V108.314H63.2543ZM72.1675 102H72.8815V109H72.1675V105.836H67.7995V109H67.0995V102H67.7995V105.164H72.1675V102ZM81.2028 102H81.9168V109H81.2028V107.418C80.9042 107.959 80.4935 108.384 79.9708 108.692C79.4482 109 78.8555 109.154 78.1928 109.154C77.1942 109.154 76.3402 108.804 75.6308 108.104C74.9215 107.395 74.5668 106.527 74.5668 105.5C74.5668 104.473 74.9215 103.61 75.6308 102.91C76.3402 102.201 77.1942 101.846 78.1928 101.846C78.8555 101.846 79.4482 102 79.9708 102.308C80.4935 102.616 80.9042 103.041 81.2028 103.582V102ZM76.1348 107.614C76.7135 108.193 77.4182 108.482 78.2488 108.482C79.0795 108.482 79.7795 108.193 80.3488 107.614C80.9182 107.035 81.2028 106.331 81.2028 105.5C81.2028 104.669 80.9182 103.965 80.3488 103.386C79.7795 102.807 79.0795 102.518 78.2488 102.518C77.4182 102.518 76.7135 102.807 76.1348 103.386C75.5655 103.965 75.2808 104.669 75.2808 105.5C75.2808 106.331 75.5655 107.035 76.1348 107.614ZM88.9103 102V109H88.2103V106.27H86.6983L84.5003 109H83.5903L85.8303 106.256C85.2609 106.191 84.7849 105.967 84.4023 105.584C84.0196 105.192 83.8283 104.711 83.8283 104.142C83.8283 103.517 84.0523 103.003 84.5003 102.602C84.9483 102.201 85.4943 102 86.1383 102H88.9103ZM86.1383 105.598H88.2103V102.686H86.1383C85.6903 102.686 85.3123 102.821 85.0043 103.092C84.6963 103.363 84.5423 103.713 84.5423 104.142C84.5423 104.581 84.6916 104.935 84.9903 105.206C85.2983 105.467 85.6809 105.598 86.1383 105.598ZM100.581 102V109H99.8667V102.686H95.4987V109H94.7987V102H100.581ZM106.452 101.846C107.46 101.846 108.314 102.201 109.014 102.91C109.723 103.61 110.078 104.473 110.078 105.5C110.078 106.527 109.723 107.395 109.014 108.104C108.314 108.804 107.46 109.154 106.452 109.154C105.789 109.154 105.192 108.995 104.66 108.678C104.137 108.361 103.731 107.927 103.442 107.376V111.8H102.742V102H103.442V103.624C103.731 103.073 104.137 102.639 104.66 102.322C105.192 102.005 105.789 101.846 106.452 101.846ZM104.296 107.614C104.875 108.193 105.579 108.482 106.41 108.482C107.241 108.482 107.941 108.193 108.51 107.614C109.089 107.035 109.378 106.331 109.378 105.5C109.378 104.669 109.089 103.965 108.51 103.386C107.941 102.807 107.241 102.518 106.41 102.518C105.579 102.518 104.875 102.807 104.296 103.386C103.727 103.965 103.442 104.669 103.442 105.5C103.442 106.331 103.727 107.035 104.296 107.614ZM114.972 109.154C113.945 109.154 113.072 108.804 112.354 108.104C111.644 107.395 111.29 106.527 111.29 105.5C111.29 104.473 111.644 103.61 112.354 102.91C113.072 102.201 113.945 101.846 114.972 101.846C115.989 101.846 116.852 102.201 117.562 102.91C118.28 103.61 118.64 104.473 118.64 105.5C118.64 106.527 118.28 107.395 117.562 108.104C116.852 108.804 115.989 109.154 114.972 109.154ZM112.858 107.614C113.436 108.193 114.141 108.482 114.972 108.482C115.802 108.482 116.502 108.193 117.072 107.614C117.641 107.035 117.926 106.331 117.926 105.5C117.926 104.669 117.641 103.965 117.072 103.386C116.502 102.807 115.802 102.518 114.972 102.518C114.141 102.518 113.436 102.807 112.858 103.386C112.288 103.965 112.004 104.669 112.004 105.5C112.004 106.331 112.288 107.035 112.858 107.614ZM124.706 102V102.686H121.024V109H120.324V102H124.706ZM129.667 101.846C130.675 101.846 131.529 102.201 132.229 102.91C132.938 103.61 133.293 104.473 133.293 105.5C133.293 106.527 132.938 107.395 132.229 108.104C131.529 108.804 130.675 109.154 129.667 109.154C129.004 109.154 128.407 108.995 127.875 108.678C127.352 108.361 126.946 107.927 126.657 107.376V111.8H125.957V102H126.657V103.624C126.946 103.073 127.352 102.639 127.875 102.322C128.407 102.005 129.004 101.846 129.667 101.846ZM127.511 107.614C128.09 108.193 128.794 108.482 129.625 108.482C130.456 108.482 131.156 108.193 131.725 107.614C132.304 107.035 132.593 106.331 132.593 105.5C132.593 104.669 132.304 103.965 131.725 103.386C131.156 102.807 130.456 102.518 129.625 102.518C128.794 102.518 128.09 102.807 127.511 103.386C126.942 103.965 126.657 104.669 126.657 105.5C126.657 106.331 126.942 107.035 127.511 107.614ZM141.14 102H141.854V109H141.14V107.418C140.842 107.959 140.431 108.384 139.908 108.692C139.386 109 138.793 109.154 138.13 109.154C137.132 109.154 136.278 108.804 135.568 108.104C134.859 107.395 134.504 106.527 134.504 105.5C134.504 104.473 134.859 103.61 135.568 102.91C136.278 102.201 137.132 101.846 138.13 101.846C138.793 101.846 139.386 102 139.908 102.308C140.431 102.616 140.842 103.041 141.14 103.582V102ZM136.072 107.614C136.651 108.193 137.356 108.482 138.186 108.482C139.017 108.482 139.717 108.193 140.286 107.614C140.856 107.035 141.14 106.331 141.14 105.5C141.14 104.669 140.856 103.965 140.286 103.386C139.717 102.807 139.017 102.518 138.186 102.518C137.356 102.518 136.651 102.807 136.072 103.386C135.503 103.965 135.218 104.669 135.218 105.5C135.218 106.331 135.503 107.035 136.072 107.614ZM150.766 102V109H150.052V103.064L147.434 107.194H147.336L144.704 103.036V109H144.004V102H144.83L147.378 106.018L149.926 102H150.766ZM159.68 102V109H158.966V103.064L156.348 107.194H156.25L153.618 103.036V109H152.918V102H153.744L156.292 106.018L158.84 102H159.68ZM167.992 102H168.706V109H167.992V107.418C167.693 107.959 167.283 108.384 166.76 108.692C166.237 109 165.645 109.154 164.982 109.154C163.983 109.154 163.129 108.804 162.42 108.104C161.711 107.395 161.356 106.527 161.356 105.5C161.356 104.473 161.711 103.61 162.42 102.91C163.129 102.201 163.983 101.846 164.982 101.846C165.645 101.846 166.237 102 166.76 102.308C167.283 102.616 167.693 103.041 167.992 103.582V102ZM162.924 107.614C163.503 108.193 164.207 108.482 165.038 108.482C165.869 108.482 166.569 108.193 167.138 107.614C167.707 107.035 167.992 106.331 167.992 105.5C167.992 104.669 167.707 103.965 167.138 103.386C166.569 102.807 165.869 102.518 165.038 102.518C164.207 102.518 163.503 102.807 162.924 103.386C162.355 103.965 162.07 104.669 162.07 105.5C162.07 106.331 162.355 107.035 162.924 107.614ZM7.868 141H6.874L1.96 136.17V141H1.218V131.2H1.96V135.764L6.734 131.2H7.728L2.772 135.96L7.868 141ZM11.1299 133.846C12.1939 133.846 13.0479 134.191 13.6919 134.882C14.3452 135.573 14.6719 136.445 14.6719 137.5C14.6719 138.555 14.3452 139.427 13.6919 140.118C13.0386 140.809 12.1799 141.154 11.1159 141.154C10.3692 141.154 9.72056 140.995 9.16989 140.678C8.61922 140.351 8.21789 139.913 7.96589 139.362L8.56789 138.998C8.75456 139.455 9.06722 139.819 9.50589 140.09C9.95389 140.351 10.4906 140.482 11.1159 140.482C11.9092 140.482 12.5579 140.235 13.0619 139.74C13.5752 139.236 13.8692 138.601 13.9439 137.836H10.3179V137.164H13.9439C13.8692 136.389 13.5799 135.755 13.0759 135.26C12.5719 134.765 11.9232 134.518 11.1299 134.518C10.5512 134.518 10.0379 134.649 9.58989 134.91C9.15122 135.171 8.82456 135.531 8.60989 135.988L7.99389 135.638C8.27389 135.087 8.68922 134.653 9.23989 134.336C9.79056 134.009 10.4206 133.846 11.1299 133.846ZM24.9175 134H25.6315V141H16.3495V134H17.0495V140.314H20.6335V134H21.3475V140.314H24.9175V134ZM30.8448 141.168C29.8368 141.168 28.9968 140.837 28.3248 140.174C27.6528 139.502 27.3168 138.634 27.3168 137.57C27.3168 136.403 27.4848 135.503 27.8208 134.868C28.1662 134.224 28.8708 133.641 29.9348 133.118C30.1402 133.025 30.3828 132.917 30.6628 132.796C30.9428 132.675 31.1668 132.581 31.3348 132.516C31.5122 132.441 31.6988 132.353 31.8948 132.25C32.1002 132.138 32.2635 132.031 32.3848 131.928C32.5062 131.825 32.6135 131.699 32.7068 131.55C32.8002 131.391 32.8608 131.214 32.8888 131.018L33.4488 131.34C33.4022 131.601 33.3135 131.83 33.1828 132.026C33.0615 132.222 32.8748 132.404 32.6228 132.572C32.3802 132.731 32.1655 132.857 31.9788 132.95C31.8015 133.043 31.5215 133.169 31.1388 133.328C30.7562 133.487 30.4808 133.603 30.3128 133.678C29.6222 133.986 29.1135 134.322 28.7868 134.686C28.4695 135.05 28.2548 135.54 28.1428 136.156C28.4695 135.643 28.8942 135.26 29.4168 135.008C29.9395 134.756 30.4668 134.63 30.9988 134.63C31.9322 134.63 32.7068 134.938 33.3228 135.554C33.9388 136.17 34.2468 136.954 34.2468 137.906C34.2468 138.849 33.9248 139.628 33.2808 140.244C32.6462 140.86 31.8342 141.168 30.8448 141.168ZM30.8448 140.468C31.6288 140.468 32.2728 140.23 32.7768 139.754C33.2808 139.269 33.5328 138.653 33.5328 137.906C33.5328 137.15 33.2902 136.529 32.8048 136.044C32.3195 135.559 31.6895 135.316 30.9148 135.316C30.2055 135.316 29.5662 135.54 28.9968 135.988C28.4368 136.436 28.1288 137.015 28.0728 137.724C28.0728 138.527 28.3342 139.185 28.8568 139.698C29.3795 140.211 30.0422 140.468 30.8448 140.468ZM38.9409 133.846C39.9676 133.846 40.7982 134.21 41.4329 134.938C42.0769 135.666 42.3989 136.529 42.3989 137.528C42.3989 137.565 42.3942 137.621 42.3849 137.696C42.3849 137.771 42.3849 137.827 42.3849 137.864H36.0429C36.1269 138.648 36.4396 139.283 36.9809 139.768C37.5316 140.244 38.2082 140.482 39.0109 140.482C39.5709 140.482 40.0609 140.365 40.4809 140.132C40.9009 139.899 41.2182 139.591 41.4329 139.208L42.0489 139.572C41.7596 140.057 41.3489 140.445 40.8169 140.734C40.2849 141.014 39.6782 141.154 38.9969 141.154C37.9236 141.154 37.0416 140.813 36.3509 140.132C35.6602 139.441 35.3149 138.564 35.3149 137.5C35.3149 136.455 35.6509 135.587 36.3229 134.896C37.0042 134.196 37.8769 133.846 38.9409 133.846ZM38.9409 134.518C38.1476 134.518 37.4849 134.765 36.9529 135.26C36.4209 135.755 36.1176 136.394 36.0429 137.178H41.6709C41.5962 136.347 41.2976 135.699 40.7749 135.232C40.2616 134.756 39.6502 134.518 38.9409 134.518ZM49.397 141H48.445L44.735 137.556V141H44.035V134H44.735V137.178L48.277 134H49.257L45.491 137.36L49.397 141ZM63.537 131.2V141H62.795V132.292L59.169 138.312H59.043L55.417 132.292V141H54.675V131.2H55.599L59.099 136.996L62.599 131.2H63.537ZM66.528 135.372C66.948 134.392 67.7273 133.902 68.866 133.902V134.574C68.2033 134.574 67.648 134.789 67.2 135.218C66.752 135.638 66.528 136.268 66.528 137.108V141H65.828V134H66.528V135.372ZM70.1687 140.958C70.0473 141.079 69.898 141.14 69.7207 141.14C69.5433 141.14 69.394 141.079 69.2727 140.958C69.1513 140.837 69.0907 140.687 69.0907 140.51C69.0907 140.333 69.1513 140.183 69.2727 140.062C69.394 139.941 69.5433 139.88 69.7207 139.88C69.898 139.88 70.0473 139.941 70.1687 140.062C70.29 140.183 70.3507 140.333 70.3507 140.51C70.3507 140.687 70.29 140.837 70.1687 140.958ZM82.3415 141L79.9895 136.982H76.8955V141H76.1535V131.2H80.0175C80.8109 131.2 81.4922 131.485 82.0615 132.054C82.6309 132.623 82.9155 133.305 82.9155 134.098C82.9155 134.761 82.7102 135.349 82.2995 135.862C81.8982 136.375 81.3849 136.716 80.7595 136.884L83.1955 141H82.3415ZM76.8955 131.9V136.282H80.0175C80.6149 136.282 81.1235 136.072 81.5435 135.652C81.9635 135.223 82.1735 134.705 82.1735 134.098C82.1735 133.491 81.9635 132.973 81.5435 132.544C81.1235 132.115 80.6149 131.9 80.0175 131.9H76.8955ZM87.394 133.846C88.4207 133.846 89.2513 134.21 89.886 134.938C90.53 135.666 90.852 136.529 90.852 137.528C90.852 137.565 90.8473 137.621 90.838 137.696C90.838 137.771 90.838 137.827 90.838 137.864H84.496C84.58 138.648 84.8927 139.283 85.434 139.768C85.9847 140.244 86.6613 140.482 87.464 140.482C88.024 140.482 88.514 140.365 88.934 140.132C89.354 139.899 89.6713 139.591 89.886 139.208L90.502 139.572C90.2127 140.057 89.802 140.445 89.27 140.734C88.738 141.014 88.1313 141.154 87.45 141.154C86.3767 141.154 85.4947 140.813 84.804 140.132C84.1133 139.441 83.768 138.564 83.768 137.5C83.768 136.455 84.104 135.587 84.776 134.896C85.4573 134.196 86.33 133.846 87.394 133.846ZM87.394 134.518C86.6007 134.518 85.938 134.765 85.406 135.26C84.874 135.755 84.5707 136.394 84.496 137.178H90.124C90.0493 136.347 89.7507 135.699 89.228 135.232C88.7147 134.756 88.1033 134.518 87.394 134.518ZM96.1982 133.846C97.2062 133.846 98.0602 134.201 98.7602 134.91C99.4695 135.61 99.8242 136.473 99.8242 137.5C99.8242 138.527 99.4695 139.395 98.7602 140.104C98.0602 140.804 97.2062 141.154 96.1982 141.154C95.5355 141.154 94.9382 140.995 94.4062 140.678C93.8835 140.361 93.4775 139.927 93.1882 139.376V141H92.4882V131.2H93.1882V135.624C93.4775 135.073 93.8835 134.639 94.4062 134.322C94.9382 134.005 95.5355 133.846 96.1982 133.846ZM94.0422 139.614C94.6208 140.193 95.3255 140.482 96.1562 140.482C96.9868 140.482 97.6868 140.193 98.2562 139.614C98.8348 139.035 99.1242 138.331 99.1242 137.5C99.1242 136.669 98.8348 135.965 98.2562 135.386C97.6868 134.807 96.9868 134.518 96.1562 134.518C95.3255 134.518 94.6208 134.807 94.0422 135.386C93.4728 135.965 93.1882 136.669 93.1882 137.5C93.1882 138.331 93.4728 139.035 94.0422 139.614ZM107.672 134H108.386V141H107.672V139.418C107.373 139.959 106.962 140.384 106.44 140.692C105.917 141 105.324 141.154 104.662 141.154C103.663 141.154 102.809 140.804 102.1 140.104C101.39 139.395 101.036 138.527 101.036 137.5C101.036 136.473 101.39 135.61 102.1 134.91C102.809 134.201 103.663 133.846 104.662 133.846C105.324 133.846 105.917 134 106.44 134.308C106.962 134.616 107.373 135.041 107.672 135.582V134ZM102.604 139.614C103.182 140.193 103.887 140.482 104.718 140.482C105.548 140.482 106.248 140.193 106.818 139.614C107.387 139.035 107.672 138.331 107.672 137.5C107.672 136.669 107.387 135.965 106.818 135.386C106.248 134.807 105.548 134.518 104.718 134.518C103.887 134.518 103.182 134.807 102.604 135.386C102.034 135.965 101.75 136.669 101.75 137.5C101.75 138.331 102.034 139.035 102.604 139.614ZM114.119 134.686H112.033V139.236C112.033 139.637 112.108 139.927 112.257 140.104C112.406 140.281 112.635 140.384 112.943 140.412C113.251 140.431 113.643 140.417 114.119 140.37V141C113.176 141.14 112.472 141.075 112.005 140.804C111.548 140.533 111.319 140.011 111.319 139.236V134.686H109.779V134H111.319V132.25L112.033 132.04V134H114.119V134.686ZM118.525 133.846C119.552 133.846 120.382 134.21 121.017 134.938C121.661 135.666 121.983 136.529 121.983 137.528C121.983 137.565 121.978 137.621 121.969 137.696C121.969 137.771 121.969 137.827 121.969 137.864H115.627C115.711 138.648 116.024 139.283 116.565 139.768C117.116 140.244 117.792 140.482 118.595 140.482C119.155 140.482 119.645 140.365 120.065 140.132C120.485 139.899 120.802 139.591 121.017 139.208L121.633 139.572C121.344 140.057 120.933 140.445 120.401 140.734C119.869 141.014 119.262 141.154 118.581 141.154C117.508 141.154 116.626 140.813 115.935 140.132C115.244 139.441 114.899 138.564 114.899 137.5C114.899 136.455 115.235 135.587 115.907 134.896C116.588 134.196 117.461 133.846 118.525 133.846ZM118.525 134.518C117.732 134.518 117.069 134.765 116.537 135.26C116.005 135.755 115.702 136.394 115.627 137.178H121.255C121.18 136.347 120.882 135.699 120.359 135.232C119.846 134.756 119.234 134.518 118.525 134.518ZM123.822 135.834C123.822 136.179 123.966 136.45 124.256 136.646C124.545 136.842 124.9 136.991 125.32 137.094C125.74 137.187 126.155 137.295 126.566 137.416C126.986 137.537 127.34 137.743 127.63 138.032C127.919 138.312 128.064 138.69 128.064 139.166C128.064 139.745 127.83 140.221 127.364 140.594C126.906 140.967 126.304 141.154 125.558 141.154C124.886 141.154 124.316 141.014 123.85 140.734C123.392 140.445 123.075 140.067 122.898 139.6L123.5 139.25C123.63 139.633 123.873 139.936 124.228 140.16C124.592 140.375 125.035 140.482 125.558 140.482C126.08 140.482 126.51 140.37 126.846 140.146C127.191 139.913 127.364 139.586 127.364 139.166C127.364 138.821 127.219 138.545 126.93 138.34C126.64 138.135 126.286 137.985 125.866 137.892C125.446 137.789 125.026 137.677 124.606 137.556C124.195 137.435 123.845 137.234 123.556 136.954C123.266 136.674 123.122 136.301 123.122 135.834C123.122 135.274 123.341 134.803 123.78 134.42C124.228 134.037 124.802 133.846 125.502 133.846C126.062 133.846 126.547 133.972 126.958 134.224C127.378 134.476 127.686 134.817 127.882 135.246L127.294 135.582C127.154 135.237 126.92 134.975 126.594 134.798C126.267 134.611 125.903 134.518 125.502 134.518C125.026 134.518 124.624 134.639 124.298 134.882C123.98 135.115 123.822 135.433 123.822 135.834ZM138.656 134H139.272V141H138.558V135.218L134.106 141H133.49V134H134.19V139.782L138.656 134ZM151.494 141L149.142 136.982H146.048V141H145.306V131.2H149.17C149.963 131.2 150.645 131.485 151.214 132.054C151.783 132.623 152.068 133.305 152.068 134.098C152.068 134.761 151.863 135.349 151.452 135.862C151.051 136.375 150.537 136.716 149.912 136.884L152.348 141H151.494ZM146.048 131.9V136.282H149.17C149.767 136.282 150.276 136.072 150.696 135.652C151.116 135.223 151.326 134.705 151.326 134.098C151.326 133.491 151.116 132.973 150.696 132.544C150.276 132.115 149.767 131.9 149.17 131.9H146.048ZM159.556 134H160.27V141H159.556V139.418C159.258 139.959 158.847 140.384 158.324 140.692C157.802 141 157.209 141.154 156.546 141.154C155.548 141.154 154.694 140.804 153.984 140.104C153.275 139.395 152.92 138.527 152.92 137.5C152.92 136.473 153.275 135.61 153.984 134.91C154.694 134.201 155.548 133.846 156.546 133.846C157.209 133.846 157.802 134 158.324 134.308C158.847 134.616 159.258 135.041 159.556 135.582V134ZM154.488 139.614C155.067 140.193 155.772 140.482 156.602 140.482C157.433 140.482 158.133 140.193 158.702 139.614C159.272 139.035 159.556 138.331 159.556 137.5C159.556 136.669 159.272 135.965 158.702 135.386C158.133 134.807 157.433 134.518 156.602 134.518C155.772 134.518 155.067 134.807 154.488 135.386C153.919 135.965 153.634 136.669 153.634 137.5C153.634 138.331 153.919 139.035 154.488 139.614ZM167.782 141H166.83L163.12 137.556V141H162.42V131.2H163.12V137.178L166.662 134H167.642L163.876 137.36L167.782 141ZM173.954 134H174.654V141H173.954V139.67C173.45 140.659 172.615 141.154 171.448 141.154C170.617 141.154 169.955 140.902 169.46 140.398C168.975 139.885 168.732 139.203 168.732 138.354V134H169.446V138.354C169.446 139.007 169.623 139.525 169.978 139.908C170.342 140.291 170.851 140.482 171.504 140.482C172.223 140.482 172.811 140.244 173.268 139.768C173.725 139.292 173.954 138.601 173.954 137.696V134ZM180.4 134.686H178.314V139.236C178.314 139.637 178.389 139.927 178.538 140.104C178.688 140.281 178.916 140.384 179.224 140.412C179.532 140.431 179.924 140.417 180.4 140.37V141C179.458 141.14 178.753 141.075 178.286 140.804C177.829 140.533 177.6 140.011 177.6 139.236V134.686H176.06V134H177.6V132.25L178.314 132.04V134H180.4V134.686ZM184.806 133.846C185.833 133.846 186.663 134.21 187.298 134.938C187.942 135.666 188.264 136.529 188.264 137.528C188.264 137.565 188.259 137.621 188.25 137.696C188.25 137.771 188.25 137.827 188.25 137.864H181.908C181.992 138.648 182.305 139.283 182.846 139.768C183.397 140.244 184.073 140.482 184.876 140.482C185.436 140.482 185.926 140.365 186.346 140.132C186.766 139.899 187.083 139.591 187.298 139.208L187.914 139.572C187.625 140.057 187.214 140.445 186.682 140.734C186.15 141.014 185.543 141.154 184.862 141.154C183.789 141.154 182.907 140.813 182.216 140.132C181.525 139.441 181.18 138.564 181.18 137.5C181.18 136.455 181.516 135.587 182.188 134.896C182.869 134.196 183.742 133.846 184.806 133.846ZM184.806 134.518C184.013 134.518 183.35 134.765 182.818 135.26C182.286 135.755 181.983 136.394 181.908 137.178H187.536C187.461 136.347 187.163 135.699 186.64 135.232C186.127 134.756 185.515 134.518 184.806 134.518ZM193.106 133.846C193.937 133.846 194.595 134.103 195.08 134.616C195.575 135.12 195.822 135.797 195.822 136.646V141H195.108V136.646C195.108 135.993 194.926 135.475 194.562 135.092C194.208 134.709 193.704 134.518 193.05 134.518C192.332 134.518 191.744 134.756 191.286 135.232C190.829 135.708 190.6 136.399 190.6 137.304V141H189.9V134H190.6V135.33C191.104 134.341 191.94 133.846 193.106 133.846ZM4.214 173.154C3.30867 173.154 2.53867 172.949 1.904 172.538C1.27867 172.118 0.854 171.553 0.63 170.844L1.274 170.466C1.45133 171.073 1.78733 171.553 2.282 171.908C2.786 172.263 3.43 172.44 4.214 172.44C5.00733 172.44 5.614 172.258 6.034 171.894C6.46333 171.53 6.678 171.059 6.678 170.48C6.678 169.939 6.47267 169.523 6.062 169.234C5.65133 168.945 5.012 168.66 4.144 168.38C3.82667 168.277 3.59333 168.203 3.444 168.156C3.304 168.1 3.09867 168.021 2.828 167.918C2.55733 167.806 2.35667 167.708 2.226 167.624C2.09533 167.54 1.93667 167.428 1.75 167.288C1.57267 167.148 1.442 167.008 1.358 166.868C1.274 166.719 1.19933 166.546 1.134 166.35C1.06867 166.145 1.036 165.921 1.036 165.678C1.036 164.885 1.316 164.25 1.876 163.774C2.44533 163.289 3.15467 163.046 4.004 163.046C4.76933 163.046 5.42267 163.237 5.964 163.62C6.50533 164.003 6.902 164.497 7.154 165.104L6.524 165.454C6.05733 164.325 5.21733 163.76 4.004 163.76C3.332 163.76 2.79533 163.937 2.394 164.292C1.99267 164.647 1.792 165.099 1.792 165.65C1.792 166.182 1.97867 166.579 2.352 166.84C2.72533 167.101 3.33667 167.372 4.186 167.652C4.72733 167.829 5.14733 167.983 5.446 168.114C5.754 168.235 6.08067 168.408 6.426 168.632C6.78067 168.847 7.03733 169.108 7.196 169.416C7.35467 169.715 7.434 170.065 7.434 170.466C7.434 171.278 7.14 171.931 6.552 172.426C5.964 172.911 5.18467 173.154 4.214 173.154ZM12.496 166.686H10.41V171.236C10.41 171.637 10.4847 171.927 10.634 172.104C10.7833 172.281 11.012 172.384 11.32 172.412C11.628 172.431 12.02 172.417 12.496 172.37V173C11.5533 173.14 10.8487 173.075 10.382 172.804C9.92465 172.533 9.69598 172.011 9.69598 171.236V166.686H8.15598V166H9.69598V164.25L10.41 164.04V166H12.496V166.686ZM16.9578 173.154C15.9312 173.154 15.0585 172.804 14.3398 172.104C13.6305 171.395 13.2758 170.527 13.2758 169.5C13.2758 168.473 13.6305 167.61 14.3398 166.91C15.0585 166.201 15.9312 165.846 16.9578 165.846C17.9752 165.846 18.8385 166.201 19.5478 166.91C20.2665 167.61 20.6258 168.473 20.6258 169.5C20.6258 170.527 20.2665 171.395 19.5478 172.104C18.8385 172.804 17.9752 173.154 16.9578 173.154ZM14.8438 171.614C15.4225 172.193 16.1272 172.482 16.9578 172.482C17.7885 172.482 18.4885 172.193 19.0578 171.614C19.6272 171.035 19.9118 170.331 19.9118 169.5C19.9118 168.669 19.6272 167.965 19.0578 167.386C18.4885 166.807 17.7885 166.518 16.9578 166.518C16.1272 166.518 15.4225 166.807 14.8438 167.386C14.2745 167.965 13.9898 168.669 13.9898 169.5C13.9898 170.331 14.2745 171.035 14.8438 171.614ZM26.0204 165.846C27.0284 165.846 27.8824 166.201 28.5824 166.91C29.2918 167.61 29.6464 168.473 29.6464 169.5C29.6464 170.527 29.2918 171.395 28.5824 172.104C27.8824 172.804 27.0284 173.154 26.0204 173.154C25.3578 173.154 24.7604 172.995 24.2284 172.678C23.7058 172.361 23.2998 171.927 23.0104 171.376V175.8H22.3104V166H23.0104V167.624C23.2998 167.073 23.7058 166.639 24.2284 166.322C24.7604 166.005 25.3578 165.846 26.0204 165.846ZM23.8644 171.614C24.4431 172.193 25.1478 172.482 25.9784 172.482C26.8091 172.482 27.5091 172.193 28.0784 171.614C28.6571 171.035 28.9464 170.331 28.9464 169.5C28.9464 168.669 28.6571 167.965 28.0784 167.386C27.5091 166.807 26.8091 166.518 25.9784 166.518C25.1478 166.518 24.4431 166.807 23.8644 167.386C23.2951 167.965 23.0104 168.669 23.0104 169.5C23.0104 170.331 23.2951 171.035 23.8644 171.614ZM40.6383 163.9H35.9483V167.82H40.4703V168.52H35.9483V173H35.2063V163.2H40.6383V163.9ZM43.0124 167.372C43.4324 166.392 44.2117 165.902 45.3504 165.902V166.574C44.6877 166.574 44.1324 166.789 43.6844 167.218C43.2364 167.638 43.0124 168.268 43.0124 169.108V173H42.3124V166H43.0124V167.372ZM52.5056 166H53.2196V173H52.5056V171.418C52.2069 171.959 51.7962 172.384 51.2736 172.692C50.7509 173 50.1582 173.154 49.4956 173.154C48.4969 173.154 47.6429 172.804 46.9336 172.104C46.2242 171.395 45.8696 170.527 45.8696 169.5C45.8696 168.473 46.2242 167.61 46.9336 166.91C47.6429 166.201 48.4969 165.846 49.4956 165.846C50.1582 165.846 50.7509 166 51.2736 166.308C51.7962 166.616 52.2069 167.041 52.5056 167.582V166ZM47.4376 171.614C48.0162 172.193 48.7209 172.482 49.5516 172.482C50.3822 172.482 51.0822 172.193 51.6516 171.614C52.2209 171.035 52.5056 170.331 52.5056 169.5C52.5056 168.669 52.2209 167.965 51.6516 167.386C51.0822 166.807 50.3822 166.518 49.5516 166.518C48.7209 166.518 48.0162 166.807 47.4376 167.386C46.8682 167.965 46.5836 168.669 46.5836 169.5C46.5836 170.331 46.8682 171.035 47.4376 171.614ZM60.409 166H61.109V173H60.409V171.67C59.905 172.659 59.0697 173.154 57.903 173.154C57.0723 173.154 56.4097 172.902 55.915 172.398C55.4297 171.885 55.187 171.203 55.187 170.354V166H55.901V170.354C55.901 171.007 56.0783 171.525 56.433 171.908C56.797 172.291 57.3057 172.482 57.959 172.482C58.6777 172.482 59.2657 172.244 59.723 171.768C60.1803 171.292 60.409 170.601 60.409 169.696V166ZM69.4454 163.2H70.1454V173H69.4454V171.376C69.156 171.927 68.7454 172.361 68.2134 172.678C67.6907 172.995 67.098 173.154 66.4354 173.154C65.4274 173.154 64.5687 172.804 63.8594 172.104C63.1594 171.395 62.8094 170.527 62.8094 169.5C62.8094 168.473 63.1594 167.61 63.8594 166.91C64.5687 166.201 65.4274 165.846 66.4354 165.846C67.098 165.846 67.6907 166.005 68.2134 166.322C68.7454 166.639 69.156 167.073 69.4454 167.624V163.2ZM64.3634 171.614C64.942 172.193 65.6467 172.482 66.4774 172.482C67.308 172.482 68.008 172.193 68.5774 171.614C69.156 171.035 69.4454 170.331 69.4454 169.5C69.4454 168.669 69.156 167.965 68.5774 167.386C68.008 166.807 67.308 166.518 66.4774 166.518C65.6467 166.518 64.942 166.807 64.3634 167.386C63.794 167.965 63.5094 168.669 63.5094 169.5C63.5094 170.331 63.794 171.035 64.3634 171.614Z" fill="#1F2428"/>
</svg>
